<svg xmlns="http://www.w3.org/2000/svg" viewBox="0 0 1245 2244" role="img" aria-label="MusicalMap">
<title>MusicalMap</title>
<g><path d="M0 0 C1.29486 -0.06252 2.58973 -0.12504 3.92383 -0.18945 C13.64606 -0.35207 18.20595 1.83363 25.0625 8.5625 C26.90405 9.89264 28.75534 11.20967 30.625 12.5 C39.21414 18.72139 45.64604 25.9837 51.82422 34.57031 C54.0625 37.5625 54.0625 37.5625 56.96484 40.89062 C60.28356 44.82454 63.12222 48.88882 65.9375 53.1875 C66.4607 53.98164 66.9839 54.77579 67.52295 55.59399 C69.04388 57.9119 70.55528 60.23567 72.0625 62.5625 C72.42602 63.1226 72.42602 63.1226 74.26562 65.95703 C79.63416 74.45721 84.28558 83.31366 88.875 92.25049 C89.95146 94.34632 91.03768 96.43713 92.125 98.52734 C94.16478 102.51231 96.12904 106.52487 98.0625 110.5625 C98.41715 111.29598 98.77181 112.02945 99.13721 112.78516 C112.27532 140.31373 122.47255 170.78627 129.0625 200.5625 C129.31822 201.69059 129.57394 202.81868 129.8374 203.98096 C133.65458 220.8901 136.55279 237.64177 138.5 254.87109 C139.0625 258.5625 139.0625 258.5625 140.09375 261.75781 C141.46817 267.15573 141.45169 272.44983 141.5625 278 C141.6063 280.18638 141.65821 282.37261 141.71875 284.55859 C141.73744 285.51951 141.75613 286.48042 141.77539 287.47046 C142.0625 290.5625 142.0625 290.5625 143.06738 294.00415 C144.48813 300.5122 144.34765 306.85794 144.32812 313.5 C144.32908 314.21732 144.32908 314.21732 144.33392 317.84741 C144.33528 320.87321 144.33161 323.89902 144.32324 326.9248 C144.31254 331.54636 144.32315 336.16752 144.33594 340.78906 C144.33462 343.73438 144.33205 346.67969 144.32812 349.625 C144.33217 351.00228 144.33622 352.37957 144.34039 353.79858 C144.30816 360.41938 143.93127 366.16209 142.0625 372.5625 C141.77539 375.65454 141.77539 375.65454 141.71875 378.56641 C141.6891 379.63697 141.65945 380.70754 141.62891 381.81055 C141.58456 384.02409 141.54029 386.23763 141.49609 388.45117 C141.33664 394.20188 140.80939 399.04206 139.0625 404.5625 C138.83385 406.89058 138.66683 409.22555 138.5625 411.5625 C138.26322 416.56094 137.51867 420.76571 136.0625 425.5625 C135.7576 427.62312 135.47855 429.68761 135.21484 431.75391 C131.85598 455.82808 125.03946 479.24392 117.20264 502.19482 C116.17639 505.2261 115.18863 508.26549 114.22266 511.31641 C105.44927 538.87753 92.86849 564.94493 79.21826 590.38623 C78.13573 592.4246 77.08427 594.47939 76.03516 596.53516 C65.63927 616.78818 53.57852 636.24925 40.0625 654.5625 C39.10602 655.88508 38.14953 657.20766 37.16406 658.57031 C31.97549 665.72059 26.66626 672.73326 21.0625 679.5625 C19.54163 681.41664 18.0208 683.27081 16.5 685.125 C15.74848 686.03895 14.99695 686.95289 14.22266 687.89453 C12.24682 690.33484 10.33551 692.81155 8.4375 695.3125 C5.82593 698.70874 2.96802 701.64067 -0.11963 704.61694 C-2.14065 706.77992 -3.71697 709.06692 -5.39844 711.50391 C-12.17975 720.62411 -20.37392 728.44571 -28.41943 736.43555 C-31.17767 739.17773 -33.91953 741.93554 -36.66016 744.69531 C-44.87423 752.91803 -52.96799 760.90689 -62.41431 767.71899 C-71.34837 774.24644 -74.53387 779.3806 -73.9375 790.5625 C-73.62812 791.8 -73.31875 793.0375 -73 794.3125 C-71.79127 799.14742 -71.51407 803.74212 -71.28125 808.70703 C-70.9375 811.5625 -70.9375 811.5625 -68.9375 814.5625 C-62.42745 814.69015 -59.54732 811.84882 -54.9375 807.5625 C-52.97134 806.10373 -51.00506 804.64511 -49.03516 803.19141 C-46.05124 800.87429 -43.2807 798.34459 -40.50391 795.78516 C-37.9375 793.5625 -37.9375 793.5625 -34.12329 790.75098 C-27.36238 785.50041 -21.43781 779.37124 -15.39844 773.32422 C-14.10549 772.03517 -12.81233 770.74634 -11.51895 769.45772 C-8.82108 766.76727 -6.12706 764.07303 -3.43555 761.37622 C-0.00695 757.94183 3.43289 754.51894 6.87596 751.09906 C9.54599 748.44384 12.20898 745.78163 14.87007 743.11744 C16.13464 741.85338 17.40154 740.59164 18.67092 739.3324 C24.91557 733.13157 30.86487 727.08949 35.64999 719.67342 C37.63441 716.70781 39.99043 714.14148 42.375 711.49609 C44.06417 709.56058 45.60118 707.56747 47.125 705.5 C49.95847 701.70194 52.97993 698.15884 56.0625 694.5625 C60.14187 689.24158 64.07938 683.81982 68.00781 678.38672 C69.3015 676.60851 70.60718 674.83891 71.92969 673.08203 C81.54683 660.21262 89.75114 646.33101 97.71094 632.39453 C99.41743 629.61369 101.10252 627.12768 103.07812 624.55859 C114.28735 609.54938 120.93527 590.91806 128.42578 573.84375 C129.05307 572.41805 129.68036 570.99234 130.32666 569.52344 C131.39965 567.07502 132.4637 564.62264 133.51318 562.16406 C133.93551 561.19211 134.35784 560.22016 134.79297 559.21875 C135.14126 558.40213 135.48955 557.58551 135.84839 556.74414 C137.9939 552.88887 139.64491 550.57313 144.1875 550.53906 C149.10006 551.83653 153.47777 553.77053 158.0625 555.9375 C159.01802 556.38158 159.97354 556.82566 160.95801 557.2832 C163.99731 558.70029 167.02977 560.1314 170.0625 561.5625 C172.03631 562.4821 174.01026 563.40137 175.98438 564.32031 C187.96255 569.93333 199.61683 575.93205 211.0625 582.5625 C212.28582 583.26633 213.50914 583.97016 214.76953 584.69531 C241.9139 600.63491 267.98646 619.29216 292.0625 639.5625 C292.76504 640.15289 293.46758 640.74328 294.19141 641.35156 C297.74534 644.39779 301.06127 647.56974 304.3125 650.9375 C307.51277 654.18959 310.78622 656.89006 314.50781 659.52344 C321.87844 664.99062 328.24174 671.30127 334.6875 677.8125 C335.83734 678.95074 336.98719 680.08898 338.17188 681.26172 C344.64307 687.75503 350.44056 694.41514 355.91797 701.76318 C358.44422 705.06077 361.21599 707.91686 364.25 710.75 C368.61055 714.9823 372.15068 719.19253 375.48438 724.25781 C377.49323 727.19154 379.78156 729.77465 382.19141 732.38281 C384.42045 734.97949 386.45421 737.70644 388.49438 740.45264 C389.94557 742.40518 391.41536 744.34386 392.88672 746.28125 C399.88935 755.52893 406.57358 764.94397 413.0625 774.5625 C413.89523 775.78582 414.72797 777.00914 415.58594 778.26953 C421.58255 787.15095 427.2249 796.21622 432.75293 805.39307 C433.98679 807.43707 435.23133 809.47462 436.47656 811.51172 C440.92582 818.82777 445.10041 826.23036 449.04297 833.83203 C450.61983 836.7448 452.26253 839.54164 453.99609 842.35938 C457.0509 847.41154 459.5463 852.60763 461.9375 858 C462.36676 858.95882 462.79602 859.91764 463.23828 860.90552 C464.52248 863.78711 465.7947 866.67366 467.0625 869.5625 C467.41603 870.36365 467.76955 871.1648 468.13379 871.99023 C486.53171 913.8936 500.11129 957.90856 509.8125 1002.5625 C509.96546 1003.2536 509.96546 1003.2536 510.7395 1006.75098 C512.31191 1014.09273 513.45797 1021.18695 513.7627 1028.69531 C514.09523 1031.87548 515.0207 1034.54802 516.0625 1037.5625 C516.42048 1041.67114 516.56527 1045.76197 516.71875 1049.88281 C517.0625 1053.5625 517.0625 1053.5625 519.0625 1057.5625 C519.31418 1060.19872 519.31418 1060.19872 519.31647 1063.25562 C519.32211 1064.41649 519.32775 1065.57736 519.33356 1066.77341 C519.32951 1068.04314 519.32546 1069.31288 519.32129 1070.62109 C519.32479 1071.96125 519.3283 1073.3014 519.33191 1074.68216 C519.34073 1079.12149 519.33488 1083.56067 519.32812 1088 C519.32947 1091.07869 519.33141 1094.15739 519.33392 1097.23608 C519.33687 1103.69224 519.33258 1110.14834 519.32324 1116.60449 C519.31185 1124.89048 519.31841 1133.17634 519.33039 1141.46233 C519.33761 1147.82077 519.33532 1154.17918 519.33013 1160.53763 C519.32879 1163.59335 519.33044 1166.64908 519.33509 1169.7048 C519.34016 1173.97125 519.33245 1178.23748 519.32129 1182.50391 C519.32534 1183.77364 519.32939 1185.04338 519.33356 1186.35159 C519.32792 1187.51246 519.32228 1188.67334 519.31647 1189.86938 C519.31571 1190.87816 519.31496 1191.88694 519.31418 1192.92628 C519.0625 1195.5625 519.0625 1195.5625 517.0625 1199.5625 C516.81561 1202.49435 516.65963 1205.43438 516.5625 1208.375 C516.3701 1214.17114 515.74136 1219.02801 514.0625 1224.5625 C513.70195 1227.01425 513.39169 1229.47378 513.125 1231.9375 C512.10223 1240.55235 510.67493 1249.03964 509.0625 1257.5625 C508.89379 1258.46049 508.72509 1259.35849 508.55127 1260.28369 C505.28931 1277.51881 501.31505 1294.5471 497.0625 1311.5625 C496.85158 1312.4194 496.64065 1313.27631 496.42334 1314.15918 C492.5255 1329.95833 487.66473 1345.491 482.84692 1361.02838 C482.02696 1363.6773 481.21153 1366.32759 480.39648 1368.97803 C466.41915 1414.3435 449.43278 1458.2631 430.31006 1501.71143 C429.02218 1504.65464 427.7538 1507.60571 426.48828 1510.55859 C421.1454 1522.95844 415.43743 1535.10541 409.27246 1547.11987 C405.90594 1553.71637 402.76812 1560.3788 399.76172 1567.14453 C395.51456 1576.68809 390.96793 1586.05909 386.27808 1595.39209 C384.9912 1597.95504 383.71304 1600.52221 382.43555 1603.08984 C378.1327 1611.70215 373.67746 1620.16293 368.83374 1628.48779 C366.29154 1632.90082 363.9535 1637.40922 361.625 1641.9375 C355.59614 1653.54081 349.27989 1664.94108 342.5 1676.125 C338.73116 1682.3495 335.28366 1688.69938 331.89453 1695.13672 C329.44487 1699.71743 326.79757 1704.148 324.0625 1708.5625 C316.18281 1721.31239 316.18281 1721.31239 312.75 1727.25 C305.27969 1740.12114 297.36096 1752.70301 289.33472 1765.23218 C285.38247 1771.42478 281.5604 1777.68195 277.8125 1784 C270.83673 1795.7398 263.21989 1807.00481 255.36328 1818.17188 C253.5351 1820.86604 251.7808 1823.57775 250.04688 1826.33203 C244.87139 1834.50298 239.42134 1842.49126 234 1850.5 C233.4458 1851.31965 232.89161 1852.1393 232.32062 1852.9838 C224.0182 1865.26044 215.62493 1877.46545 207.0625 1889.5625 C205.881 1891.25485 204.70003 1892.94757 203.51953 1894.64062 C200.695 1898.67904 197.80799 1902.66433 194.875 1906.625 C190.7824 1912.18125 186.7736 1917.78696 182.8125 1923.4375 C179.24674 1928.51757 175.63714 1933.53495 171.76953 1938.39062 C169.64418 1941.09473 167.60845 1943.86039 165.5625 1946.625 C162.47368 1950.76433 159.26118 1954.66859 155.80859 1958.50391 C153.0043 1961.81008 150.55792 1965.3691 148.03906 1968.89453 C145.74925 1971.98533 143.26574 1974.82684 140.69922 1977.6875 C138.59207 1980.10141 136.688 1982.65507 134.78906 1985.23438 C130.95705 1990.40152 126.99403 1995.47094 123.0625 2000.5625 C122.42957 2001.38234 121.79664 2002.20219 121.14453 2003.04688 C117.48584 2007.76885 113.76681 2012.43947 110.02734 2017.09766 C108.20555 2019.38304 106.41073 2021.68639 104.625 2024 C99.48082 2030.63236 94.22274 2037.18121 88.625 2043.4375 C85.61452 2046.83126 82.87012 2050.38866 80.125 2054 C76.59621 2058.6322 72.95584 2063.04539 69.03125 2067.34375 C66.92117 2069.72178 64.96795 2072.19085 63 2074.6875 C59.14565 2079.46369 54.94756 2083.72267 50.5625 2088 C46.21804 2092.24302 42.25266 2096.38699 38.75 2101.375 C34.73241 2107.04555 30.01864 2111.72637 25.0625 2116.5625 C20.21053 2121.29745 15.5676 2125.84699 11.6875 2131.4375 C6.78542 2138.45305 0.58032 2144.19908 -5.58154 2150.09521 C-5.9967 2150.49781 -5.9967 2150.49781 -8.09766 2152.53516 C-8.83637 2153.23906 -9.57508 2153.94297 -10.33618 2154.66821 C-12.60604 2157.19371 -14.43314 2159.68334 -16.3584 2162.46802 C-21.81307 2170.06819 -28.43936 2176.5174 -35.04297 2183.10156 C-36.41323 2184.4764 -37.78312 2185.8516 -39.15266 2187.22714 C-42.01126 2190.09462 -44.87538 2192.95642 -47.74341 2195.81445 C-51.38834 2199.44791 -55.01718 2203.09696 -58.64175 2206.75071 C-61.46338 2209.59083 -64.29441 2212.42142 -67.12814 2215.24946 C-68.46862 2216.58979 -69.80607 2217.93315 -71.14019 2219.2798 C-94.26281 2242.58891 -94.26281 2242.58891 -104.9375 2241.5625 C-117.08164 2234.084 -127.2503 2224.58486 -137.10034 2214.37671 C-141.41986 2209.93124 -145.80716 2206.00533 -150.75659 2202.27832 C-154.42038 2199.39585 -157.66474 2196.12438 -160.9375 2192.8125 C-161.58461 2192.17312 -162.23172 2191.53375 -162.89844 2190.875 C-166.53477 2187.22429 -169.85906 2183.46152 -173.05859 2179.42188 C-179.3625 2171.59978 -186.66995 2164.73839 -193.86548 2157.75098 C-200.54705 2151.2479 -206.74907 2144.813 -212.05249 2137.11328 C-215.36678 2132.6284 -219.41397 2128.90301 -223.4375 2125.0625 C-229.26207 2119.38464 -234.53438 2113.88922 -239.05859 2107.09766 C-242.24686 2102.79582 -246.2158 2099.26247 -250.05078 2095.54297 C-253.48784 2091.99429 -256.21314 2088.1938 -259.01562 2084.14062 C-260.95946 2081.53304 -263.02947 2079.37347 -265.375 2077.125 C-269.71078 2072.96027 -273.14619 2068.39774 -276.67969 2063.54688 C-279.51465 2059.79963 -282.63072 2056.38605 -285.8125 2052.93359 C-288.46044 2049.979 -290.85257 2046.87041 -293.25391 2043.71484 C-294.93184 2041.56973 -296.68873 2039.53322 -298.5 2037.5 C-301.88619 2033.69148 -304.87961 2029.63968 -307.9375 2025.5625 C-309.09223 2024.21882 -310.25917 2022.88554 -311.4375 2021.5625 C-314.19628 2018.45512 -316.73975 2015.24547 -319.20703 2011.89844 C-324.87668 2004.24506 -330.70441 1996.76519 -336.9375 1989.5625 C-342.44529 1982.69791 -347.66905 1975.61083 -352.9375 1968.5625 C-353.65938 1967.60344 -354.38125 1966.64438 -355.125 1965.65625 C-360.10677 1959.03761 -365.02296 1952.37338 -369.91406 1945.6875 C-372.06827 1942.74461 -374.23094 1939.80812 -376.39844 1936.875 C-382.504 1928.61204 -388.56312 1920.32358 -394.51562 1911.94922 C-399.79263 1904.56993 -405.1888 1897.27608 -410.58594 1889.98438 C-425.28982 1870.06299 -439.0371 1849.52497 -452.7272 1828.90132 C-456.12197 1823.78739 -459.5282 1818.6813 -462.94165 1813.57983 C-477.05486 1792.47449 -490.68426 1771.10501 -503.69531 1749.30078 C-506.25131 1745.03931 -508.84155 1740.7997 -511.4375 1736.5625 C-516.31905 1728.5911 -521.13841 1720.58384 -525.9375 1712.5625 C-526.70062 1711.29406 -527.46375 1710.02562 -528.25 1708.71875 C-535.35283 1696.91269 -542.27918 1685.05039 -548.85498 1672.94263 C-551.13498 1668.76207 -553.47661 1664.64494 -555.96094 1660.58203 C-558.94646 1655.64856 -561.49013 1650.56254 -564 1645.375 C-567.87346 1637.48842 -571.99204 1629.80193 -576.375 1622.1875 C-585.81855 1605.70494 -594.07644 1588.78998 -601.58032 1571.34473 C-605.25804 1562.88656 -609.32688 1554.66089 -613.5 1546.4375 C-619.33354 1534.9193 -624.74723 1523.31964 -629.73828 1511.41406 C-630.97747 1508.46747 -632.2367 1505.53008 -633.5 1502.59375 C-655.02493 1452.41766 -675.31843 1400.7647 -689.30615 1347.90283 C-690.37346 1343.94646 -691.60614 1340.04077 -692.8125 1336.125 C-695.58002 1326.99551 -697.98668 1317.79785 -700.2207 1308.52393 C-701.04805 1305.10576 -701.89129 1301.69166 -702.73438 1298.27734 C-703.36502 1295.70584 -703.99523 1293.13422 -704.625 1290.5625 C-704.77385 1289.96023 -704.77385 1289.96023 -705.5271 1286.91235 C-707.11076 1280.39555 -708.44381 1273.91136 -709.48804 1267.28711 C-710.12529 1263.42416 -710.9925 1259.62603 -711.875 1255.8125 C-714.51068 1244.09945 -717.10745 1232.55243 -717.62891 1220.52734 C-717.9375 1217.5625 -717.9375 1217.5625 -718.93359 1214.28516 C-720.54204 1208.32075 -720.39795 1202.30425 -720.59375 1196.15625 C-720.9375 1191.5625 -720.9375 1191.5625 -721.94281 1188.5056 C-723.26981 1183.24516 -723.21646 1178.2831 -723.19629 1172.87915 C-723.19979 1171.72055 -723.2033 1170.56195 -723.20691 1169.36824 C-723.21569 1165.54882 -723.20989 1161.72958 -723.20312 1157.91016 C-723.20447 1155.2489 -723.20641 1152.58764 -723.20892 1149.92638 C-723.21187 1144.35234 -723.20759 1138.77837 -723.19824 1133.20435 C-723.18685 1126.06786 -723.19341 1118.93152 -723.20539 1111.79504 C-723.21262 1106.30028 -723.21031 1100.80555 -723.20513 1095.31079 C-723.2038 1092.67982 -723.20543 1090.04886 -723.21009 1087.41789 C-723.21518 1083.73692 -723.20741 1080.0562 -723.19629 1076.37524 C-723.20034 1075.29292 -723.20439 1074.21059 -723.20856 1073.09546 C-723.17592 1067.24769 -722.54667 1062.23086 -720.9375 1056.5625 C-720.5874 1052.00721 -720.43641 1047.46795 -720.28125 1042.90234 C-719.95744 1038.81419 -719.11876 1035.46835 -717.9375 1031.5625 C-717.62137 1029.27664 -717.35362 1026.98376 -717.125 1024.6875 C-705.67276 928.66484 -662.07943 827.67138 -602.9375 751.5625 C-602.64359 751.17836 -602.64359 751.17836 -601.15625 749.23438 C-597.2716 744.18433 -593.2498 739.25274 -589.20312 734.33203 C-587.03009 731.67568 -584.88594 728.99873 -582.75 726.3125 C-580.50286 723.49247 -578.22685 720.73582 -575.875 718 C-573.83363 715.61116 -571.88278 713.14319 -570.00854 710.62109 C-565.12668 704.33054 -559.48831 698.8079 -553.86328 693.1875 C-552.70306 692.02299 -551.54284 690.85849 -550.34746 689.65869 C-547.90079 687.2046 -545.45034 684.75437 -542.99731 682.30664 C-539.88373 679.19883 -536.78163 676.07983 -533.68257 672.95755 C-530.68731 669.94385 -527.68092 666.94135 -524.67578 663.9375 C-523.57849 662.831 -522.4812 661.7245 -521.35066 660.58447 C-515.41389 654.68266 -509.38387 649.373 -502.57243 644.49902 C-499.19755 642.01868 -496.14869 639.25318 -493.05078 636.44141 C-489.49751 633.28222 -485.71806 630.44216 -481.9375 627.5625 C-480.6884 626.59184 -479.4393 625.62117 -478.15234 624.62109 C-468.63592 617.24382 -458.93611 610.27828 -448.9375 603.5625 C-447.68066 602.70785 -446.42383 601.8532 -445.12891 600.97266 C-436.57065 595.19294 -427.84527 589.7849 -418.9375 584.5625 C-417.48435 583.70056 -416.03123 582.83858 -414.57812 581.97656 C-403.10352 575.2114 -391.3936 568.96068 -379.53662 562.89355 C-377.28728 561.74163 -375.0435 560.57884 -372.80078 559.41406 C-352.17759 548.85464 -330.77874 540.23613 -308.9375 532.5625 C-308.31657 532.34344 -308.31657 532.34344 -305.17432 531.23486 C-272.77524 519.89335 -239.82878 510.51845 -205.97656 504.71094 C-205.24824 504.58332 -205.24824 504.58332 -201.5625 503.9375 C-200.33789 503.73898 -199.11328 503.54047 -197.85156 503.33594 C-194.9375 502.5625 -194.9375 502.5625 -191.9375 499.5625 C-191.72061 495.78978 -191.68375 492.19587 -191.79297 488.42969 C-191.80382 487.87648 -191.80382 487.87648 -191.85872 485.07693 C-191.90804 482.73146 -191.96487 480.38614 -192.02856 478.04102 C-192.12406 474.47281 -192.19387 470.9048 -192.25977 467.33594 C-192.31096 465.05465 -192.36365 462.7734 -192.41797 460.49219 C-192.42845 459.96234 -192.42845 459.96234 -192.48149 457.28098 C-192.66185 451.11267 -193.5902 445.60246 -194.9375 439.5625 C-195.20908 436.05341 -195.21857 432.56127 -195.20312 429.04297 C-195.20408 428.55306 -195.20408 428.55306 -195.20892 426.07381 C-195.21028 424.01234 -195.20664 421.95086 -195.19824 419.8894 C-195.18757 416.76917 -195.19815 413.64951 -195.21094 410.5293 C-195.21658 401.71641 -195.16875 393.26157 -193.40527 384.59741 C-192.17117 376.59055 -192.50798 368.32493 -192.40576 360.2395 C-192.37185 357.79887 -192.32668 355.35841 -192.28125 352.91797 C-192.2719 352.19944 -192.2719 352.19944 -192.22461 348.56323 C-191.94121 344.61415 -191.08814 341.33495 -189.9375 337.5625 C-189.69824 334.21287 -189.52255 330.9146 -189.4375 327.5625 C-189.286 321.5918 -188.68758 316.29813 -186.9375 310.5625 C-186.71085 308.42217 -186.54275 306.27472 -186.4375 304.125 C-186.10792 299.03093 -185.21269 294.51324 -183.9375 289.5625 C-183.64717 287.41922 -183.37938 285.27285 -183.125 283.125 C-180.48327 262.58047 -175.38356 242.51436 -169.9375 222.5625 C-169.67244 221.5696 -169.40737 220.5767 -169.13428 219.55371 C-156.01641 170.61872 -134.29302 119.03739 -101.9375 79.5625 C-100.45259 77.52501 -98.97348 75.48328 -97.5 73.4375 C-93.62833 68.2343 -89.27911 63.84025 -84.62109 59.34375 C-81.93892 56.56397 -79.73972 53.7054 -77.5 50.5625 C-71.07575 41.70186 -62.82501 34.82768 -54.11719 28.28906 C-51.75467 26.41767 -49.61913 24.39129 -47.4375 22.3125 C-37.96161 13.66575 -26.51014 6.98717 -14.9375 1.5625 C-12.10386 -1.27114 -3.79962 0.0792 0 0 Z M-34.9375 201.5625 C-35.86047 202.40039 -36.78344 203.23828 -37.73438 204.10156 C-50.34304 215.94303 -59.72004 230.63004 -67.875 245.78906 C-69.4737 248.71395 -71.13731 251.52662 -72.88672 254.35938 C-75.9661 259.46205 -78.41887 264.70888 -80.75 270.1875 C-81.17595 271.18113 -81.60191 272.17475 -82.04077 273.19849 C-97.98893 310.81441 -109.06963 349.3352 -114.88086 389.77539 C-115.37515 393.14229 -115.85899 396.32698 -116.9375 399.5625 C-117.06281 401.24082 -117.13871 402.92308 -117.18359 404.60547 C-117.20003 405.10144 -117.20003 405.10144 -117.2832 407.61133 C-117.34383 409.68415 -117.40118 411.75707 -117.45508 413.83008 C-117.48924 414.82846 -117.5234 415.82684 -117.55859 416.85547 C-117.58365 417.75805 -117.60871 418.66064 -117.63452 419.59058 C-117.9375 422.5625 -117.9375 422.5625 -118.94026 426.26912 C-119.90639 430.42857 -120.19104 433.97115 -120.19629 438.22852 C-120.20259 439.70365 -120.2089 441.17878 -120.21539 442.69861 C-120.21134 444.27276 -120.2073 445.8469 -120.20312 447.46875 C-120.20504 449.10316 -120.20695 450.73757 -120.20892 452.42151 C-120.21186 455.87105 -120.20762 459.32049 -120.19824 462.77002 C-120.18685 467.17463 -120.19341 471.57899 -120.20539 475.98359 C-120.21438 480.20783 -120.20807 484.432 -120.20312 488.65625 C-120.20717 490.2304 -120.21122 491.80454 -120.21539 493.42639 C-120.20909 494.90152 -120.20278 496.37665 -120.19629 497.89648 C-120.1947 499.18696 -120.19311 500.47743 -120.19147 501.80701 C-119.91357 505.91633 -119.01287 509.59399 -117.9375 513.5625 C-117.65039 516.37915 -117.65039 516.37915 -117.59375 518.91016 C-117.5641 519.84537 -117.53445 520.78059 -117.50391 521.74414 C-117.45955 523.66862 -117.41527 525.5931 -117.37109 527.51758 C-117.20032 532.8969 -116.51586 537.3835 -114.9375 542.5625 C-114.70663 545.03651 -114.54083 547.51739 -114.4375 550 C-114.13749 555.45375 -113.36974 560.28113 -111.9375 565.5625 C-111.79335 567.31103 -111.66925 569.06129 -111.5625 570.8125 C-110.69997 577.36773 -110.69997 577.36773 -106.9375 579.5625 C-101.14493 578.98324 -98.01393 575.38705 -93.9375 571.5625 C-93.01066 570.7259 -92.08383 569.8893 -91.12891 569.02734 C-67.03401 547.15844 -67.03401 547.15844 -57.67188 534.79297 C-55.79464 532.37877 -53.77255 530.17413 -51.6875 527.9375 C-46.17704 521.8892 -41.40642 515.30109 -36.55078 508.72852 C-33.80257 505.03873 -30.99178 501.39723 -28.1875 497.75 C3.98265 455.72602 29.52255 409.56166 47.0625 359.5625 C47.30678 358.87285 47.30678 358.87285 48.54297 355.38281 C56.19717 333.10321 63.32288 308.92883 63.91016 285.25 C64.06627 281.47121 64.60398 277.91117 65.25 274.1875 C66.07221 268.86126 65.84325 264.78986 64.625 259.57422 C63.93609 255.88566 63.86142 252.31255 63.75 248.5625 C62.33651 220.71423 50.20509 193.49265 24.0625 181.5625 C1.417 175.90112 -19.05409 186.11759 -34.9375 201.5625 Z M-160.98047 855.73438 C-163.20287 857.81039 -165.55834 859.46249 -168.0625 861.1875 C-173.8102 865.23684 -178.50271 870.00805 -183.30859 875.12109 C-186.15323 877.98594 -189.23592 880.28112 -192.51172 882.63672 C-201.13431 888.98152 -208.27645 896.76163 -215.69531 904.4375 C-222.3774 911.25815 -229.18799 917.36264 -236.86572 923.04932 C-240.02542 925.63443 -242.37845 928.39458 -244.9375 931.5625 C-246.2092 932.72572 -247.51013 933.85843 -248.84766 934.94531 C-252.90678 938.41262 -256.10317 942.23861 -259.375 946.4375 C-264.47697 952.82851 -269.88944 958.6743 -275.75 964.375 C-281.45952 969.93727 -286.53546 975.53431 -291.16016 982.05859 C-293.54171 985.4137 -296.24207 988.45689 -298.9375 991.5625 C-304.88794 998.89982 -310.15017 1006.65135 -315.37061 1014.5166 C-316.79794 1016.66558 -318.23253 1018.80956 -319.66797 1020.95312 C-346.09506 1060.5589 -366.98628 1106.45428 -373.0625 1154.125 C-373.52696 1157.71438 -374.05785 1161.04391 -374.9375 1164.5625 C-375.16438 1168.63186 -375.32875 1172.69615 -375.45508 1176.76953 C-375.66386 1181.9772 -376.39123 1186.74565 -377.49438 1191.85693 C-378.37362 1197.22534 -378.22371 1202.63661 -378.1875 1208.0625 C-378.19523 1209.22137 -378.20297 1210.38023 -378.21094 1211.57422 C-378.19913 1216.79765 -378.04095 1221.736 -376.9375 1226.85156 C-375.94644 1231.52038 -375.73702 1235.6756 -375.6875 1240.4375 C-374.35642 1280.02109 -357.40611 1326.9503 -334.9375 1359.5625 C-333.76661 1361.43487 -332.60004 1363.30994 -331.4375 1365.1875 C-328.77216 1369.37504 -325.92151 1373.30276 -322.82031 1377.17578 C-320.62151 1379.96306 -318.53612 1382.82413 -316.4375 1385.6875 C-313.89514 1389.09735 -311.45658 1392.04342 -308.4375 1395.0625 C-305.41457 1398.08543 -303.06623 1400.99812 -300.5625 1404.4375 C-293.77648 1413.62262 -286.1075 1420.32893 -276.99219 1427.16016 C-274.42427 1429.17968 -272.22665 1431.18773 -270 1433.5625 C-264.67095 1439.11452 -258.26748 1443.23974 -251.9375 1447.5625 C-250.72449 1448.40168 -249.51148 1449.24086 -248.26172 1450.10547 C-233.33989 1460.2687 -217.69971 1468.86117 -200.9375 1475.5625 C-199.44348 1476.16191 -197.94945 1476.76133 -196.41016 1477.37891 C-170.76721 1487.49087 -144.14211 1495.57012 -116.76562 1499.13281 C-113.9375 1499.5625 -113.9375 1499.5625 -110.9375 1500.5625 C-109.03229 1500.66106 -107.12381 1500.70074 -105.21606 1500.70776 C-104.04087 1500.71414 -102.86567 1500.72052 -101.65486 1500.7271 C-101.01894 1500.72765 -101.01894 1500.72765 -97.80078 1500.73047 C-96.49224 1500.7338 -95.18369 1500.73713 -93.83549 1500.74055 C-91.06229 1500.74562 -88.28908 1500.74796 -85.51587 1500.7478 C-81.28456 1500.74998 -77.05352 1500.76812 -72.82227 1500.78711 C-70.12761 1500.79004 -67.43294 1500.79203 -64.73828 1500.79297 C-63.47656 1500.80015 -62.21483 1500.80734 -60.91487 1500.81474 C-54.57761 1500.79837 -49.05689 1500.42198 -42.9375 1498.5625 C-41.19242 1498.35039 -39.44177 1498.17568 -37.6875 1498.0625 C-31.69484 1497.43169 -29.67824 1497.04398 -26.9375 1491.5625 C-27.3546 1485.57557 -28.65013 1479.74116 -29.875 1473.875 C-31.0253 1468.26319 -32.12808 1462.67324 -32.9375 1457 C-33.83612 1450.77386 -35.15227 1444.65046 -36.47437 1438.50415 C-37.59968 1433.24618 -38.59402 1427.99301 -39.4375 1422.68359 C-40.08914 1418.61593 -40.79243 1414.55829 -41.5 1410.5 C-41.62439 1409.78264 -41.62439 1409.78264 -42.25391 1406.15234 C-42.9375 1402.5625 -42.9375 1402.5625 -43.9375 1399.5625 C-44.25576 1397.35784 -44.54262 1395.1486 -44.8125 1392.9375 C-45.72588 1385.87406 -46.88679 1378.8824 -48.15625 1371.875 C-48.92166 1367.64993 -49.64862 1363.41942 -50.375 1359.1875 C-51.46016 1353.01349 -52.68666 1346.87893 -54 1340.75 C-55.28877 1334.72111 -56.48261 1328.70979 -57.44531 1322.62109 C-58.04323 1318.90549 -58.71023 1315.20422 -59.375 1311.5 C-60.4556 1305.42702 -61.44316 1299.3475 -62.375 1293.25 C-63.66983 1284.92221 -65.25951 1276.69065 -66.97266 1268.44141 C-67.66671 1264.93182 -68.30043 1261.44269 -68.875 1257.91406 C-70.05478 1250.70401 -71.46688 1243.54336 -72.875 1236.375 C-76.46165 1217.97247 -79.63105 1199.52131 -82.6875 1181.02344 C-85.08274 1166.57717 -87.56117 1152.16699 -90.5271 1137.82642 C-91.7706 1131.71167 -92.64648 1125.61882 -93.25 1119.41016 C-94.12127 1115.80131 -95.16293 1114.04045 -97.9375 1111.5625 C-104.54719 1110.24223 -109.79059 1113.47315 -115.5 1116.4375 C-116.47292 1116.93419 -117.44584 1117.43088 -118.44824 1117.94263 C-126.48221 1122.13603 -133.8135 1126.95305 -140.9375 1132.5625 C-141.3977 1132.91828 -141.3977 1132.91828 -143.72656 1134.71875 C-146.1616 1136.63147 -148.55272 1138.58773 -150.9375 1140.5625 C-151.61039 1141.08844 -152.28328 1141.61438 -152.97656 1142.15625 C-158.39205 1146.55768 -162.40016 1151.79054 -166.55859 1157.37109 C-168.50044 1159.97617 -170.50254 1162.48958 -172.5625 1165 C-186.08559 1182.54518 -193.95849 1204.54919 -196.50781 1226.375 C-196.9375 1229.5625 -196.9375 1229.5625 -197.9375 1232.5625 C-198.06115 1235.65662 -198.12265 1238.71838 -198.125 1241.8125 C-198.13725 1242.64652 -198.14949 1243.48055 -198.16211 1244.33984 C-198.17418 1249.46681 -197.47323 1253.69549 -195.9375 1258.5625 C-195.63015 1260.70341 -195.35988 1262.84993 -195.125 1265 C-191.80655 1289.28385 -180.24648 1315.21109 -163.9375 1333.5625 C-162.71734 1335.13674 -161.50839 1336.71975 -160.3125 1338.3125 C-154.61996 1345.62592 -148.25321 1350.94643 -140.82422 1356.41797 C-131.29182 1363.49955 -131.29182 1363.49955 -129.9375 1367.5625 C-138.24792 1368.02548 -144.78748 1366.50663 -152.625 1363.8125 C-153.79893 1363.41345 -154.97287 1363.01441 -156.18237 1362.60327 C-176.39366 1355.46659 -195.12381 1345.04585 -210.86719 1330.40625 C-212.94496 1328.55586 -215.1087 1326.98589 -217.375 1325.375 C-222.40591 1321.54694 -225.8697 1316.74419 -229.59766 1311.68359 C-231.46939 1309.1869 -233.36048 1306.94561 -235.5 1304.6875 C-255.60878 1282.11836 -268.81228 1242.30757 -269.79297 1212.26953 C-269.9375 1209.5625 -269.9375 1209.5625 -271 1205.6875 C-273.08519 1196.51265 -272.51233 1187.52489 -269.9375 1178.5625 C-269.70356 1175.73393 -269.53953 1172.8989 -269.4375 1170.0625 C-269.23827 1164.52389 -268.58629 1159.8487 -266.9375 1154.5625 C-266.61835 1152.90088 -266.32501 1151.23401 -266.0625 1149.5625 C-260.36463 1117.84151 -247.83409 1084.76731 -226.92188 1059.96875 C-224.9375 1057.5625 -224.9375 1057.5625 -222.52344 1054.12109 C-218.11372 1048.21256 -212.82093 1043.11106 -207.6084 1037.91772 C-205.82855 1036.14102 -204.06243 1034.35144 -202.29688 1032.56055 C-195.25805 1025.51778 -188.055 1019.31749 -179.9375 1013.5625 C-178.6768 1012.60602 -177.41609 1011.64953 -176.11719 1010.66406 C-161.05264 999.37455 -144.09678 987.86397 -126.3125 981.4375 C-121.57014 979.40506 -119.44781 978.06374 -116.9375 973.5625 C-117.3776 967.5952 -118.64878 961.78452 -119.875 955.9375 C-121.29969 948.99095 -122.50672 942.07029 -123.44531 935.03906 C-124.4161 928.1819 -125.70901 921.37727 -126.9375 914.5625 C-127.43869 911.72938 -127.93869 908.89604 -128.4375 906.0625 C-129.18483 901.82374 -129.93345 897.58523 -130.6875 893.34766 C-131.98347 886.0511 -133.24041 878.75098 -134.4375 871.4375 C-135.40452 865.66057 -136.37707 859.88558 -137.4375 854.125 C-137.65406 852.93004 -137.87063 851.73508 -138.09375 850.50391 C-139.20539 846.6286 -140.60065 844.84231 -144.625 844 C-151.58199 845.18138 -156.27432 850.84763 -160.98047 855.73438 Z M-32.9375 1097.5625 C-32.88654 1101.17434 -32.62014 1104.07223 -31.9375 1107.5625 C-31.63973 1109.15449 -31.34195 1110.74648 -31.03516 1112.38672 C-30.69355 1113.9916 -30.35195 1115.59648 -30 1117.25 C-28.5074 1124.43168 -27.32542 1131.57093 -26.43359 1138.85547 C-25.69394 1144.38251 -24.65794 1149.85063 -23.66016 1155.33594 C-22.7593 1160.60472 -22.08552 1165.88701 -21.46484 1171.19531 C-20.90526 1174.76837 -19.94169 1178.09098 -18.9375 1181.5625 C-18.5813 1183.6179 -18.26981 1185.68148 -18 1187.75 C-17.20814 1193.58999 -16.3769 1199.4222 -15.5 1205.25 C-15.43623 1205.67414 -15.43623 1205.67414 -15.11353 1207.82056 C-13.76697 1216.74179 -12.36849 1225.65442 -10.9375 1234.5625 C-10.7016 1236.04363 -10.4657 1237.52477 -10.22266 1239.05078 C-8.93016 1247.00839 -7.49152 1254.91573 -5.875 1262.8125 C-4.50519 1269.50802 -3.34185 1276.19032 -2.4375 1282.96484 C-1.82039 1287.40512 -1.10709 1291.82757 -0.375 1296.25 C-0.12621 1297.75949 0.12258 1299.26898 0.37891 1300.82422 C1.0625 1304.5625 1.0625 1304.5625 2.0625 1307.5625 C2.38072 1309.95495 2.66759 1312.35162 2.9375 1314.75 C3.77301 1321.67542 4.94335 1328.46524 6.28125 1335.30859 C7.13961 1339.98239 7.82959 1344.67167 8.5 1349.375 C9.69769 1357.68155 11.30663 1365.8274 13.08594 1374.03125 C15.33825 1384.482 17.18172 1394.93228 18.53906 1405.53516 C20.26624 1418.82412 22.45348 1431.94724 25.15625 1445.07031 C25.8861 1448.68809 26.54509 1452.29375 27.125 1455.9375 C27.84668 1460.36886 28.63489 1464.78166 29.5 1469.1875 C29.72559 1470.35539 29.95117 1471.52328 30.18359 1472.72656 C31.0625 1475.5625 31.0625 1475.5625 34.0625 1477.5625 C50.11187 1479.56867 68.65285 1465.32895 81.0625 1456.5625 C82.13887 1455.85738 83.21523 1455.15227 84.32422 1454.42578 C104.09618 1440.91821 120.46147 1422.80803 133.0625 1402.5625 C133.63758 1401.67079 134.21267 1400.77908 134.80518 1399.86035 C142.3054 1388.18607 148.42772 1376.20778 153.5625 1363.3125 C154.03059 1362.16225 154.49868 1361.01201 154.98096 1359.8269 C163.04105 1338.57929 166.08109 1316.81977 165.84473 1294.20801 C165.81249 1290.56163 165.8447 1286.91968 165.88281 1283.27344 C165.92422 1259.33357 161.37883 1236.63356 152.0625 1214.5625 C151.73943 1213.77537 151.41636 1212.98823 151.0835 1212.17725 C146.86894 1201.95995 141.96725 1192.28424 136.375 1182.75 C136.10776 1182.29347 136.10776 1182.29347 134.75537 1179.98315 C131.59363 1174.72352 128.14497 1170.16933 124.0625 1165.5625 C123.18723 1164.34434 122.31195 1163.12617 121.41016 1161.87109 C117.0117 1155.9384 111.70778 1150.83926 106.5 1145.625 C105.49131 1144.59182 104.48262 1143.55863 103.44336 1142.49414 C96.51436 1135.53871 89.29151 1129.89546 81.0625 1124.5625 C79.55095 1123.53943 78.04038 1122.51491 76.53125 1121.48828 C53.94702 1106.61736 28.49157 1097.62769 1.69922 1093.95703 C-0.9375 1093.5625 -0.9375 1093.5625 -4.9375 1092.5625 C-8.74621 1092.26702 -12.55614 1092.23952 -16.375 1092.1875 C-16.89353 1092.16881 -16.89353 1092.16881 -19.51758 1092.07422 C-29.83709 1091.95492 -29.83709 1091.95492 -32.9375 1097.5625 Z " fill="#14334c" transform="translate(725.9375,-0.5625)"/></g>
<g><path d="M0 0 C0.96293 0.80953 1.92586 1.61906 2.91797 2.45312 C10.33954 8.72364 16.37568 16.05119 22.26172 23.73828 C23.3738 25.18524 24.50019 26.62138 25.64453 28.04297 C38.36047 43.91555 48.5458 61.64327 57.8125 79.68799 C58.88896 81.78382 59.97518 83.87463 61.0625 85.96484 C63.10228 89.94981 65.06654 93.96237 67 98 C67.35465 98.73348 67.70931 99.46695 68.07471 100.22266 C81.21282 127.75123 91.41005 158.22377 98 188 C98.25572 189.12809 98.51144 190.25618 98.7749 191.41846 C102.59208 208.3276 105.49029 225.07927 107.4375 242.30859 C108 246 108 246 109.03125 249.19531 C110.40567 254.59323 110.38919 259.88733 110.5 265.4375 C110.5438 267.62388 110.59571 269.81011 110.65625 271.99609 C110.67494 272.95701 110.69363 273.91792 110.71289 274.90796 C111 278 111 278 112.00488 281.41431 C113.44896 288.06888 113.28497 294.58504 113.26562 301.375 C113.26658 302.11452 113.26658 302.11452 113.27142 305.85693 C113.27278 308.97689 113.26911 312.09685 113.26074 315.2168 C113.25004 319.9832 113.26065 324.74923 113.27344 329.51562 C113.27212 332.55208 113.26955 335.58854 113.26562 338.625 C113.26967 340.04603 113.27372 341.46706 113.27789 342.93115 C113.24615 349.65254 112.91133 355.50583 111 362 C110.71289 365.09204 110.71289 365.09204 110.65625 368.00391 C110.6266 369.07447 110.59695 370.14504 110.56641 371.24805 C110.52206 373.46159 110.47779 375.67513 110.43359 377.88867 C110.27414 383.63938 109.74689 388.47956 108 394 C107.77135 396.32808 107.60433 398.66305 107.5 401 C107.20072 405.99844 106.45617 410.20321 105 415 C104.6951 417.06062 104.41605 419.12511 104.15234 421.19141 C100.79348 445.26558 93.97696 468.68142 86.14014 491.63232 C85.11389 494.6636 84.12613 497.70299 83.16016 500.75391 C74.38677 528.31503 61.80599 554.38243 48.15576 579.82373 C47.07323 581.8621 46.02177 583.91689 44.97266 585.97266 C34.57677 606.22568 22.51602 625.68675 9 644 C8.04352 645.32258 7.08703 646.64516 6.10156 648.00781 C0.91299 655.15809 -4.39624 662.17076 -10 669 C-11.52087 670.85414 -13.0417 672.70831 -14.5625 674.5625 C-15.31402 675.47645 -16.06555 676.39039 -16.83984 677.33203 C-18.81568 679.77234 -20.72699 682.24905 -22.625 684.75 C-25.23657 688.14624 -28.09448 691.07817 -31.18213 694.05444 C-33.20315 696.21742 -34.77947 698.50442 -36.46094 700.94141 C-43.24225 710.06161 -51.43642 717.88321 -59.48193 725.87305 C-62.24017 728.61523 -64.98203 731.37304 -67.72266 734.13281 C-75.93673 742.35553 -84.03049 750.34439 -93.47681 757.15649 C-101.3524 762.91059 -105.68021 767.9669 -105 778 C-104.69062 779.19625 -104.38125 780.3925 -104.0625 781.625 C-102.91192 786.3627 -102.62776 790.79909 -102.44141 795.65625 C-102 799 -102 799 -100.52734 802.72656 C-98.69502 807.85331 -98.3297 812.47836 -98 817.875 C-97.36132 826.59163 -96.24616 835.06486 -94.71094 843.67578 C-94.01158 847.92958 -93.53511 852.1468 -93.125 856.4375 C-91.92777 868.53847 -90.11992 880.54772 -88.36328 892.57812 C-87.42874 898.97987 -86.5336 905.38546 -85.66797 911.79688 C-85.45116 913.38049 -85.23436 914.9641 -85.01099 916.5957 C-84.59568 919.63504 -84.18763 922.67538 -83.78784 925.7168 C-83.69265 926.40548 -83.69265 926.40548 -83.21094 929.89062 C-83.049 931.09751 -82.88706 932.30439 -82.72021 933.54785 C-81.62015 938.8207 -80.58325 942.9445 -76 946 C-72.4841 946.13782 -69.04811 946.15892 -65.53516 946.08984 C-63.36459 946.06653 -61.19402 946.04393 -59.02344 946.02197 C-58.4548 946.01469 -58.4548 946.01469 -55.57715 945.97784 C29.90073 944.99665 116.11632 976.30166 170.77734 1045.23047 C172.22799 1047.03804 173.71924 1048.81397 175.25391 1050.55078 C205.31937 1084.77687 223.71418 1129.54888 233.75 1173.5 C233.94876 1174.33966 234.14751 1175.17933 234.35229 1176.04443 C238.00968 1192.81544 238.35192 1210.10699 238.31567 1227.20093 C238.31251 1230.30033 238.33611 1233.39877 238.36133 1236.49805 C238.42217 1255.46337 236.5611 1274.1923 232.25 1292.6875 C231.99178 1293.81285 231.73357 1294.9382 231.46753 1296.09766 C220.45446 1342.64344 197.85516 1387.72599 166.63281 1423.92969 C164.11303 1426.86819 161.675 1429.85814 159.25 1432.875 C154.07719 1439.21467 148.41044 1444.73389 142.21094 1450.06641 C139.71876 1452.24596 137.30161 1454.49773 134.875 1456.75 C128.52024 1462.52943 121.8455 1467.81549 115 1473 C114.3205 1473.51466 113.64101 1474.02932 112.94092 1474.55957 C88.60747 1492.86955 62.17903 1506.78526 33.79688 1517.74609 C33.32411 1517.93035 33.32411 1517.93035 30.93164 1518.86279 C28.87288 1519.6614 26.80852 1520.44564 24.74023 1521.21924 C23.67611 1521.63287 22.61199 1522.04649 21.51562 1522.47266 C20.55431 1522.83754 19.59299 1523.20243 18.60254 1523.57837 C12.82027 1526.73692 11.42133 1530.44057 11.69385 1536.89404 C12.36153 1543.66773 13.53546 1550.35739 14.6875 1557.0625 C15.24117 1560.36954 15.79338 1563.67679 16.34375 1566.98438 C16.48343 1567.81915 16.6231 1568.65392 16.76701 1569.51399 C18.38727 1579.23632 19.83358 1588.98448 21.26245 1598.73657 C22.21193 1605.13039 23.25912 1611.48413 24.48047 1617.83203 C26.13203 1626.47738 27.40367 1635.15982 28.625 1643.875 C28.84156 1645.38836 29.05813 1646.90172 29.28125 1648.46094 C40.93487 1730.75562 25.32524 1814.28348 -46 1865 C-62.09129 1875.59757 -80.4376 1882.21365 -99 1887 C-99.7773 1887.20754 -99.7773 1887.20754 -103.71094 1888.25781 C-159.42671 1901.50461 -224.50071 1884.64955 -264 1843 C-286.02596 1814.98297 -290.90589 1776.50199 -275.58594 1744 C-259.05914 1712.1837 -225.80887 1697.27638 -191.08594 1697.62891 C-183.83201 1697.89558 -177.49457 1699.67569 -170.61719 1702.00391 C-167.10156 1702.97203 -165.34199 1703.41392 -162 1702 C-159.6658 1697.33159 -159.77537 1694.68212 -159.82056 1689.48706 C-159.82508 1688.62965 -159.82961 1687.77224 -159.83427 1686.88885 C-159.84522 1685.02874 -159.86072 1683.16865 -159.88024 1681.3086 C-159.91041 1678.3617 -159.92721 1675.415 -159.94029 1672.46797 C-159.98003 1664.08958 -160.04502 1655.71143 -160.11646 1647.33325 C-160.15924 1642.20638 -160.1873 1637.07959 -160.20675 1631.95259 C-160.2173 1630.00178 -160.23368 1628.05099 -160.25606 1626.10029 C-160.28736 1623.36712 -160.30005 1620.63444 -160.30884 1617.90112 C-160.31519 1617.12439 -160.31519 1617.12439 -160.34731 1613.19365 C-159.74449 1605.91474 -157.75184 1601.18483 -151 1598 C-144.42925 1597.07599 -141.47098 1598.14024 -137 1603 C-136.03213 1604.56495 -135.09694 1606.15038 -134.1875 1607.75 C-128.98195 1616.82945 -121.30103 1622.6637 -112.96875 1628.76562 C-108.36727 1632.22884 -104.17592 1636.04029 -100 1640 C-98.92234 1641.0016 -97.84469 1642.0032 -96.73438 1643.03516 C-81.7463 1657.39017 -72.28886 1674.37071 -78.625 1695.5 C-80.61363 1700.69995 -82.84884 1704.27243 -87 1708 C-92 1708 -92 1708 -93.73047 1705.91797 C-95.13312 1702.69402 -95.74181 1699.77936 -96.3125 1696.3125 C-99.60861 1680.42823 -112.07896 1668.20989 -128 1664 C-132.07009 1664.30171 -132.65307 1664.47961 -135 1668 C-135.19599 1670.89998 -135.26355 1673.80899 -135.27124 1676.71558 C-135.27385 1677.16136 -135.27385 1677.16136 -135.28708 1679.41731 C-135.29733 1681.35704 -135.3031 1683.2968 -135.30496 1685.23656 C-135.30863 1688.32038 -135.32537 1691.40388 -135.34572 1694.48763 C-135.40106 1703.25723 -135.43161 1712.02689 -135.4563 1720.79663 C-135.47232 1726.16242 -135.50269 1731.52799 -135.54106 1736.89367 C-135.55261 1738.92629 -135.55864 1740.95895 -135.55874 1742.9916 C-135.56095 1775.34497 -143.27868 1797.241 -173.59766 1812.10156 C-179.50136 1814.64743 -185.43672 1816.41484 -191.64844 1818.08984 C-195 1819 -195 1819 -197 1820 C-196.64192 1826.30229 -192.16688 1827.5792 -187 1830 C-186.21238 1830.4125 -185.42477 1830.825 -184.61328 1831.25 C-157.24749 1844.33976 -119.93697 1843.90418 -93 1830 C-91.80504 1829.41348 -90.61008 1828.82695 -89.37891 1828.22266 C-77.37672 1822.11883 -67.23747 1814.77384 -58 1805 C-57.19047 1804.20852 -56.38094 1803.41703 -55.54688 1802.60156 C-16.72527 1762.94637 -22.9527 1701.91566 -31 1652 C-31.24444 1650.47117 -31.48888 1648.94234 -31.74072 1647.36719 C-34.38711 1630.91151 -37.22135 1614.49647 -40.31421 1598.1189 C-41.50663 1591.77922 -42.58867 1585.43949 -43.5625 1579.0625 C-44.59365 1572.39209 -45.72852 1565.7532 -47 1559.125 C-47.15412 1558.2859 -47.30825 1557.4468 -47.46704 1556.58228 C-48.6585 1550.5372 -49.78431 1546.47713 -55 1543 C-62.90005 1542.50286 -70.74569 1543.84538 -78.56641 1544.8457 C-142.34169 1552.6557 -208.88639 1545.62099 -269 1523 C-269.46857 1522.82565 -269.46857 1522.82565 -271.83984 1521.94336 C-294.45968 1513.4572 -316.71413 1503.19191 -337 1490 C-337.90202 1489.4146 -338.80404 1488.82921 -339.7334 1488.22607 C-351.48687 1480.57103 -363.08778 1472.83037 -374 1464 C-375.24395 1463.02031 -376.48789 1462.04063 -377.76953 1461.03125 C-386.36398 1454.21832 -394.45062 1447.00021 -402.38281 1439.42969 C-405.28885 1436.67428 -408.23312 1434.00633 -411.25 1431.375 C-417.27284 1425.99891 -422.59205 1419.9825 -428 1414 C-428.85723 1413.0809 -429.71445 1412.1618 -430.59766 1411.21484 C-445.99213 1394.64932 -458.66194 1375.88844 -471 1357 C-471.69867 1355.93523 -472.39734 1354.87047 -473.11719 1353.77344 C-479.1879 1344.22655 -484.32387 1334.16495 -489.43555 1324.08252 C-490.45588 1322.07211 -491.48292 1320.06509 -492.51758 1318.06201 C-501.22416 1301.15115 -507.73106 1283.72306 -513.76221 1265.69775 C-514.76874 1262.69086 -515.7969 1259.69357 -516.83984 1256.69922 C-528.02936 1223.36811 -534.05398 1186.27471 -534.20312 1151.09766 C-534.21009 1149.98988 -534.21706 1148.8821 -534.22424 1147.74075 C-534.24156 1144.1813 -534.24796 1140.622 -534.25 1137.0625 C-534.25101 1135.84825 -534.25201 1134.63401 -534.25305 1133.38297 C-534.24313 1115.73232 -533.6974 1098.46914 -531 1081 C-530.71673 1078.93517 -530.43551 1076.87006 -530.15625 1074.80469 C-527.86748 1058.61501 -524.14538 1042.80538 -520 1027 C-519.72285 1025.93862 -519.4457 1024.87724 -519.16016 1023.78369 C-514.97395 1008.0078 -509.34632 993.02455 -503 978 C-502.6049 977.05963 -502.2098 976.11926 -501.80273 975.15039 C-499.59027 969.89625 -497.33889 964.66043 -495.05713 959.43604 C-494.02658 957.06126 -493.01721 954.67844 -492.01172 952.29297 C-487.80941 942.4988 -482.96031 933.41181 -477.40234 924.32373 C-475.90279 921.83892 -474.44807 919.33154 -473 916.81641 C-461.92775 897.64352 -449.51723 879.5307 -436 862 C-435.42862 861.25734 -434.85725 860.51468 -434.26855 859.74951 C-421.20712 842.78941 -407.6383 826.36307 -393.22754 810.52759 C-391.09969 808.11312 -389.11381 805.63096 -387.125 803.10156 C-381.16358 795.78628 -374.45869 789.24148 -367.75 782.625 C-366.4839 781.36897 -365.21827 780.11246 -363.95312 778.85547 C-361.63665 776.55516 -359.31705 774.25819 -356.99512 771.96338 C-352.48646 767.5025 -348.01243 763.00791 -343.54297 758.50781 C-341.42456 756.38013 -339.30607 754.25253 -337.1875 752.125 C-336.1324 751.06152 -335.0773 749.99805 -333.99023 748.90234 C-328.48601 743.38097 -322.92043 738.07083 -317 733 C-315.845 731.845 -314.69 730.69 -313.5 729.5 C-310.51303 726.51303 -307.42387 723.75876 -304.22266 721.00781 C-301.60491 718.6431 -299.15539 716.14555 -296.6875 713.625 C-291.42318 708.31735 -285.86128 703.62852 -280 699 C-278.0921 697.46413 -276.18421 695.92827 -274.27637 694.39233 C-269.26813 690.36346 -264.22983 686.3957 -259.07788 682.55151 C-248.43727 674.60637 -238.09932 666.72566 -229 657 C-224.22487 652.11382 -219.14532 647.59262 -214.05859 643.03516 C-200.85818 629.9359 -205.62171 613.59777 -208.875 597.125 C-209.13152 595.76375 -209.38805 594.4025 -209.65234 593 C-209.90887 591.68258 -210.16539 590.36516 -210.42969 589.00781 C-210.65898 587.82848 -210.88827 586.64915 -211.12451 585.43408 C-213.61332 575.67178 -213.61332 575.67178 -218.16431 573.46704 C-222.67267 572.91809 -225.95245 573.4782 -230.37109 574.52734 C-230.76656 574.61912 -230.76656 574.61912 -232.76787 575.08354 C-235.32904 575.68366 -237.88307 576.30938 -240.4375 576.9375 C-242.20866 577.3612 -243.97998 577.78421 -245.75146 578.20654 C-258.96365 581.38464 -272.04535 584.89428 -285 589 C-285.41959 589.12963 -285.41959 589.12963 -287.54297 589.78564 C-328.79078 602.56767 -368.52181 621.37907 -405.51172 643.52539 C-408.76557 645.4537 -412.06809 647.28951 -415.375 649.125 C-439.09307 662.64947 -461.93079 679.55611 -482 698 C-483.28782 699.1294 -484.57935 700.25458 -485.875 701.375 C-495.1681 709.51333 -504.06613 717.96614 -512.8125 726.6875 C-513.708 727.5784 -514.60349 728.46931 -515.52612 729.38721 C-520.56217 734.43499 -525.35207 739.5937 -530 745 C-531.57864 746.71267 -533.1615 748.42147 -534.75 750.125 C-539.49444 755.32811 -543.8449 760.77228 -548.15234 766.33984 C-551.03107 770.03994 -553.97943 773.67566 -556.9375 777.3125 C-567.54951 790.57065 -576.94988 804.64419 -586 819 C-586.44167 819.69642 -586.88333 820.39283 -587.33838 821.11035 C-607.04633 852.29481 -622.91386 885.54747 -636 920 C-636.41089 921.07169 -636.82178 922.14339 -637.24512 923.24756 C-650.85749 958.96181 -660.09038 996.26764 -666 1034 C-666.15453 1034.98049 -666.30905 1035.96099 -666.46826 1036.97119 C-682.47773 1142.48242 -659.78344 1248.27354 -627.81512 1348.44531 C-627.06501 1350.79624 -626.31777 1353.14808 -625.5708 1355.5 C-610.93162 1401.35531 -593.44556 1446.99455 -572.69531 1490.43115 C-570.90974 1494.19002 -569.15527 1497.96228 -567.40625 1501.73828 C-559.73049 1518.26704 -551.77512 1534.6383 -543.625 1550.9375 C-543.39684 1551.39427 -543.39684 1551.39427 -542.24222 1553.70581 C-523.55381 1591.0784 -503.46119 1627.70768 -482.03662 1663.57959 C-479.99927 1667.00122 -477.97592 1670.43073 -475.95703 1673.86328 C-467.75709 1687.79504 -459.36858 1701.58748 -450.73438 1715.25439 C-449.07946 1717.87421 -447.42958 1720.49713 -445.78125 1723.12109 C-440.66053 1731.26354 -435.49089 1739.37144 -430.24463 1747.43384 C-427.8724 1751.08479 -425.52385 1754.74765 -423.21875 1758.44141 C-414.90266 1771.73064 -406.19306 1784.74811 -397.4375 1797.75 C-397.13035 1798.20708 -397.13035 1798.20708 -395.57599 1800.5202 C-388.20622 1811.47992 -380.70374 1822.31827 -372.91602 1832.9856 C-369.92158 1837.10795 -366.98603 1841.26466 -364.0625 1845.4375 C-353.29588 1860.74674 -342.01874 1875.68551 -330.771 1890.64258 C-329.09059 1892.87941 -327.41362 1895.11875 -325.73828 1897.35938 C-316.98647 1909.06301 -308.14335 1920.65993 -298.89575 1931.97729 C-295.29793 1936.38488 -291.7558 1940.83096 -288.25 1945.3125 C-280.70708 1954.94524 -272.9024 1964.30849 -264.91797 1973.57812 C-262.33863 1976.60289 -259.81315 1979.6602 -257.3125 1982.75 C-253.76021 1987.12796 -250.03969 1991.31114 -246.24219 1995.47656 C-243.95484 1998.05082 -241.78452 2000.69289 -239.625 2003.375 C-235.51321 2008.46101 -231.13086 2013.24248 -226.68359 2018.03516 C-224.2087 2020.76942 -221.87038 2023.56204 -219.5625 2026.4375 C-215.31086 2031.71801 -210.74179 2036.64748 -206.11719 2041.60156 C-201.88856 2046.21172 -197.84771 2050.97149 -193.79297 2055.73438 C-187.19971 2063.44341 -180.29583 2070.85992 -173.36157 2078.26147 C-169.56514 2082.31422 -165.80606 2086.39822 -162.0625 2090.5 C-157.45445 2095.4993 -152.73496 2100.37101 -147.9375 2105.1875 C-147.29369 2105.8359 -146.64989 2106.4843 -145.98657 2107.15234 C-138.09657 2115.01609 -138.09657 2115.01609 -132 2114 C-121.29921 2106.97761 -112.07381 2096.79796 -103.83594 2087.05469 C-100.35466 2083.15862 -96.5632 2079.55761 -92.85156 2075.88281 C-90.01767 2073.01787 -87.38209 2070.05895 -84.77344 2066.99219 C-82.60887 2064.56062 -80.31571 2062.28789 -78 2060 C-74.45423 2056.49161 -71.08746 2052.91579 -67.84375 2049.12891 C-65.60601 2046.54507 -63.30514 2044.02385 -61 2041.5 C-55.1057 2035.02957 -49.37838 2028.45311 -43.75 2021.75 C-40.09986 2017.4167 -36.36839 2013.20168 -32.5 2009.0625 C-27.55352 2003.72143 -23.05964 1998.11399 -18.60547 1992.35938 C-14.83179 1987.49376 -10.92005 1982.74789 -7 1978 C3.18816 1965.65406 13.26092 1953.23979 23.14062 1940.64453 C25.02376 1938.2443 26.90912 1935.84582 28.79688 1933.44922 C37.81863 1921.99363 46.69466 1910.46301 55.28516 1898.67969 C57.788 1895.28735 60.34629 1891.95004 62.9375 1888.625 C67.2331 1883.07595 71.30795 1877.38887 75.33228 1871.64233 C78.96543 1866.45516 82.65387 1861.31186 86.375 1856.1875 C91.63811 1848.93262 96.78935 1841.6047 101.90967 1834.24854 C105.36605 1829.29532 108.89258 1824.40766 112.5 1819.5625 C118.74019 1811.11396 124.50236 1802.36265 130.2832 1793.59717 C132.40738 1790.38372 134.5498 1787.18272 136.69336 1783.98218 C141.92208 1776.17071 147.06516 1768.30816 152.15625 1760.40625 C154.68624 1756.48016 157.23584 1752.56709 159.78784 1748.65527 C169.54049 1733.69649 179.07494 1718.61436 188.33203 1703.34375 C190.2902 1700.13166 192.29745 1696.95439 194.32422 1693.78516 C206.15395 1675.25025 217.25961 1656.26854 228.17041 1637.18262 C229.97611 1634.04155 231.80264 1630.91364 233.63672 1627.78906 C243.96992 1610.14289 253.53505 1592.12396 263 1574 C264.19519 1571.72259 265.39049 1569.44524 266.58594 1567.16797 C280.8588 1539.89278 294.67036 1512.38185 307.44971 1484.37402 C309.08021 1480.82544 310.73785 1477.29057 312.40234 1473.75781 C318.31593 1461.19018 323.93309 1448.60828 328.95166 1435.65869 C330.11805 1432.70062 331.32649 1429.76204 332.54297 1426.82422 C348.90428 1387.3068 362.7015 1346.76851 374.87646 1305.7793 C375.82958 1302.57324 376.79657 1299.37194 377.76953 1296.17188 C385.33913 1270.92944 390.24967 1244.8935 395 1219 C395.21898 1217.82808 395.43796 1216.65616 395.66357 1215.44873 C398.70117 1199.04205 400.87831 1182.57351 402.75 1166 C402.8035 1165.53399 402.8035 1165.53399 403.07425 1163.17572 C405.25331 1144.02089 406.35896 1124.8455 406.0415 1105.55713 C406.01318 1103.81211 405.99235 1102.06696 405.97803 1100.32178 C405.62234 1065.62745 400.01887 1031.66226 392 998 C391.61486 996.33015 391.23079 994.66006 390.84766 992.98975 C387.98771 980.60849 384.68466 968.41048 381 956.25 C380.72331 955.33222 380.44663 954.41444 380.16156 953.46884 C360.90955 889.93391 328.86514 831.19267 288 779 C287.40961 778.22656 286.81922 777.45312 286.21094 776.65625 C281.9075 771.02711 277.34374 765.63718 272.74219 760.25 C270.35113 757.41615 268.04571 754.53579 265.75 751.625 C261.31919 746.16247 256.39148 741.27906 251.38354 736.354 C248.14637 733.16647 244.99454 729.97126 242.0625 726.5 C239.24795 723.28337 236.38967 720.58308 233.14453 717.82812 C230.84469 715.86761 228.61012 713.84643 226.375 711.8125 C217.20216 703.54423 207.90293 695.38765 198 688 C196.9043 687.18145 195.80859 686.36289 194.67969 685.51953 C181.77672 675.97026 168.63608 666.87601 154.96875 658.45312 C152.39243 656.86068 149.82896 655.24719 147.28125 653.60938 C138.27331 647.83983 129.04243 642.66223 119.59961 637.64136 C114.92245 635.15068 110.3051 632.61782 105.77734 629.86328 C101.59873 627.3227 97.33592 625.08168 92.9375 622.9375 C76.55384 614.83076 76.55384 614.83076 74 611 C74.7785 603.34477 78.24285 597.18821 81.73047 590.41406 C84.01341 585.97392 86.22451 581.50533 88.375 577 C88.74407 576.2285 89.11315 575.45699 89.49341 574.66211 C91.67126 570.03668 93.69322 565.36972 95.61719 560.63281 C96.05627 559.55258 96.49536 558.47234 96.94775 557.35938 C97.79822 555.24708 98.63699 553.13002 99.4624 551.00781 C103.55726 540.79868 103.55726 540.79868 108 538 C115.20024 537.85196 120.7888 540.32347 127.125 543.375 C128.07149 543.81908 129.01799 544.26316 129.99316 544.7207 C131.99012 545.66037 133.98423 546.60613 135.97559 547.55762 C138.94733 548.97488 141.92904 550.36876 144.91406 551.75781 C156.89703 557.36652 168.55225 563.36835 180 570 C181.22332 570.70383 182.44664 571.40766 183.70703 572.13281 C210.8514 588.07241 236.92396 606.72966 261 627 C261.70254 627.59039 262.40508 628.18078 263.12891 628.78906 C266.68284 631.83529 269.99877 635.00724 273.25 638.375 C276.45027 641.62709 279.72372 644.32756 283.44531 646.96094 C290.81594 652.42812 297.17924 658.73877 303.625 665.25 C304.77484 666.38824 305.92469 667.52648 307.10938 668.69922 C313.58057 675.19253 319.37806 681.85264 324.85547 689.20068 C327.38172 692.49827 330.15349 695.35436 333.1875 698.1875 C337.54805 702.4198 341.08818 706.63003 344.42188 711.69531 C346.43073 714.62904 348.71906 717.21215 351.12891 719.82031 C353.35795 722.41699 355.39171 725.14394 357.43188 727.89014 C358.88307 729.84268 360.35286 731.78136 361.82422 733.71875 C368.82685 742.96643 375.51108 752.38147 382 762 C382.83273 763.22332 383.66547 764.44664 384.52344 765.70703 C390.52005 774.58845 396.1624 783.65372 401.69043 792.83057 C402.92429 794.87457 404.16883 796.91212 405.41406 798.94922 C409.86332 806.26527 414.03791 813.66786 417.98047 821.26953 C419.55733 824.1823 421.20003 826.97914 422.93359 829.79688 C425.9884 834.84904 428.4838 840.04513 430.875 845.4375 C431.30426 846.39632 431.73352 847.35514 432.17578 848.34302 C433.45998 851.22461 434.7322 854.11116 436 857 C436.35353 857.80115 436.70705 858.6023 437.07129 859.42773 C455.46921 901.3311 469.04879 945.34606 478.75 990 C478.90296 990.6911 478.90296 990.6911 479.677 994.18848 C481.24941 1001.53023 482.39547 1008.62445 482.7002 1016.13281 C483.03276 1019.31334 483.96542 1021.98238 485 1025 C485.26218 1028.05701 485.44448 1031.12154 485.5625 1034.1875 C485.90278 1042.70833 485.90278 1042.70833 487 1046 C487.09293 1047.85802 487.12629 1049.71925 487.12698 1051.57959 C487.12839 1052.16006 487.12839 1052.16006 487.13553 1055.0976 C487.1335 1056.3725 487.13148 1057.6474 487.12939 1058.96094 C487.13115 1060.30255 487.1329 1061.64416 487.1347 1063.02643 C487.13912 1067.47597 487.13619 1071.92546 487.13281 1076.375 C487.13349 1079.45752 487.13446 1082.54004 487.13571 1085.62256 C487.13719 1092.08887 487.13504 1098.55517 487.13037 1105.02148 C487.12467 1113.32438 487.12795 1121.62725 487.13394 1129.93015 C487.13755 1136.29712 487.13641 1142.66409 487.13382 1149.03107 C487.13315 1152.0932 487.13397 1155.15534 487.1363 1158.21747 C487.13882 1162.49135 487.13498 1166.76518 487.12939 1171.03906 C487.13041 1171.67651 487.13041 1171.67651 487.13553 1174.9024 C487.13271 1176.06335 487.12989 1177.22429 487.12698 1178.42041 C487.12661 1179.43141 487.12623 1180.44241 487.12584 1181.48404 C487 1184 487 1184 486 1187 C485.76954 1191.14101 485.60666 1195.27666 485.48242 1199.42188 C485.27787 1204.60904 484.52369 1209.05674 483 1214 C482.63945 1216.45175 482.32919 1218.91128 482.0625 1221.375 C481.03973 1229.98985 479.61243 1238.47714 478 1247 C477.83129 1247.89799 477.66259 1248.79599 477.48877 1249.72119 C474.22681 1266.95631 470.25255 1283.9846 466 1301 C465.78908 1301.8569 465.57815 1302.71381 465.36084 1303.59668 C461.463 1319.39583 456.60223 1334.9285 451.78442 1350.46588 C450.96446 1353.1148 450.14903 1355.76509 449.33398 1358.41553 C435.35665 1403.781 418.37028 1447.7006 399.24756 1491.14893 C397.95968 1494.09214 396.6913 1497.04321 395.42578 1499.99609 C390.0829 1512.39594 384.37493 1524.54291 378.20996 1536.55737 C374.84344 1543.15387 371.70562 1549.8163 368.69922 1556.58203 C364.45206 1566.12559 359.90543 1575.49659 355.21558 1584.82959 C353.9287 1587.39254 352.65054 1589.95971 351.37305 1592.52734 C347.0702 1601.13965 342.61496 1609.60043 337.77124 1617.92529 C335.22904 1622.33832 332.891 1626.84672 330.5625 1631.375 C324.53364 1642.97831 318.21739 1654.37858 311.4375 1665.5625 C307.66866 1671.787 304.22116 1678.13688 300.83203 1684.57422 C298.38237 1689.15493 295.73507 1693.5855 293 1698 C285.12031 1710.74989 285.12031 1710.74989 281.6875 1716.6875 C274.21719 1729.55864 266.29846 1742.14051 258.27222 1754.66968 C254.31997 1760.86228 250.4979 1767.11945 246.75 1773.4375 C239.77423 1785.1773 232.15739 1796.44231 224.30078 1807.60938 C222.4726 1810.30354 220.7183 1813.01525 218.98438 1815.76953 C213.80889 1823.94048 208.35884 1831.92876 202.9375 1839.9375 C202.3833 1840.75715 201.82911 1841.5768 201.25812 1842.4213 C192.9557 1854.69794 184.56243 1866.90295 176 1879 C174.8185 1880.69235 173.63753 1882.38507 172.45703 1884.07812 C169.6325 1888.11654 166.74549 1892.10183 163.8125 1896.0625 C159.7199 1901.61875 155.7111 1907.22446 151.75 1912.875 C148.18424 1917.95507 144.57464 1922.97245 140.70703 1927.82812 C138.58168 1930.53223 136.54595 1933.29789 134.5 1936.0625 C131.41118 1940.20183 128.19868 1944.10609 124.74609 1947.94141 C121.9418 1951.24758 119.49542 1954.8066 116.97656 1958.33203 C114.68675 1961.42283 112.20324 1964.26434 109.63672 1967.125 C107.52957 1969.53891 105.6255 1972.09257 103.72656 1974.67188 C99.89455 1979.83902 95.93153 1984.90844 92 1990 C91.36707 1990.81984 90.73414 1991.63969 90.08203 1992.48438 C86.42334 1997.20635 82.70431 2001.87697 78.96484 2006.53516 C77.14305 2008.82054 75.34823 2011.12389 73.5625 2013.4375 C68.41832 2020.06986 63.16024 2026.61871 57.5625 2032.875 C54.55202 2036.26876 51.80762 2039.82616 49.0625 2043.4375 C45.53371 2048.0697 41.89334 2052.48289 37.96875 2056.78125 C35.85867 2059.15928 33.90545 2061.62835 31.9375 2064.125 C28.08315 2068.90119 23.88506 2073.16017 19.5 2077.4375 C15.15554 2081.68052 11.19016 2085.82449 7.6875 2090.8125 C3.66991 2096.48305 -1.04386 2101.16387 -6 2106 C-10.85197 2110.73495 -15.4949 2115.28449 -19.375 2120.875 C-24.27708 2127.89055 -30.48218 2133.63658 -36.64404 2139.53271 C-37.0592 2139.93531 -37.0592 2139.93531 -39.16016 2141.97266 C-39.89887 2142.67656 -40.63758 2143.38047 -41.39868 2144.10571 C-43.66854 2146.63121 -45.49564 2149.12084 -47.4209 2151.90552 C-52.87557 2159.50569 -59.50186 2165.9549 -66.10547 2172.53906 C-67.47573 2173.9139 -68.84562 2175.2891 -70.21516 2176.66464 C-73.07376 2179.53212 -75.93788 2182.39392 -78.80591 2185.25195 C-82.45084 2188.88541 -86.07968 2192.53446 -89.70425 2196.18821 C-92.52588 2199.02833 -95.35691 2201.85892 -98.19064 2204.68696 C-99.53112 2206.02729 -100.86857 2207.37065 -102.20269 2208.7173 C-125.23798 2231.93838 -125.23798 2231.93838 -138 2231 C-140.87891 2229.26563 -140.87891 2229.26563 -144 2227 C-144.98355 2226.29746 -145.96711 2225.59492 -146.98047 2224.87109 C-155.4152 2218.47056 -162.81736 2211.42674 -170.16284 2203.81421 C-174.48236 2199.36874 -178.86966 2195.44283 -183.81909 2191.71582 C-187.48288 2188.83335 -190.72724 2185.56188 -194 2182.25 C-194.64711 2181.61062 -195.29422 2180.97125 -195.96094 2180.3125 C-199.59727 2176.66179 -202.92156 2172.89902 -206.12109 2168.85938 C-212.425 2161.03728 -219.73245 2154.17589 -226.92798 2147.18848 C-233.60955 2140.6854 -239.81157 2134.2505 -245.11499 2126.55078 C-248.42928 2122.0659 -252.47647 2118.34051 -256.5 2114.5 C-262.32457 2108.82214 -267.59688 2103.32672 -272.12109 2096.53516 C-275.30936 2092.23332 -279.2783 2088.69997 -283.11328 2084.98047 C-286.55034 2081.43179 -289.27564 2077.6313 -292.07812 2073.57812 C-294.02196 2070.97054 -296.09197 2068.81097 -298.4375 2066.5625 C-302.77328 2062.39777 -306.20869 2057.83524 -309.74219 2052.98438 C-312.57715 2049.23713 -315.69322 2045.82355 -318.875 2042.37109 C-321.52294 2039.4165 -323.91507 2036.30791 -326.31641 2033.15234 C-327.99434 2031.00723 -329.75123 2028.97072 -331.5625 2026.9375 C-334.94869 2023.12898 -337.94211 2019.07718 -341 2015 C-342.15473 2013.65632 -343.32167 2012.32304 -344.5 2011 C-347.25878 2007.89262 -349.80225 2004.68297 -352.26953 2001.33594 C-357.93918 1993.68256 -363.76691 1986.20269 -370 1979 C-375.50779 1972.13541 -380.73155 1965.04833 -386 1958 C-386.72188 1957.04094 -387.44375 1956.08188 -388.1875 1955.09375 C-393.16927 1948.47511 -398.08546 1941.81088 -402.97656 1935.125 C-405.13077 1932.18211 -407.29344 1929.24562 -409.46094 1926.3125 C-415.5665 1918.04954 -421.62562 1909.76108 -427.57812 1901.38672 C-432.85513 1894.00743 -438.2513 1886.71358 -443.64844 1879.42188 C-458.35232 1859.50049 -472.0996 1838.96247 -485.7897 1818.33882 C-489.18447 1813.22489 -492.5907 1808.1188 -496.00415 1803.01733 C-510.11736 1781.91199 -523.74676 1760.54251 -536.75781 1738.73828 C-539.31381 1734.47681 -541.90405 1730.2372 -544.5 1726 C-549.38155 1718.0286 -554.20091 1710.02134 -559 1702 C-559.76312 1700.73156 -560.52625 1699.46312 -561.3125 1698.15625 C-568.41533 1686.35019 -575.34168 1674.48789 -581.91748 1662.38013 C-584.19748 1658.19957 -586.53911 1654.08244 -589.02344 1650.01953 C-592.00896 1645.08606 -594.55263 1640.00004 -597.0625 1634.8125 C-600.93596 1626.92592 -605.05454 1619.23943 -609.4375 1611.625 C-618.88105 1595.14244 -627.13894 1578.22748 -634.64282 1560.78223 C-638.32054 1552.32406 -642.38938 1544.09839 -646.5625 1535.875 C-652.39604 1524.3568 -657.80973 1512.75714 -662.80078 1500.85156 C-664.03997 1497.90497 -665.2992 1494.96758 -666.5625 1492.03125 C-688.08743 1441.85516 -708.38093 1390.2022 -722.36865 1337.34033 C-723.43596 1333.38396 -724.66864 1329.47827 -725.875 1325.5625 C-728.64252 1316.43301 -731.04918 1307.23535 -733.2832 1297.96143 C-734.11055 1294.54326 -734.95379 1291.12916 -735.79688 1287.71484 C-736.42752 1285.14334 -737.05773 1282.57172 -737.6875 1280 C-737.83635 1279.39773 -737.83635 1279.39773 -738.5896 1276.34985 C-740.17326 1269.83305 -741.50631 1263.34886 -742.55054 1256.72461 C-743.18779 1252.86166 -744.055 1249.06353 -744.9375 1245.25 C-747.57318 1233.53695 -750.16995 1221.98993 -750.69141 1209.96484 C-751 1207 -751 1207 -751.99609 1203.72266 C-753.60454 1197.75825 -753.46045 1191.74175 -753.65625 1185.59375 C-754 1181 -754 1181 -755.00531 1177.95457 C-756.34361 1172.63391 -756.27885 1167.59825 -756.25879 1162.13306 C-756.26229 1160.95495 -756.2658 1159.77684 -756.26941 1158.56303 C-756.27819 1154.67868 -756.27239 1150.79451 -756.26562 1146.91016 C-756.26697 1144.20406 -756.26891 1141.49795 -756.27142 1138.79185 C-756.27437 1133.12366 -756.27009 1127.45554 -756.26074 1121.78735 C-756.24935 1114.5298 -756.25591 1107.27239 -756.26789 1100.01484 C-756.27512 1094.42743 -756.27281 1088.84006 -756.26763 1083.25265 C-756.2663 1080.57703 -756.26793 1077.9014 -756.27259 1075.22579 C-756.27768 1071.48255 -756.26991 1067.73955 -756.25879 1063.99634 C-756.26284 1062.89531 -756.26689 1061.79428 -756.27106 1060.65988 C-756.23871 1054.76721 -755.62648 1049.71077 -754 1044 C-753.6499 1039.44471 -753.49891 1034.90545 -753.34375 1030.33984 C-753.01994 1026.25169 -752.18126 1022.90585 -751 1019 C-750.68387 1016.71414 -750.41612 1014.42126 -750.1875 1012.125 C-738.73526 916.10234 -695.14193 815.10888 -636 739 C-635.70609 738.61586 -635.70609 738.61586 -634.21875 736.67188 C-630.3341 731.62183 -626.3123 726.69024 -622.26562 721.76953 C-620.09259 719.11318 -617.94844 716.43623 -615.8125 713.75 C-613.56536 710.92997 -611.28935 708.17332 -608.9375 705.4375 C-606.89613 703.04866 -604.94528 700.58069 -603.07104 698.05859 C-598.18918 691.76804 -592.55081 686.2454 -586.92578 680.625 C-585.76556 679.46049 -584.60534 678.29599 -583.40996 677.09619 C-580.96329 674.6421 -578.51284 672.19187 -576.05981 669.74414 C-572.94623 666.63633 -569.84413 663.51733 -566.74507 660.39505 C-563.74981 657.38135 -560.74342 654.37885 -557.73828 651.375 C-556.64099 650.2685 -555.5437 649.162 -554.41316 648.02197 C-548.47639 642.12016 -542.44637 636.8105 -535.63493 631.93652 C-532.26005 629.45618 -529.21119 626.69068 -526.11328 623.87891 C-522.56001 620.71972 -518.78056 617.87966 -515 615 C-513.7509 614.02934 -512.5018 613.05867 -511.21484 612.05859 C-501.69842 604.68132 -491.99861 597.71578 -482 591 C-480.74316 590.14535 -479.48633 589.2907 -478.19141 588.41016 C-469.63315 582.63044 -460.90777 577.2224 -452 572 C-450.54685 571.13806 -449.09373 570.27608 -447.64062 569.41406 C-436.16602 562.6489 -424.4561 556.39818 -412.59912 550.33105 C-410.34978 549.17913 -408.106 548.01634 -405.86328 546.85156 C-385.24009 536.29214 -363.84124 527.67363 -342 520 C-341.37907 519.78094 -341.37907 519.78094 -338.23682 518.67236 C-305.83774 507.33085 -272.89128 497.95595 -239.03906 492.14844 C-238.31074 492.02082 -238.31074 492.02082 -234.625 491.375 C-233.40039 491.17648 -232.17578 490.97797 -230.91406 490.77344 C-228 490 -228 490 -225 487 C-224.78318 483.37052 -224.74594 479.92724 -224.85547 476.30469 C-224.86632 475.77368 -224.86632 475.77368 -224.92122 473.08646 C-224.97054 470.83514 -225.02736 468.58397 -225.09106 466.33301 C-225.18653 462.90966 -225.25636 459.48653 -225.32227 456.0625 C-225.37347 453.87236 -225.42615 451.68225 -225.48047 449.49219 C-225.49095 448.98421 -225.49095 448.98421 -225.54399 446.41354 C-225.68149 441.89744 -226.02295 437.89758 -227.01587 433.46655 C-228.17025 428.2273 -228.28802 423.38566 -228.26562 418.04297 C-228.26658 417.53086 -228.26658 417.53086 -228.27142 414.93929 C-228.27278 412.78366 -228.26914 410.62802 -228.26074 408.47241 C-228.25006 405.20733 -228.26065 401.9428 -228.27344 398.67773 C-228.28437 380.83421 -228.28437 380.83421 -226.46777 371.99976 C-225.22172 364.00903 -225.5703 355.74798 -225.46826 347.677 C-225.43435 345.23637 -225.38918 342.79591 -225.34375 340.35547 C-225.3344 339.63694 -225.3344 339.63694 -225.28711 336.00073 C-225.00371 332.05165 -224.15064 328.77245 -223 325 C-222.76074 321.65037 -222.58505 318.3521 -222.5 315 C-222.3485 309.0293 -221.75008 303.73563 -220 298 C-219.77335 295.85967 -219.60525 293.71222 -219.5 291.5625 C-219.17042 286.46843 -218.27519 281.95074 -217 277 C-216.70967 274.85672 -216.44188 272.71035 -216.1875 270.5625 C-213.54577 250.01797 -208.44606 229.95186 -203 210 C-202.73494 209.0071 -202.46987 208.0142 -202.19678 206.99121 C-189.07891 158.05622 -167.35552 106.47489 -135 67 C-133.51509 64.96251 -132.03598 62.92078 -130.5625 60.875 C-126.69083 55.6718 -122.34161 51.27775 -117.68359 46.78125 C-115.00142 44.00147 -112.80222 41.1429 -110.5625 38 C-104.13825 29.13936 -95.88751 22.26518 -87.17969 15.72656 C-84.81717 13.85517 -82.68163 11.82879 -80.5 9.75 C-73.70363 3.54831 -65.90735 -1.3389 -58 -6 C-57.2712 -6.46342 -56.54239 -6.92684 -55.7915 -7.4043 C-38.4569 -17.46234 -13.82052 -13.5571 0 0 Z M-66 191 C-66.92297 191.83789 -67.84594 192.67578 -68.79688 193.53906 C-81.40554 205.38053 -90.78254 220.06754 -98.9375 235.22656 C-100.5362 238.15145 -102.19981 240.96412 -103.94922 243.79688 C-107.0286 248.89955 -109.48137 254.14638 -111.8125 259.625 C-112.23845 260.61863 -112.66441 261.61225 -113.10327 262.63599 C-129.05143 300.25191 -140.13213 338.7727 -145.94336 379.21289 C-146.43765 382.57979 -146.92149 385.76448 -148 389 C-148.12531 390.67832 -148.20121 392.36058 -148.24609 394.04297 C-148.26253 394.53894 -148.26253 394.53894 -148.3457 397.04883 C-148.40633 399.12165 -148.46368 401.19457 -148.51758 403.26758 C-148.55174 404.26596 -148.5859 405.26434 -148.62109 406.29297 C-148.64615 407.19555 -148.67121 408.09814 -148.69702 409.02808 C-149 412 -149 412 -150.00708 415.32739 C-151.50086 422.35699 -151.28458 429.30221 -151.26562 436.46875 C-151.26754 438.05877 -151.26945 439.64879 -151.27142 441.28699 C-151.27278 444.64245 -151.27012 447.99761 -151.26074 451.35303 C-151.24935 455.63657 -151.25592 459.91986 -151.26789 464.20339 C-151.27688 468.31269 -151.27057 472.42195 -151.26562 476.53125 C-151.26967 478.06165 -151.27372 479.59205 -151.27789 481.16882 C-151.24731 488.13034 -151.04131 494.28639 -149 501 C-148.71289 503.81665 -148.71289 503.81665 -148.65625 506.34766 C-148.6266 507.28287 -148.59695 508.21809 -148.56641 509.18164 C-148.52205 511.10612 -148.47777 513.0306 -148.43359 514.95508 C-148.26282 520.3344 -147.57836 524.821 -146 530 C-145.76913 532.47401 -145.60333 534.95489 -145.5 537.4375 C-145.19999 542.89125 -144.43224 547.71863 -143 553 C-142.83187 554.748 -142.68707 556.49836 -142.5625 558.25 C-142 563 -142 563 -139 567 C-134.33843 567.07629 -132.23471 564.63389 -129.1875 561.375 C-125.69077 557.66721 -122.0479 554.28385 -118.19263 550.9502 C-114.14487 547.34999 -110.33098 543.5154 -106.5 539.6875 C-105.69691 538.89666 -104.89383 538.10582 -104.06641 537.29102 C-99.29852 532.53472 -94.9466 527.63078 -90.83105 522.29858 C-88.90597 519.88196 -86.86144 517.6296 -84.75 515.375 C-79.23954 509.3267 -74.46892 502.73859 -69.61328 496.16602 C-66.86507 492.47623 -64.05428 488.83473 -61.25 485.1875 C-29.07985 443.16352 -3.53995 396.99916 14 347 C14.24428 346.31035 14.24428 346.31035 15.48047 342.82031 C23.16286 320.45863 30.3819 296.09677 30.89453 272.32031 C30.99634 269.11535 31.46627 266.15613 32 263 C32.08836 260.98067 32.13022 258.95876 32.125 256.9375 C32.12758 255.9359 32.13016 254.9343 32.13281 253.90234 C32 251 32 251 31.50781 248.60547 C30.84163 245.18742 30.84317 241.85554 30.75 238.375 C29.21393 210.41381 17.35805 183.02848 -9 171 C-30.85279 165.5368 -50.7264 176.14806 -66 191 Z M-192.07812 845.20703 C-194.28789 847.26858 -196.63704 848.91003 -199.125 850.625 C-204.8727 854.67434 -209.56521 859.44555 -214.37109 864.55859 C-217.21573 867.42344 -220.29842 869.71862 -223.57422 872.07422 C-232.19681 878.41902 -239.33895 886.19913 -246.75781 893.875 C-253.4399 900.69565 -260.25049 906.80014 -267.92822 912.48682 C-271.08792 915.07193 -273.44095 917.83208 -276 921 C-277.2717 922.16322 -278.57263 923.29593 -279.91016 924.38281 C-283.96928 927.85012 -287.16567 931.67611 -290.4375 935.875 C-295.53947 942.26601 -300.95194 948.1118 -306.8125 953.8125 C-312.52202 959.37477 -317.59796 964.97181 -322.22266 971.49609 C-324.60421 974.8512 -327.30457 977.89439 -330 981 C-335.95044 988.33732 -341.21267 996.08885 -346.43311 1003.9541 C-347.86044 1006.10308 -349.29503 1008.24706 -350.73047 1010.39062 C-377.15756 1049.9964 -398.04878 1095.89178 -404.125 1143.5625 C-404.58946 1147.15188 -405.12035 1150.48141 -406 1154 C-406.22688 1158.06936 -406.39125 1162.13365 -406.51758 1166.20703 C-406.72704 1171.43164 -407.44997 1176.22823 -408.55688 1181.35693 C-409.39896 1186.37967 -409.28694 1191.42044 -409.25 1196.5 C-409.25773 1197.56348 -409.26547 1198.62695 -409.27344 1199.72266 C-409.26124 1204.69373 -409.04982 1209.35963 -408 1214.22656 C-407.01725 1218.91765 -406.79972 1223.09353 -406.75 1227.875 C-405.41892 1267.45859 -388.46861 1314.3878 -366 1347 C-364.82911 1348.87237 -363.66254 1350.74744 -362.5 1352.625 C-359.83466 1356.81254 -356.98401 1360.74026 -353.88281 1364.61328 C-351.68401 1367.40056 -349.59862 1370.26163 -347.5 1373.125 C-344.95764 1376.53485 -342.51908 1379.48092 -339.5 1382.5 C-336.47707 1385.52293 -334.12873 1388.43562 -331.625 1391.875 C-324.83898 1401.06012 -317.17 1407.76643 -308.05469 1414.59766 C-305.48677 1416.61718 -303.28915 1418.62523 -301.0625 1421 C-295.73345 1426.55202 -289.32998 1430.67724 -283 1435 C-281.78699 1435.83918 -280.57398 1436.67836 -279.32422 1437.54297 C-264.40239 1447.7062 -248.76221 1456.29867 -232 1463 C-230.50598 1463.59941 -229.01195 1464.19883 -227.47266 1464.81641 C-201.82971 1474.92837 -175.20461 1483.00762 -147.82812 1486.57031 C-145 1487 -145 1487 -142 1488 C-140.15603 1488.09828 -138.30873 1488.13822 -136.46216 1488.14526 C-135.327 1488.15164 -134.19185 1488.15802 -133.02229 1488.1646 C-132.40824 1488.16515 -132.40824 1488.16515 -129.30078 1488.16797 C-128.03663 1488.1713 -126.77248 1488.17463 -125.47002 1488.17805 C-122.79097 1488.18312 -120.11191 1488.18546 -117.43286 1488.1853 C-113.34641 1488.18748 -109.26023 1488.20562 -105.17383 1488.22461 C-102.57031 1488.22754 -99.9668 1488.22953 -97.36328 1488.23047 C-96.1453 1488.23765 -94.92733 1488.24484 -93.67244 1488.25224 C-87.43773 1488.23558 -82.02386 1487.81548 -76 1486 C-74.25492 1485.78789 -72.50427 1485.61318 -70.75 1485.5 C-62.85382 1484.66882 -62.85382 1484.66882 -60.625 1480.3125 C-59.84251 1476.16531 -60.72045 1474.03058 -62 1470 C-62.34273 1468.04673 -62.65157 1466.08739 -62.9375 1464.125 C-64.61421 1452.73898 -66.65242 1441.44122 -69.0625 1430.1875 C-70.34684 1424.17933 -71.53616 1418.18812 -72.5 1412.12109 C-73.15164 1408.05343 -73.85493 1403.99579 -74.5625 1399.9375 C-74.68689 1399.22014 -74.68689 1399.22014 -75.31641 1395.58984 C-76 1392 -76 1392 -77 1389 C-77.31826 1386.79534 -77.60512 1384.5861 -77.875 1382.375 C-78.78838 1375.31156 -79.94929 1368.3199 -81.21875 1361.3125 C-81.98416 1357.08743 -82.71112 1352.85692 -83.4375 1348.625 C-84.52266 1342.45099 -85.74916 1336.31643 -87.0625 1330.1875 C-88.35127 1324.15861 -89.54511 1318.14729 -90.50781 1312.05859 C-91.10573 1308.34299 -91.77273 1304.64172 -92.4375 1300.9375 C-93.5181 1294.86452 -94.50566 1288.785 -95.4375 1282.6875 C-96.73233 1274.35971 -98.32201 1266.12815 -100.03516 1257.87891 C-100.72921 1254.36932 -101.36293 1250.88019 -101.9375 1247.35156 C-103.11728 1240.14151 -104.52938 1232.98086 -105.9375 1225.8125 C-109.52415 1207.40997 -112.69355 1188.95881 -115.75 1170.46094 C-118.14524 1156.01467 -120.62367 1141.60449 -123.5896 1127.26392 C-124.8331 1121.14917 -125.70898 1115.05632 -126.3125 1108.84766 C-127.18454 1105.23562 -128.18333 1103.44143 -131 1101 C-137.10042 1100.82613 -142.24783 1103.71953 -147.5625 1106.4375 C-148.44148 1106.88271 -149.32046 1107.32792 -150.22607 1107.78662 C-158.01996 1111.83216 -165.07764 1116.59524 -172 1122 C-172.92297 1122.71285 -173.84594 1123.4257 -174.79688 1124.16016 C-177.22856 1126.07234 -179.61749 1128.02712 -182 1130 C-182.67289 1130.52594 -183.34578 1131.05188 -184.03906 1131.59375 C-189.45455 1135.99518 -193.46266 1141.22804 -197.62109 1146.80859 C-199.56294 1149.41367 -201.56504 1151.92708 -203.625 1154.4375 C-217.14809 1171.98268 -225.02099 1193.98669 -227.57031 1215.8125 C-228 1219 -228 1219 -229 1222 C-229.12258 1224.74798 -229.17552 1227.49932 -229.1875 1230.25 C-229.20168 1231.71953 -229.21586 1233.18906 -229.23047 1234.70312 C-229.0091 1238.83033 -228.21574 1242.07397 -227 1246 C-226.69265 1248.14091 -226.42238 1250.28743 -226.1875 1252.4375 C-222.86905 1276.72135 -211.30898 1302.64859 -195 1321 C-193.77984 1322.57424 -192.57089 1324.15725 -191.375 1325.75 C-185.68067 1333.06572 -179.30814 1338.3787 -171.88672 1343.86328 C-161.78852 1351.33786 -161.78852 1351.33786 -161 1357 C-170.00862 1357.54616 -177.32268 1356.21293 -185.8125 1353.25 C-186.97741 1352.85095 -188.14232 1352.45191 -189.34253 1352.04077 C-209.50313 1344.86784 -228.21247 1334.45902 -243.92969 1319.84375 C-246.00746 1317.99336 -248.1712 1316.42339 -250.4375 1314.8125 C-255.46841 1310.98444 -258.9322 1306.18169 -262.66016 1301.12109 C-264.53189 1298.6244 -266.42298 1296.38311 -268.5625 1294.125 C-288.33012 1271.93876 -302.32872 1231.65372 -302.79688 1201.96484 C-303 1199 -303 1199 -304 1195.19531 C-305.08557 1190.64102 -305.26592 1186.6141 -305.25 1181.9375 C-305.25258 1181.17889 -305.25258 1181.17889 -305.26562 1177.33984 C-305.01264 1173.20657 -304.15529 1169.95019 -303 1166 C-302.76606 1163.17143 -302.60203 1160.3364 -302.5 1157.5 C-302.30077 1151.96139 -301.64879 1147.2862 -300 1142 C-299.68085 1140.33838 -299.38751 1138.67151 -299.125 1137 C-293.42713 1105.27901 -280.89659 1072.20481 -259.98438 1047.40625 C-258 1045 -258 1045 -255.58594 1041.55859 C-251.17622 1035.65006 -245.88343 1030.54856 -240.6709 1025.35522 C-238.89105 1023.57852 -237.12493 1021.78894 -235.35938 1019.99805 C-228.32055 1012.95528 -221.1175 1006.75499 -213 1001 C-211.7393 1000.04352 -210.47859 999.08703 -209.17969 998.10156 C-194.11514 986.81205 -177.15928 975.30147 -159.375 968.875 C-154.47642 966.77561 -152.7428 965.53114 -150 961 C-150.21912 957.2872 -150.6517 954.31609 -151.5 950.75 C-151.91675 948.77243 -152.3321 946.79456 -152.74609 944.81641 C-152.96121 943.8343 -153.17632 942.8522 -153.39795 941.84033 C-154.25228 937.8098 -154.91124 933.75521 -155.5625 929.6875 C-156.97386 921.11252 -158.47755 912.55586 -160 904 C-160.75089 899.74885 -161.50045 895.49747 -162.25 891.24609 C-162.74822 888.42547 -163.2482 885.60515 -163.75 882.78516 C-165.04597 875.4886 -166.30291 868.18848 -167.5 860.875 C-168.46284 855.118 -169.43634 849.36431 -170.5 843.625 C-170.71656 842.44164 -170.93313 841.25828 -171.15625 840.03906 C-172 837 -172 837 -175 833 C-181.7836 833 -187.67602 840.63329 -192.07812 845.20703 Z M-64 1087 C-63.93359 1090.71484 -63.93359 1090.71484 -63 1095 C-62.70223 1096.52754 -62.40445 1098.05508 -62.09766 1099.62891 C-61.75404 1101.27374 -61.40893 1102.91826 -61.0625 1104.5625 C-59.57682 1111.78522 -58.39259 1118.97028 -57.49609 1126.29297 C-56.75644 1131.82001 -55.72044 1137.28813 -54.72266 1142.77344 C-53.8218 1148.04222 -53.14802 1153.32451 -52.52734 1158.63281 C-51.96776 1162.20587 -51.00419 1165.52848 -50 1169 C-49.6438 1171.0554 -49.33231 1173.11898 -49.0625 1175.1875 C-48.27064 1181.02749 -47.4394 1186.8597 -46.5625 1192.6875 C-46.49873 1193.11164 -46.49873 1193.11164 -46.17603 1195.25806 C-44.82947 1204.17929 -43.43099 1213.09192 -42 1222 C-41.7641 1223.48113 -41.5282 1224.96227 -41.28516 1226.48828 C-39.99266 1234.44589 -38.55402 1242.35323 -36.9375 1250.25 C-35.56769 1256.94552 -34.40435 1263.62782 -33.5 1270.40234 C-32.88289 1274.84262 -32.16959 1279.26507 -31.4375 1283.6875 C-31.18871 1285.19699 -30.93992 1286.70648 -30.68359 1288.26172 C-30 1292 -30 1292 -29 1295 C-28.68178 1297.39245 -28.39491 1299.78912 -28.125 1302.1875 C-27.28949 1309.11292 -26.11915 1315.90274 -24.78125 1322.74609 C-23.92289 1327.41989 -23.23291 1332.10917 -22.5625 1336.8125 C-21.36481 1345.11905 -19.75587 1353.2649 -17.97656 1361.46875 C-15.72425 1371.9195 -13.88078 1382.36978 -12.52344 1392.97266 C-10.79626 1406.26162 -8.60902 1419.38474 -5.90625 1432.50781 C-5.1764 1436.12559 -4.51741 1439.73125 -3.9375 1443.375 C-3.62717 1445.25036 -3.31456 1447.12534 -3 1449 C-2.79891 1450.23105 -2.59781 1451.46211 -2.39062 1452.73047 C-2.15859 1453.99504 -1.92656 1455.25961 -1.6875 1456.5625 C-1.48512 1457.71879 -1.28273 1458.87508 -1.07422 1460.06641 C0.26903 1463.73469 1.37161 1464.63217 5 1466 C19.52783 1464.63076 36.45065 1452.21632 48 1444 C49.07379 1443.29617 50.14758 1442.59234 51.25391 1441.86719 C71.03093 1428.3641 87.3984 1410.24645 100 1390 C100.57508 1389.10829 101.15017 1388.21658 101.74268 1387.29785 C112.32439 1370.82716 119.85571 1353.56634 126 1335 C126.36158 1333.9412 126.72316 1332.88239 127.0957 1331.7915 C137.47415 1299.86693 136.51495 1254.72555 126 1223 C125.86368 1222.56728 125.86368 1222.56728 125.17383 1220.37744 C123.38757 1214.79485 121.28064 1209.40299 119 1204 C118.67693 1203.21287 118.35386 1202.42573 118.021 1201.61475 C113.80644 1191.39745 108.90475 1181.72174 103.3125 1172.1875 C103.04526 1171.73097 103.04526 1171.73097 101.69287 1169.42065 C98.53113 1164.16102 95.08247 1159.60683 91 1155 C90.12473 1153.78184 89.24945 1152.56367 88.34766 1151.30859 C83.9492 1145.3759 78.64528 1140.27676 73.4375 1135.0625 C72.42881 1134.02932 71.42012 1132.99613 70.38086 1131.93164 C63.45186 1124.97621 56.22901 1119.33296 48 1114 C46.48845 1112.97693 44.97788 1111.95241 43.46875 1110.92578 C20.88452 1096.05486 -4.57093 1087.06519 -31.36328 1083.39453 C-34 1083 -34 1083 -38 1082 C-41.49276 1081.80139 -44.94303 1081.67741 -48.4375 1081.625 C-48.90833 1081.60631 -48.90833 1081.60631 -51.29102 1081.51172 C-57.24865 1081.43604 -60.82351 1081.68025 -64 1087 Z " fill="#c4a25c" transform="translate(758,11)"/></g>
</svg>
