<svg xmlns="http://www.w3.org/2000/svg" viewBox="0 0 1848 3176" role="img" aria-label="MusicalMap">
<title>MusicalMap</title>
<defs>
<linearGradient id="mmGold" x1="0" y1="0" x2="0.85" y2="1">
<stop offset="0" stop-color="#ead29a"/>
<stop offset="0.5" stop-color="#c4a25c"/>
<stop offset="1" stop-color="#9a7430"/>
</linearGradient>
</defs>
<g><path d="M0 0 C3.53083 7.59497 5.1015 15.60978 6.5 23.8125 C6.92044 26.19143 7.34101 28.57034 7.76172 30.94922 C7.96716 32.12919 8.17261 33.30917 8.38428 34.5249 C8.96453 37.79983 9.57743 41.06627 10.20703 44.33203 C10.39395 45.3126 10.58086 46.29318 10.77344 47.30347 C11.12094 49.12237 11.47343 50.94033 11.83203 52.75708 C15.08904 70.13291 9.81409 79.36598 -2.9375 90.5625 C-4.29146 91.70857 -5.64564 92.85439 -7 94 C-15.93968 101.92241 -24.67914 110.06611 -33.4375 118.1875 C-42.90602 126.95464 -42.90602 126.95464 -46.875 130.375 C-50.85009 133.8088 -54.66894 137.4076 -58.5 141 C-62.92994 145.15371 -67.37718 149.26903 -71.98047 153.23047 C-75.67584 156.46839 -79.26644 159.82225 -82.875 163.15625 C-85.1855 165.2588 -87.51264 167.32384 -89.87109 169.37109 C-94.03345 173.0002 -98.05581 176.76314 -102.0625 180.5625 C-103.55187 181.96897 -105.04146 183.37522 -106.53125 184.78125 C-106.90314 185.13252 -106.90314 185.13252 -108.78516 186.91016 C-124.76478 201.98794 -124.76478 201.98794 -130.375 206.8125 C-134.01449 210.01274 -137.39264 213.37945 -140.79688 216.82422 C-143.31222 219.30835 -145.93806 221.61539 -148.61908 223.91725 C-158.43584 232.50462 -167.76046 241.60176 -176.98438 250.81641 C-178.17728 252.00608 -179.37026 253.19569 -180.56329 254.38524 C-183.03891 256.85493 -185.51251 259.32661 -187.98486 261.79956 C-191.1251 264.9399 -194.2722 268.07327 -197.42105 271.20497 C-199.8783 273.65102 -202.3309 276.10168 -204.7823 278.5536 C-206.49452 280.26411 -208.21127 281.97009 -209.92816 283.67592 C-215.66309 289.42752 -221.06578 295.27108 -226.10818 301.64178 C-228.93861 305.17001 -232.0109 308.4067 -235.125 311.6875 C-239.85715 316.70638 -244.52183 321.75305 -249 327 C-249.88945 328.03383 -250.77891 329.06766 -251.69531 330.13281 C-253.76509 332.54138 -255.83139 334.95293 -257.89453 337.36719 C-259.84444 339.64822 -261.79942 341.92493 -263.76172 344.19531 C-270.06249 351.53548 -275.9802 359.1076 -281.81641 366.81641 C-284.64036 370.54295 -287.52856 374.21426 -290.4375 377.875 C-302.02875 392.65301 -312.74042 407.90008 -323.1875 423.5 C-323.73858 424.31927 -324.28967 425.13854 -324.85745 425.98264 C-331.8142 436.33994 -338.38606 446.83427 -344.5437 457.68701 C-347.01908 462.03351 -349.56053 466.33065 -352.125 470.625 C-361.33316 486.31082 -368.93732 502.27106 -376 519 C-376.70908 520.663 -377.41869 522.32577 -378.12891 523.98828 C-382.57533 534.43172 -386.85489 544.93938 -391.00879 555.50244 C-391.96401 557.90932 -392.94458 560.30445 -393.92969 562.69922 C-407.20974 595.53966 -414.78533 630.72795 -420.25 665.625 C-420.48429 667.10968 -420.71857 668.59436 -420.95996 670.12402 C-424.80588 695.77636 -426.5547 721.19179 -426.4375 747.125 C-426.43479 748.543 -426.43208 749.961 -426.42929 751.42197 C-426.37031 771.84013 -425.64895 791.76451 -422.58984 811.97607 C-421.96345 816.24937 -421.44283 820.52718 -420.9375 824.81641 C-416.04847 865.06122 -405.29327 904.19208 -391.08203 942.10547 C-390.01856 944.95035 -388.97638 947.80231 -387.9375 950.65625 C-384.56627 959.82898 -380.90168 968.63565 -376.39062 977.32031 C-373.79266 982.33653 -371.38422 987.44062 -368.95483 992.54004 C-360.07083 1011.15912 -350.42936 1028.82312 -339 1046 C-338.58234 1046.63293 -338.58234 1046.63293 -336.46875 1049.83594 C-333.99584 1053.56877 -331.50246 1057.28692 -329 1061 C-328.11441 1062.32 -327.22883 1063.64 -326.31641 1065 C-320.23134 1073.97655 -313.81033 1082.56332 -307 1091 C-305.94615 1092.32385 -304.89278 1093.64808 -303.83984 1094.97266 C-297.73959 1102.60757 -291.44069 1109.94945 -284.74219 1117.07422 C-282.40061 1119.57257 -280.13031 1122.11188 -277.875 1124.6875 C-273.39515 1129.68521 -268.67414 1134.43502 -263.9375 1139.1875 C-263.1813 1139.94829 -262.42511 1140.70908 -261.646 1141.49292 C-257.50575 1145.62191 -253.27786 1149.57889 -248.84692 1153.3938 C-246.1165 1155.76835 -243.50448 1158.2647 -240.875 1160.75 C-235.2711 1165.94575 -229.439 1170.69865 -223.38672 1175.35938 C-220.26803 1177.79102 -217.25498 1180.30522 -214.25 1182.875 C-185.77523 1206.72309 -153.08111 1225.41651 -120 1242 C-119.04142 1242.4813 -118.08284 1242.96261 -117.09521 1243.4585 C-105.2994 1249.33853 -93.34738 1254.4409 -80.95654 1258.92871 C-77.69703 1260.10978 -74.44458 1261.3094 -71.19141 1262.50781 C-58.11722 1267.28774 -45.04018 1271.7322 -31.58496 1275.31006 C-28.8878 1276.02995 -26.198 1276.77404 -23.50781 1277.51953 C-10.25232 1281.14069 3.09175 1283.96845 16.61621 1286.38892 C19.01296 1286.82175 21.4066 1287.2719 23.79785 1287.73413 C35.4884 1289.93148 47.15749 1291.20224 59 1292.1875 C60.03001 1292.27372 61.06002 1292.35993 62.12125 1292.44876 C106.23804 1296.04596 152.06805 1295.70881 195.8811 1288.8269 C203.35314 1287.69817 212.7958 1286.57129 218 1293 C221.94449 1302.35914 223.69065 1311.83868 225.4375 1321.8125 C225.74066 1323.50483 226.04446 1325.19705 226.34888 1326.88916 C228.8406 1340.80944 231.18766 1354.75435 233.46338 1368.71143 C234.25782 1373.58003 235.0652 1378.44643 235.875 1383.3125 C236.03009 1384.24892 236.18518 1385.18535 236.34497 1386.15015 C237.40015 1392.49307 238.48961 1398.82947 239.59375 1405.16406 C242.72792 1423.18447 245.71758 1441.21499 248.375 1459.3125 C248.50219 1460.17141 248.62939 1461.03032 248.76044 1461.91525 C259.27223 1533.15947 252.53404 1608.90467 192.875 1656.9375 C174.06218 1671.19475 152.96525 1681.55124 129.8125 1686.25 C128.61947 1686.50523 127.42645 1686.76047 126.19727 1687.02344 C95.13765 1693.51198 45.92133 1691.68031 20.72266 1668.94531 C18.58879 1666.53564 18 1665.22592 18 1662 C21.41097 1655.00752 29.98982 1653.80452 36.90234 1651.95703 C52.53362 1647.72025 66.04591 1641.01572 78 1630 C78.65227 1629.42766 79.30453 1628.85531 79.97656 1628.26562 C98.13964 1611.46277 100.13464 1586.97342 100.15771 1563.78735 C100.16026 1563.21576 100.16026 1563.21576 100.17311 1560.32317 C100.18372 1557.86738 100.19238 1555.41158 100.19923 1552.95578 C100.21113 1549.06747 100.2306 1545.17927 100.25235 1541.291 C100.31365 1530.24522 100.36815 1519.19946 100.40137 1508.15356 C100.42229 1501.37578 100.45756 1494.5982 100.50212 1487.82054 C100.51628 1485.24377 100.52501 1482.66696 100.52818 1480.09015 C100.53308 1476.49551 100.55621 1472.90141 100.5835 1469.30688 C100.58049 1468.24549 100.57748 1467.1841 100.57439 1466.09055 C100.63511 1460.71284 100.76518 1456.53768 104 1452 C114.51678 1446.74161 125.42459 1454.35377 134.28516 1460.14844 C148.73556 1470.5615 155.44425 1481.04352 158.65723 1498.48779 C159.34733 1502.2052 159.87744 1504.81615 162 1508 C168.28165 1508 169.90345 1506.06339 173 1501 C182.52461 1480.8017 179.48951 1461.67735 168 1443 C164.2639 1438.06533 160.24608 1433.49957 156 1429 C155.28715 1428.23043 154.5743 1427.46086 153.83984 1426.66797 C148.65448 1421.26966 142.83686 1416.66806 137 1412 C119.19064 1397.6379 119.19064 1397.6379 113 1392 C112.35031 1391.42637 111.70062 1390.85273 111.03125 1390.26172 C105.80768 1385.40983 102.3215 1380.01469 98.76172 1373.85547 C95.72921 1368.94025 93.41359 1367.18216 87.6875 1366.75 C80.75086 1367.22028 77.09497 1369.81007 74 1376 C70.06532 1391.14851 72.04867 1407.63325 72.42834 1423.17389 C72.83577 1440.30908 73.14686 1457.44731 73.23218 1474.58731 C73.24399 1476.601 73.26102 1478.61467 73.28345 1480.62827 C73.31319 1483.43202 73.32333 1486.23517 73.32812 1489.03906 C73.33747 1490.62928 73.34682 1492.2195 73.35645 1493.85791 C72.91 1499.04588 71.73772 1502.46087 67.8125 1505.9375 C61.5111 1508.31803 54.48301 1505.40032 48.3125 1503.5 C10.44676 1491.90088 -31.71054 1506.28632 -60.375 1532.03125 C-91.01311 1561.25093 -98.39446 1605.8237 -89 1646 C-74.50042 1697.10243 -23.98513 1730.68445 25.19971 1744.06494 C63.09517 1753.38909 102.55252 1757.20456 141 1749 C141.90476 1748.81808 142.80952 1748.63616 143.7417 1748.44873 C179.97066 1741.09516 212.74019 1725.72984 241 1702 C242.89471 1700.49858 244.79042 1698.99842 246.6875 1697.5 C258.92466 1687.40297 268.79379 1675.81939 278 1663 C278.43764 1662.39285 278.43764 1662.39285 280.65234 1659.32031 C293.58504 1640.64656 302.24989 1620.25736 310 1599 C310.3184 1598.13166 310.6368 1597.26331 310.96484 1596.36865 C322.74936 1563.60144 325.80572 1528.56471 325 1494 C324.97921 1492.80343 324.95843 1491.60686 324.93701 1490.37402 C324.626 1473.09101 323.34267 1456.12342 321 1439 C320.92048 1438.41759 320.92048 1438.41759 320.51807 1435.47021 C319.53853 1428.36783 318.51707 1421.27223 317.46875 1414.17969 C317.04543 1411.3082 316.63043 1408.43568 316.21875 1405.5625 C314.84265 1396.1093 313.23627 1386.72637 311.47827 1377.33911 C310.31387 1371.01549 309.37867 1364.68964 308.5625 1358.3125 C307.51948 1350.21066 306.16023 1342.21013 304.625 1334.1875 C302.64202 1323.73391 300.83659 1313.26163 299.1875 1302.75 C298.96852 1301.40704 298.74954 1300.06408 298.52393 1298.68042 C294.71791 1273.89533 294.71791 1273.89533 300 1267 C305.9588 1262.64913 312.04539 1260.15679 319 1257.8125 C363.7947 1242.69814 405.02298 1219.30254 442 1190 C442.63293 1189.49855 443.26586 1188.99711 443.91797 1188.48047 C452.00803 1182.04911 459.85803 1175.46207 467.41406 1168.40234 C469.52825 1166.43825 471.67285 1164.5505 473.875 1162.6875 C482.92166 1154.8118 491.3732 1146.16112 498.80859 1136.75391 C501.2167 1133.72767 503.72629 1130.80541 506.25 1127.875 C522.45508 1108.69486 536.12838 1088.13251 548 1066 C548.48292 1065.11039 548.96583 1064.22077 549.46338 1063.3042 C557.97157 1047.58328 565.3872 1031.60498 572 1015 C572.40203 1013.99614 572.80405 1012.99229 573.21826 1011.95801 C616.46368 903.06872 607.22638 772.63551 542 674 C541.37416 673.03949 540.74832 672.07897 540.10352 671.08936 C538.01615 667.88645 535.91736 664.69143 533.8125 661.5 C533.48576 661.00407 533.48576 661.00407 531.83228 658.49438 C527.52983 652.05399 522.92413 645.97606 518 640 C517.23172 639.04609 516.46344 638.09219 515.67188 637.10938 C513.46104 634.39526 511.23224 631.69654 509 629 C508.1634 627.9752 507.3268 626.95039 506.46484 625.89453 C495.10854 612.27016 482.58708 598.88115 468.55078 587.98828 C465.52754 585.63173 462.64961 583.13192 459.75 580.625 C441.37291 565.06515 421.00013 552.63216 400 541 C399.25218 540.58476 398.50437 540.16952 397.73389 539.7417 C337.10343 506.28518 269.6349 494.8816 200.99707 497.87256 C197.03974 498.04083 193.08528 498.17637 189.125 498.25 C188.05508 498.27578 186.98516 498.30156 185.88281 498.32812 C179.21653 497.56936 176.26294 494.63791 173 489 C172.07446 485.74072 172.07446 485.74072 171.47266 482.16406 C171.24054 480.81047 171.00843 479.45687 170.76929 478.06226 C170.53605 476.59796 170.30281 475.13367 170.0625 473.625 C169.80799 472.08658 169.55348 470.54817 169.29126 468.96313 C167.1425 455.64004 165.43607 442.271 163.82886 428.87329 C162.51142 417.90946 161.02316 406.98217 159.375 396.0625 C157.77002 385.4203 156.31458 374.78371 155.09985 364.09009 C154.05717 355.06316 152.71005 346.08901 151.26929 337.11743 C149.27992 324.33475 148.88295 314.18203 159.33984 304.92969 C160.19707 304.25164 161.0543 303.57359 161.9375 302.875 C166.1786 299.47534 170.36044 296.02282 174.5 292.5 C178.42564 289.16551 182.37282 285.86712 186.375 282.625 C197.96515 273.17431 209.08449 263.21851 220 253 C221.3189 251.77462 222.63791 250.54936 223.95703 249.32422 C231.63461 242.1706 239.19194 234.90771 246.625 227.5 C246.99186 227.13544 246.99186 227.13544 248.84839 225.29053 C252.80891 221.31865 256.58303 217.24853 260.24463 213.00049 C263.34839 209.46333 266.62594 206.0906 269.875 202.6875 C275.01561 197.2598 280.00359 191.79563 284.66016 185.94141 C287.74394 182.0648 290.90602 178.25497 294.0625 174.4375 C299.09477 168.33301 304.09355 162.20636 309 156 C309.79148 155.00613 310.58297 154.01227 311.39844 152.98828 C314.28688 149.34173 317.14576 145.67338 320 142 C320.50789 141.35531 321.01578 140.71062 321.53906 140.04639 C340.14095 116.36449 356.91074 90.68463 372.10522 64.70264 C377.93896 54.89019 377.93896 54.89019 383 52 C388.71362 52.29183 392.96403 53.60945 398.04297 56.17578 C399.3533 56.8328 400.66363 57.48982 402.01367 58.16675 C403.39104 58.87485 404.7684 59.58294 406.1875 60.3125 C407.61771 61.038 409.04793 61.7635 410.52148 62.51099 C420.14933 67.43284 429.58987 72.60233 438.91797 78.06641 C444.63545 81.40377 450.4744 84.50523 456.3125 87.625 C464.98486 92.28712 473.43395 97.1634 481.70264 102.51855 C484.45003 104.2902 487.21113 106.03954 489.97266 107.78906 C501.81045 115.3022 513.55266 122.90024 525 131 C525.35852 131.25298 525.35852 131.25298 527.17285 132.5332 C536.48809 139.12233 545.56585 145.9115 554.42188 153.10938 C557.90567 155.9238 561.44618 158.64987 565 161.375 C571.57935 166.52211 577.63018 172.11266 583.67969 177.85938 C586.08308 180.1327 588.49007 182.34864 591 184.5 C602.99652 194.84635 614.80973 205.82778 625.09766 217.88281 C627.42209 220.46976 629.89019 222.87938 632.375 225.3125 C636.80647 229.70171 640.80981 234.25474 644.69531 239.12891 C647.19579 242.24391 649.77792 245.27766 652.375 248.3125 C661.89184 259.54527 670.74067 271.2428 679.42188 283.125 C681.67632 286.20875 683.95404 289.27138 686.26562 292.3125 C707.82028 320.81187 726.279 351.46839 743 383 C743.52126 383.97937 744.04253 384.95873 744.57959 385.96777 C748.11175 392.61563 751.58012 399.29373 755 406 C755.41282 406.80276 755.82564 407.60553 756.25098 408.43262 C771.26093 437.85115 782.08159 469.58082 792 501 C792.46358 502.45068 792.92716 503.90136 793.40479 505.396 C801.27829 530.19521 807.31582 555.27855 812.83984 580.68848 C813.80098 585.10925 814.80126 589.52008 815.8125 593.92969 C833.93276 675.48789 830.9745 763.10465 815.8125 844.875 C815.71034 845.43582 815.71034 845.43582 815.19336 848.27393 C806.16166 897.37891 806.16166 897.37891 800.6626 920.2334 C799.8905 923.4572 799.1392 926.68563 798.38672 929.91406 C797.80029 932.40123 797.21306 934.88821 796.625 937.375 C796.49702 937.92398 796.49702 937.92398 795.84937 940.70215 C793.00228 952.59144 789.48061 964.28449 786 976 C785.85819 976.47911 785.85819 976.47911 785.14056 978.90369 C775.65655 1010.92494 765.24975 1042.55659 754 1074 C753.51725 1075.35126 753.03449 1076.70252 752.53711 1078.09473 C749.78074 1085.76473 746.91997 1093.39092 744 1101 C743.43523 1102.47678 742.87046 1103.95356 742.28857 1105.4751 C728.29138 1142.01676 713.2996 1177.87273 696.29997 1213.12308 C692.8743 1220.23521 689.55022 1227.39153 686.25 1234.5625 C677.43468 1253.64317 668.50697 1272.70096 658.55688 1291.2207 C655.42705 1297.08082 652.57411 1303.05002 649.75 1309.0625 C644.19516 1320.84192 638.047 1332.26316 631.80273 1343.68848 C630.00516 1346.99053 628.22592 1350.30177 626.45312 1353.61719 C619.88437 1365.90023 613.18322 1378.09367 606.29297 1390.19922 C603.37301 1395.33043 600.4917 1400.48252 597.61694 1405.63916 C591.55222 1416.5148 585.36392 1427.29617 579 1438 C577.96013 1439.76515 576.92112 1441.53081 575.88281 1443.29688 C569.03533 1454.93597 562.07919 1466.50052 555 1478 C554.36191 1479.04285 553.72383 1480.0857 553.06641 1481.16016 C547.32693 1490.52847 541.48868 1499.83539 535.66016 1509.14844 C533.55941 1512.50513 531.46256 1515.86406 529.37109 1519.22656 C517.38129 1538.4995 505.04549 1557.54669 492.53394 1576.48438 C487.31073 1584.40778 482.23186 1592.40716 477.21973 1600.46558 C474.67823 1604.51235 472.03889 1608.4506 469.3125 1612.375 C464.97378 1618.65126 460.67256 1624.95163 456.40625 1631.27734 C456.15711 1631.64659 456.15711 1631.64659 454.89629 1633.5152 C452.87689 1636.5086 450.85775 1639.50216 448.84195 1642.49799 C440.62682 1654.70515 432.19365 1666.7369 423.4375 1678.5625 C419.31452 1684.16952 415.30563 1689.83926 411.36328 1695.57422 C403.4969 1706.97722 395.42293 1718.23327 387.29297 1729.44922 C385.07685 1732.507 382.87199 1735.57242 380.67578 1738.64453 C374.85296 1746.77707 368.90284 1754.7509 362.67578 1762.58203 C358.93947 1767.35469 355.38203 1772.25047 351.8125 1777.14844 C344.06139 1787.76316 336.12571 1798.18045 327.87109 1808.41016 C325.1762 1811.77969 322.5479 1815.18982 319.9375 1818.625 C315.72331 1824.13846 311.28592 1829.4216 306.77734 1834.69531 C303.02737 1839.1573 299.45506 1843.74813 295.87109 1848.34375 C288.94401 1857.16518 281.80638 1865.81954 274.66089 1874.46436 C274.07155 1875.17737 273.4822 1875.89038 272.875 1876.625 C272.28759 1877.33543 271.70018 1878.04587 271.09497 1878.77783 C267.45288 1883.19627 263.89041 1887.66697 260.375 1892.1875 C252.01571 1902.88445 243.06484 1912.97926 233.8125 1922.90625 C230.44061 1926.61532 227.29173 1930.46922 224.15234 1934.375 C221.24899 1937.91593 218.18533 1941.29628 215.10547 1944.68359 C211.12467 1949.06321 207.24532 1953.52602 203.42578 1958.04688 C192.45602 1970.99383 180.85586 1983.23065 168.80078 1995.16797 C166.50367 1997.49071 164.31644 1999.83755 162.1875 2002.3125 C159.31485 2005.63576 156.3433 2008.70302 153.1875 2011.75 C151.44203 2013.54534 149.78287 2015.42445 148.15625 2017.32812 C142.87205 2023.40664 137.15026 2029.07291 131.46631 2034.77393 C129.49762 2036.75239 127.53987 2038.74128 125.58203 2040.73047 C124.31576 2042.00326 123.04886 2043.27542 121.78125 2044.54688 C120.64752 2045.68995 119.51379 2046.83303 118.3457 2048.01074 C112.56991 2053.17119 107.87016 2056.19245 100 2055 C89.54456 2049.61386 81.19729 2039.90496 73.60156 2031.08594 C69.77793 2026.67241 65.66433 2022.58984 61.5 2018.5 C56.67773 2013.76399 52.00922 2008.98175 47.59912 2003.85742 C42.27068 1997.6683 36.73141 1991.63025 30.875 1985.9375 C27.0795 1982.19589 23.76298 1978.14758 20.42188 1974 C14.24129 1966.34405 8.00053 1958.85556 0.94141 1951.99609 C-2.08479 1948.88465 -4.74106 1945.4921 -7.46094 1942.11328 C-14.4289 1933.56949 -21.73306 1925.31276 -29.25 1917.25 C-33.58405 1912.5926 -37.68163 1907.82318 -41.66797 1902.86719 C-47.30047 1895.94213 -53.1974 1889.23017 -59.04688 1882.48828 C-64.05211 1876.69855 -68.93494 1870.86142 -73.625 1864.8125 C-76.93806 1860.5454 -80.32493 1856.45911 -84 1852.5 C-88.66507 1847.4676 -92.87744 1842.1651 -97.07812 1836.74219 C-100.18619 1832.76154 -103.36436 1828.84571 -106.5625 1824.9375 C-111.29446 1819.14509 -115.89276 1813.26554 -120.42578 1807.31641 C-123.28233 1803.63627 -126.22958 1800.03596 -129.1875 1796.4375 C-135.3881 1788.87081 -141.25557 1781.07838 -147.09375 1773.23047 C-151.11798 1767.82444 -155.21393 1762.47474 -159.3125 1757.125 C-164.53517 1750.29626 -169.63086 1743.4016 -174.58594 1736.375 C-177.28732 1732.59831 -180.07384 1728.89023 -182.875 1725.1875 C-187.51792 1719.04026 -192.00864 1712.8017 -196.4314 1706.49463 C-200.06043 1701.32139 -203.73318 1696.18209 -207.4375 1691.0625 C-207.97609 1690.31774 -208.51467 1689.57299 -209.06958 1688.80566 C-211.81691 1685.0093 -214.56915 1681.21653 -217.32422 1677.42578 C-232.36286 1656.70883 -246.45573 1635.37496 -260.54028 1614.00342 C-262.43034 1611.13586 -264.32159 1608.26908 -266.21289 1605.40234 C-275.85693 1590.77655 -285.42651 1576.10567 -294.8125 1561.3125 C-295.99864 1559.44528 -297.18484 1557.57809 -298.37109 1555.71094 C-298.96648 1554.77347 -299.56187 1553.836 -300.17529 1552.87012 C-302.02148 1549.96622 -303.87149 1547.06479 -305.72266 1544.16406 C-311.12852 1535.69057 -316.5245 1527.21589 -321.76172 1518.63672 C-324.24764 1514.59765 -326.76767 1510.58086 -329.28882 1506.56372 C-336.22233 1495.51136 -343.02776 1484.39343 -349.69922 1473.18115 C-351.57857 1470.02985 -353.47853 1466.89103 -355.375 1463.75 C-371.29812 1437.19241 -386.74934 1410.33042 -401.37158 1383.03467 C-403.07279 1379.86436 -404.7834 1376.69927 -406.49609 1373.53516 C-413.55429 1360.48552 -420.49337 1347.38001 -427.32349 1334.20972 C-428.98354 1331.03152 -430.66203 1327.86337 -432.34132 1324.69531 C-438.84391 1312.40714 -445.09947 1299.99911 -451.3125 1287.5625 C-451.86347 1286.46061 -452.41445 1285.35873 -452.98212 1284.22345 C-460.74757 1268.68043 -468.31548 1253.08133 -475.5 1237.26025 C-477.11284 1233.75474 -478.77017 1230.27288 -480.4375 1226.79297 C-517.52 1149.24644 -546.59752 1067.35836 -571 985 C-571.26232 984.11546 -571.52465 983.23092 -571.79492 982.31958 C-589.35143 922.98177 -602.17879 862.99778 -609.25 801.5 C-609.32549 800.85922 -609.32549 800.85922 -609.70752 797.61646 C-612.71545 770.11274 -613.37851 742.5203 -613.3125 714.875 C-613.31068 713.27925 -613.30885 711.6835 -613.30698 710.0394 C-613.26125 686.21251 -612.78644 662.68077 -610 639 C-609.90888 638.20723 -609.90888 638.20723 -609.44775 634.19531 C-598.96694 544.25404 -571.32216 458.94292 -531 378 C-530.45875 376.90816 -529.91751 375.81633 -529.35986 374.69141 C-521.93819 359.79841 -513.68804 345.63885 -504.69238 331.64453 C-502.31729 327.93319 -500.0045 324.18538 -497.6875 320.4375 C-483.29622 297.45406 -467.26332 275.77127 -450.10156 254.79297 C-448.23473 252.50998 -446.37353 250.22235 -444.52344 247.92578 C-439.97133 242.28793 -435.233 236.87665 -430.32812 231.54297 C-428.39306 229.42933 -426.49792 227.2934 -424.625 225.125 C-414.8652 213.93522 -404.51676 203.35664 -394.00781 192.87744 C-391.73581 190.61084 -389.46926 188.33888 -387.20312 186.06641 C-385.7347 184.59864 -384.26596 183.13118 -382.79688 181.66406 C-382.1321 180.99726 -381.46733 180.33047 -380.78241 179.64346 C-376.34564 175.2285 -371.74097 171.08704 -367 167 C-365.37153 165.52465 -363.74598 164.04607 -362.125 162.5625 C-358.14941 158.97845 -354.07343 155.58599 -349.86719 152.27734 C-347.05267 150.04183 -344.28174 147.75766 -341.51123 145.46802 C-333.04716 138.50093 -324.31659 131.99587 -315.36377 125.67236 C-312.95309 123.96681 -310.55252 122.24765 -308.15234 120.52734 C-232.58112 66.65146 -142.56465 24.65836 -52.19092 3.74316 C-48.47759 2.87833 -44.77264 1.98065 -41.06641 1.08594 C-38.29464 0.43071 -35.52251 -0.22295 -32.75 -0.875 C-32.1072 -1.03049 -32.1072 -1.03049 -28.85425 -1.81738 C-6.48256 -6.96875 -6.48256 -6.96875 0 0 Z " fill="#14334c" transform="translate(819,877)"/></g>
<g><path d="M0 0 C1.43684 1.70889 2.87436 3.41721 4.3125 5.125 C25.76737 31.44248 42.25817 61.54435 57 92 C57.30873 92.62648 57.30873 92.62648 58.87109 95.79688 C86.31481 152.56175 102.6437 214.02826 113 276 C113.23703 277.40653 113.47405 278.81306 113.71826 280.26221 C126.87874 360.06109 125.39994 442.35734 112 522 C111.79262 523.25909 111.58524 524.51818 111.37158 525.81543 C106.44436 555.39516 99.1439 584.45422 90 613 C89.54077 614.43666 89.08154 615.87332 88.6084 617.35352 C82.11525 637.53223 75.11036 657.41386 67 677 C66.61151 677.95584 66.22302 678.91168 65.82275 679.89648 C53.15804 710.88703 37.11026 741.24355 20 770 C19.73623 770.44779 19.73623 770.44779 18.40137 772.71387 C1.66138 801.06052 -17.0137 828.08438 -37.37598 853.93506 C-38.8689 855.8333 -40.35286 857.73859 -41.83594 859.64453 C-51.21635 871.67952 -60.75602 883.63042 -71.06641 894.88672 C-72.86888 896.85669 -74.62758 898.85622 -76.375 900.875 C-80.21586 905.28752 -84.18661 909.57845 -88.15625 913.875 C-90.14332 916.05859 -92.08971 918.27959 -94.00391 920.52734 C-98.94393 926.19174 -104.30271 931.45183 -109.62427 936.75464 C-111.43361 938.55862 -113.23754 940.36789 -115.04102 942.17773 C-120.86996 948.0002 -126.73998 953.64556 -133 959 C-134.35198 960.31442 -135.69026 961.64348 -137 963 C-140.09495 966.13685 -143.31438 969.06524 -146.65234 971.94531 C-149.72214 974.63202 -152.73876 977.37283 -155.75 980.125 C-156.83797 981.11758 -157.92594 982.11016 -159.04688 983.13281 C-170.95225 994.69173 -168.24831 1006.27074 -165.6875 1021.4375 C-165.47416 1022.76588 -165.26082 1024.09426 -165.04102 1025.46289 C-164.05627 1031.43896 -162.97661 1037.26671 -161.33203 1043.09766 C-160.20955 1047.36671 -159.8838 1051.09289 -159.98438 1055.50391 C-160.17258 1063.87773 -158.92958 1071.98136 -157.66449 1080.23361 C-156.95192 1084.88197 -156.27183 1089.53514 -155.58594 1094.1875 C-155.4483 1095.11421 -155.31066 1096.04092 -155.16885 1096.99571 C-153.96528 1105.12999 -152.89646 1113.27839 -151.875 1121.4375 C-150.55776 1131.89425 -149.08578 1142.31585 -147.49731 1152.73462 C-146.18916 1161.43038 -145.11101 1170.1446 -144.0625 1178.875 C-142.74362 1189.65958 -141.26469 1200.40377 -139.5 1211.125 C-139.40529 1211.72949 -139.40529 1211.72949 -138.92603 1214.78857 C-136.64602 1228.12826 -136.64602 1228.12826 -130.78955 1231.13477 C-127.45716 1232.16837 -124.69944 1232.21571 -121.21094 1232.16406 C-119.8803 1232.14634 -118.54967 1232.12861 -117.17871 1232.11035 C-111.75452 1231.96711 -106.33433 1231.76397 -100.91284 1231.54199 C-45.30438 1229.37629 9.95824 1238.36553 61 1261 C62.43859 1261.63422 63.87719 1262.26844 65.35938 1262.92188 C97.61432 1277.64961 126.90333 1296.58275 154.01416 1319.33887 C155.82649 1320.85486 157.65278 1322.35413 159.48047 1323.85156 C172.96055 1335.0718 186.19065 1347.50582 196.94922 1361.39062 C199.45361 1364.57716 202.13304 1367.58438 204.8125 1370.625 C283.50414 1462.34901 308.14298 1595.38454 270.23877 1728.48975 C258.39442 1762.05263 243.56338 1795.19056 224 1825 C223.05551 1826.47235 222.11151 1827.94501 221.16797 1829.41797 C214.90196 1839.10613 208.11458 1848.1358 200.69727 1856.96729 C198.93116 1859.08245 197.18973 1861.21603 195.45312 1863.35547 C182.47927 1879.31662 168.74532 1894.70083 153 1908 C152.01 1908.86754 151.02 1909.73508 150 1910.62891 C141.61134 1917.94039 132.96283 1924.79255 124.05664 1931.45801 C122.15052 1932.88715 120.25449 1934.32973 118.35938 1935.77344 C102.80281 1947.45799 86.19158 1957.89947 69 1967 C68.1099 1967.47228 67.2198 1967.94456 66.30273 1968.43115 C44.40294 1979.9587 21.62486 1989.2392 -1.6499 1997.60767 C-5 1999 -5 1999 -9 2002 C-9.66 2002 -10.32 2002 -11 2002 C-17.59577 2014.63349 -11.38168 2034.15103 -9.1875 2047.5 C-8.82647 2049.76156 -8.46644 2052.02328 -8.10742 2054.28516 C-6.47888 2064.46169 -4.73236 2074.58363 -2.64136 2084.67676 C-1.52572 2090.45754 -0.80779 2096.28702 -0.0625 2102.125 C1.06103 2110.61929 2.29033 2119.04097 4 2127.4375 C6.23522 2138.47653 7.6199 2149.61084 9.05469 2160.77734 C10.03361 2168.37648 11.1797 2175.942 12.38672 2183.50781 C14.44373 2198.57507 14.62468 2213.81791 15 2229 C15.01507 2229.59426 15.01507 2229.59426 15.09131 2232.60156 C16.39028 2291.77526 1.60436 2354.3776 -35 2402 C-35.68836 2402.89977 -36.37672 2403.79953 -37.08594 2404.72656 C-41.78693 2410.72822 -46.79654 2416.43047 -52 2422 C-52.37963 2422.4067 -52.37963 2422.4067 -54.30078 2424.46484 C-60.98178 2431.3864 -68.36829 2437.16743 -76 2443 C-77.05188 2443.84691 -78.10375 2444.69383 -79.1875 2445.56641 C-137.31275 2491.99395 -222.65577 2499.78424 -292 2478 C-292.67611 2477.79246 -292.67611 2477.79246 -296.09766 2476.74219 C-321.97217 2468.22283 -346.00604 2454.55271 -366 2436 C-367.09699 2434.98422 -368.19398 2433.96844 -369.32422 2432.92188 C-401.13083 2402.33433 -411.26465 2357.49177 -401 2315 C-388.17672 2272.13589 -354.72737 2247.33928 -312.98047 2235.89844 C-295.95612 2232.08356 -277.50018 2232.29623 -261 2238 C-248.79693 2241.81154 -248.79693 2241.81154 -243 2240 C-238.79561 2234.39414 -238.87203 2231.23077 -238.86719 2224.33203 C-238.86587 2223.44519 -238.86455 2222.55834 -238.86319 2221.64462 C-238.86125 2218.70055 -238.86768 2215.75657 -238.875 2212.8125 C-238.87544 2212.30753 -238.87544 2212.30753 -238.87769 2209.75211 C-238.89625 2191.57331 -239.20044 2173.40472 -239.64404 2155.23169 C-240.74216 2110.05662 -240.74216 2110.05662 -230 2102 C-224.37487 2100.12496 -219.65697 2100.17889 -215 2104 C-212.33798 2107.28504 -209.90172 2110.54929 -207.67188 2114.13672 C-201.15607 2124.56576 -192.09249 2132.15897 -182.33203 2139.46484 C-176.6974 2143.75192 -171.35127 2148.36725 -166 2153 C-165.13633 2153.73863 -164.27266 2154.47727 -163.38281 2155.23828 C-144.01821 2172.15911 -127.84164 2193.12792 -131.6875 2220.1875 C-133.62929 2229.88369 -136.74738 2237.1291 -144 2244 C-149 2244 -149 2244 -152 2240 C-152.72174 2236.94825 -153.33238 2233.95697 -153.875 2230.875 C-158.31966 2208.22964 -173.23048 2195.41583 -194.31641 2186.74219 C-198.88492 2185.4787 -202.42965 2185.85741 -207 2187 C-209.78642 2192.34138 -209.29259 2198.33842 -209.28711 2204.21167 C-209.29394 2205.33295 -209.30078 2206.45423 -209.30782 2207.60948 C-209.32139 2210.04189 -209.33045 2212.47432 -209.33553 2214.90676 C-209.34384 2218.77293 -209.36438 2222.63886 -209.38806 2226.50496 C-209.43627 2234.73244 -209.46914 2242.95994 -209.5 2251.1875 C-209.53583 2260.6829 -209.57814 2270.17819 -209.63594 2279.67349 C-209.65577 2283.45244 -209.66428 2287.23131 -209.67224 2291.0103 C-209.79416 2319.1705 -211.30631 2343.92438 -232 2365 C-232.66516 2365.68965 -233.33031 2366.3793 -234.01562 2367.08984 C-247.45826 2380.04506 -265.5766 2386.04545 -283.25 2390.59375 C-287.3163 2392.11861 -289.32572 2393.60734 -292 2397 C-291.72019 2403.57553 -286.26016 2406.17156 -281 2409 C-254.1266 2422.2679 -219.62252 2428.2273 -190 2422 C-189.05302 2421.81019 -188.10604 2421.62037 -187.13037 2421.4248 C-153.56257 2414.61838 -127.80715 2400.68256 -103 2377 C-102.26008 2376.32453 -101.52016 2375.64906 -100.75781 2374.95312 C-55.25846 2332.19469 -53.89868 2255.2238 -63 2198 C-63.28829 2196.13878 -63.57582 2194.27744 -63.86279 2192.41602 C-65.99515 2178.62488 -68.21387 2164.84864 -70.49066 2151.08066 C-70.83164 2149.01831 -71.17184 2146.95582 -71.51129 2144.89322 C-73.72749 2131.42745 -76.05153 2117.9882 -78.5 2104.5625 C-80.49026 2093.60052 -82.4241 2082.63617 -84.125 2071.625 C-85.44196 2063.20123 -86.8924 2054.81096 -88.5 2046.4375 C-88.68965 2045.4077 -88.87931 2044.3779 -89.07471 2043.31689 C-91.86076 2029.20414 -91.86076 2029.20414 -97.9375 2024.9375 C-101.74364 2024.05916 -104.10056 2024.01785 -107.92578 2024.35156 C-109.08215 2024.45171 -110.23852 2024.55185 -111.42993 2024.65503 C-115.88113 2025.08514 -120.32615 2025.55794 -124.77051 2026.05347 C-167.08269 2030.72348 -209.56883 2031.76671 -252 2028.1875 C-252.99162 2028.10482 -253.98324 2028.02214 -255.00491 2027.93695 C-267.14128 2026.89922 -279.03232 2025.32106 -291 2023 C-291.67362 2022.87621 -291.67362 2022.87621 -295.08252 2022.24976 C-325.53773 2016.63463 -354.92617 2008.64642 -384 1998 C-384.93376 1997.66114 -385.86753 1997.32228 -386.82959 1996.97314 C-415.70998 1986.44549 -443.81598 1973.10722 -470 1957 C-471.4402 1956.1425 -472.88164 1955.28709 -474.32422 1954.43359 C-495.82984 1941.63089 -516.13537 1926.78513 -535.10156 1910.46484 C-537.62499 1908.31891 -540.19177 1906.27432 -542.8125 1904.25 C-548.20109 1899.99028 -553.14497 1895.27395 -558.11646 1890.54199 C-561.30838 1887.50601 -564.52117 1884.52673 -567.86328 1881.65625 C-572.82173 1877.35236 -577.43217 1872.71376 -582.0625 1868.0625 C-582.92166 1867.20721 -583.78082 1866.35191 -584.66602 1865.4707 C-589.65694 1860.47216 -594.39378 1855.3541 -599 1850 C-600.57864 1848.28733 -602.1615 1846.57853 -603.75 1844.875 C-609.53231 1838.5258 -614.76989 1831.80612 -620 1825 C-621.10115 1823.58301 -622.20272 1822.16635 -623.30469 1820.75 C-629.54483 1812.6989 -635.45813 1804.55254 -641 1796 C-642.58183 1793.64483 -644.16527 1791.29073 -645.75 1788.9375 C-660.0019 1767.49427 -672.55051 1745.62272 -683.48438 1722.29688 C-685.53975 1717.9234 -687.74384 1713.64887 -690 1709.375 C-703.97777 1681.50487 -713.76328 1650.03044 -721.2876 1619.82422 C-721.77993 1617.87242 -722.28848 1615.92466 -722.81006 1613.98047 C-727.50236 1596.48248 -730.37538 1578.86367 -732.8125 1560.9375 C-732.95952 1559.85852 -733.10655 1558.77955 -733.25803 1557.66788 C-734.23179 1550.45209 -735.13636 1543.22973 -736 1536 C-736.10707 1535.13538 -736.21415 1534.27076 -736.32446 1533.37994 C-738.34352 1516.78343 -738.39874 1500.20002 -738.375 1483.5 C-738.37473 1482.7804 -738.37473 1482.7804 -738.37335 1479.13879 C-738.33457 1456.79249 -737.39734 1435.11222 -734 1413 C-733.78038 1411.47713 -733.56075 1409.95427 -733.33447 1408.38525 C-727.45549 1367.72332 -718.39823 1327.05694 -702.30615 1289.14111 C-700.38253 1284.51507 -698.59254 1279.83956 -696.79004 1275.16528 C-692.8232 1264.89025 -688.7085 1254.80713 -683.875 1244.90625 C-681.89294 1240.77697 -680.10585 1236.58936 -678.3125 1232.375 C-673.81871 1222.2269 -668.40533 1212.68728 -662.8125 1203.10986 C-660.97413 1199.95562 -659.1586 1196.78892 -657.34375 1193.62109 C-641.01944 1165.36707 -622.54534 1138.05508 -601.96484 1112.71484 C-598.88395 1108.8546 -595.93221 1104.91053 -593 1100.9375 C-588.20328 1094.4606 -583.10129 1088.31218 -577.80469 1082.23828 C-575.28495 1079.329 -572.84882 1076.37413 -570.4375 1073.375 C-566.33879 1068.32414 -561.98266 1063.54744 -557.5625 1058.77734 C-554.89814 1055.8896 -552.30619 1052.95031 -549.73438 1049.98047 C-547.72735 1047.68867 -545.67597 1045.44003 -543.625 1043.1875 C-540.65631 1039.90815 -537.84347 1036.56507 -535.10962 1033.08887 C-529.09889 1025.71914 -522.35629 1019.08699 -515.62109 1012.39062 C-514.24028 1011.01101 -512.85984 1009.63102 -511.47975 1008.25067 C-508.60425 1005.37673 -505.72546 1002.50614 -502.84399 999.63818 C-499.16858 995.97979 -495.49982 992.31482 -491.83328 988.64753 C-488.98956 985.80408 -486.14323 982.96325 -483.29604 980.12328 C-481.94279 978.7732 -480.59013 977.42253 -479.2381 976.07124 C-472.66418 969.50492 -466.09537 963.00722 -459 957 C-447.4233 946.50736 -447.4233 946.50736 -442.1875 941.1875 C-439.31472 938.31472 -436.33784 935.63641 -433.26562 932.98047 C-425.45111 926.1495 -417.92284 918.99726 -410.375 911.875 C-402.1725 904.14855 -394.0392 896.53666 -385.125 889.625 C-379.40716 885.19089 -374.079 880.49055 -368.79688 875.55078 C-366.26992 873.24617 -363.69304 871.10554 -361 869 C-355.03575 864.32197 -349.54801 859.1583 -344 854 C-342.06369 852.22787 -340.12618 850.45704 -338.1875 848.6875 C-295.85434 809.85892 -295.85434 809.85892 -300.64453 785.17188 C-300.72976 784.71644 -300.72976 784.71644 -301.16106 782.41168 C-301.52129 780.49493 -301.88539 778.57889 -302.25317 776.66357 C-302.80802 773.77333 -303.35137 770.88111 -303.89258 767.98828 C-310.00709 735.49646 -310.00709 735.49646 -317 732 C-328.31846 731.07987 -338.88316 733.85571 -349.8125 736.4375 C-350.2989 736.55046 -350.2989 736.55046 -352.76041 737.1221 C-370.02858 741.13407 -387.09445 745.64701 -404 751 C-405.34063 751.42394 -406.68125 751.84788 -408.0625 752.28467 C-427.34634 758.43904 -446.2997 765.25146 -465 773 C-466.1753 773.48662 -467.35061 773.97324 -468.56152 774.47461 C-496.16721 785.99375 -523.3555 798.81858 -549.40771 813.5376 C-552.16698 815.0942 -554.93638 816.63172 -557.70703 818.16797 C-583.52746 832.54523 -608.21513 848.46815 -632 866 C-632.35747 866.26329 -632.35747 866.26329 -634.1665 867.5957 C-642.62843 873.84487 -650.94439 880.23282 -659 887 C-660.05961 887.88559 -661.11922 888.77117 -662.21094 889.68359 C-668.01241 894.55873 -673.75548 899.48424 -679.35498 904.59058 C-681.0699 906.15274 -682.78998 907.70927 -684.51611 909.25903 C-692.80449 916.754 -700.73207 924.5787 -708.61987 932.4895 C-710.82292 934.69795 -713.03131 936.90095 -715.24023 939.10352 C-716.66699 940.53093 -718.09343 941.95865 -719.51953 943.38672 C-720.16759 944.03276 -720.81565 944.67879 -721.48335 945.34441 C-725.85548 949.73871 -729.94873 954.30791 -734 959 C-735.78513 960.94353 -737.57633 962.8815 -739.375 964.8125 C-743.5871 969.39609 -747.61101 974.07197 -751.51172 978.92188 C-753.92851 981.91156 -756.38917 984.86186 -758.85449 987.81152 C-767.28235 997.93146 -775.19373 1008.39645 -783 1019 C-783.57138 1019.76989 -784.14275 1020.53979 -784.73145 1021.33301 C-792.43644 1031.72111 -799.56507 1042.35651 -806.36084 1053.35889 C-808.14879 1056.23975 -809.95751 1059.10687 -811.76953 1061.97266 C-813.07562 1064.04421 -814.38161 1066.11582 -815.6875 1068.1875 C-816.28095 1069.12417 -816.8744 1070.06083 -817.48584 1071.02588 C-871.35961 1156.86544 -904.91136 1257.83247 -918 1358 C-918.14035 1359.0414 -918.28069 1360.0828 -918.42529 1361.15576 C-922.33122 1390.27309 -923.38233 1419.32978 -923.3125 1448.6875 C-923.31068 1450.28529 -923.30885 1451.88309 -923.30698 1453.5293 C-923.25855 1478.81601 -922.62466 1503.84425 -920 1529 C-919.91514 1529.82564 -919.83029 1530.65129 -919.74286 1531.50195 C-915.50693 1572.50993 -908.62648 1612.92267 -899 1653 C-898.64712 1654.49483 -898.29424 1655.98966 -897.93066 1657.52979 C-872.80577 1763.68424 -834.29928 1868.75004 -730.64844 2082.20703 C-727.65417 2087.58042 -724.82758 2093.03755 -722 2098.5 C-716.15955 2109.75602 -710.13333 2120.90114 -704 2132 C-703.46149 2132.97663 -702.92299 2133.95325 -702.36816 2134.95947 C-694.42066 2149.34896 -686.18356 2163.54515 -677.76562 2177.66406 C-674.48642 2183.16737 -671.25932 2188.69852 -668.0625 2194.25 C-660.54903 2207.27107 -652.72538 2220.07359 -644.73071 2232.80322 C-640.63301 2239.3421 -636.62606 2245.92676 -632.6875 2252.5625 C-628.51167 2259.58583 -624.1276 2266.41854 -619.54688 2273.1875 C-615.69873 2278.94791 -612.03118 2284.81884 -608.3457 2290.68408 C-597.91511 2307.26704 -587.30266 2323.7196 -576.5 2340.0625 C-575.285 2341.9042 -574.07016 2343.74599 -572.85547 2345.58789 C-548.73589 2382.14333 -548.73589 2382.14333 -540.75 2393.4375 C-540.17194 2394.25912 -539.59387 2395.08073 -538.99829 2395.92725 C-530.86883 2407.46795 -522.62406 2418.92492 -514.35156 2430.36328 C-512.15549 2433.39993 -509.96279 2436.43897 -507.77344 2439.48047 C-500.50248 2449.57681 -493.15212 2459.61175 -485.75732 2469.61768 C-484.0224 2471.96963 -482.29345 2474.32585 -480.56641 2476.68359 C-472.42588 2487.78789 -464.13659 2498.77154 -455.76123 2509.69971 C-454.24436 2511.68085 -452.73298 2513.6662 -451.22266 2515.65234 C-446.21033 2522.22442 -441.04729 2528.66191 -435.81567 2535.05981 C-432.47384 2539.15585 -429.20543 2543.29547 -426 2547.5 C-421.74179 2553.08329 -417.34116 2558.54109 -412.89551 2563.9751 C-409.28492 2568.39525 -405.75019 2572.86637 -402.25 2577.375 C-398.3831 2582.32508 -394.35346 2587.02843 -390.10547 2591.65234 C-387.31575 2594.76296 -384.74626 2598.0245 -382.16016 2601.30469 C-378.76637 2605.53925 -375.23075 2609.65192 -371.71484 2613.78516 C-369.31804 2616.62338 -366.96277 2619.48817 -364.625 2622.375 C-359.98084 2628.07879 -355.15961 2633.62343 -350.32812 2639.16797 C-347.16895 2642.79588 -344.05275 2646.45929 -340.9375 2650.125 C-336.99152 2654.74253 -332.95527 2659.24582 -328.8125 2663.6875 C-324.42352 2668.39568 -320.30815 2673.23518 -316.27734 2678.25 C-312.05509 2683.34858 -307.5002 2688.14761 -303 2693 C-298.35432 2698.05694 -293.82502 2703.16481 -289.5 2708.5 C-283.10996 2716.37661 -276.32199 2723.73772 -269.10938 2730.86328 C-266.59146 2733.41384 -264.25349 2736.08357 -261.91406 2738.79688 C-254.70044 2747.09991 -247.09201 2754.96521 -239.28076 2762.69995 C-236.12059 2765.84021 -233.02367 2768.99097 -230.125 2772.375 C-214.31516 2790.71442 -214.31516 2790.71442 -203 2789 C-196.67533 2785.18442 -191.52179 2780.95068 -186.36719 2775.69531 C-186.02672 2775.35391 -186.02672 2775.35391 -184.30374 2773.62619 C-182.87685 2772.19263 -181.45353 2770.75549 -180.03369 2769.31494 C-177.88045 2767.13053 -175.71671 2764.95698 -173.55078 2762.78516 C-172.15563 2761.38083 -170.76107 2759.9759 -169.36719 2758.57031 C-169.04939 2758.25039 -169.04939 2758.25039 -167.44113 2756.63138 C-163.11145 2752.23363 -159.04025 2747.66508 -155 2743 C-153.09672 2741.04234 -151.15137 2739.14615 -149.1875 2737.25 C-147.30601 2735.31476 -145.51772 2733.28968 -143.75 2731.25 C-139.40191 2726.24367 -134.69198 2721.64041 -129.96094 2717 C-125.41607 2712.50777 -121.16538 2707.84395 -117 2703 C-115.5043 2701.32948 -114.00496 2699.66219 -112.5 2698 C-103.45647 2687.96853 -94.69224 2677.69676 -85.94531 2667.40625 C-81.15762 2661.78537 -76.33079 2656.22918 -71.3125 2650.8125 C-67.20917 2646.37015 -63.30942 2641.82531 -59.51562 2637.11719 C-56.3533 2633.19865 -53.14435 2629.31961 -49.9375 2625.4375 C-45.64078 2620.22793 -41.37846 2614.99604 -37.17969 2609.70703 C-34.80177 2606.75381 -32.38659 2603.83347 -29.96826 2600.91333 C-25.16889 2595.11785 -20.42135 2589.31074 -15.875 2583.3125 C-12.3968 2578.73382 -8.76572 2574.34544 -5 2570 C0.60687 2563.52557 5.84005 2556.83277 11 2550 C16.20454 2543.17533 21.46524 2536.41359 26.875 2529.75 C31.6821 2523.77493 36.13279 2517.63417 40.50171 2511.33472 C43.81177 2506.59476 47.29043 2502.05304 50.9375 2497.5625 C57.65352 2489.29258 63.8306 2480.67936 70 2472 C71.66643 2469.6665 73.33308 2467.33315 75 2465 C75.79793 2463.8798 76.59586 2462.75961 77.41797 2461.60547 C79.28628 2458.99661 81.16289 2456.39538 83.05078 2453.80078 C88.62879 2446.12902 94.11737 2438.41579 99.4375 2430.5625 C103.80256 2424.12355 108.29656 2417.80548 112.9375 2411.5625 C125.08753 2395.2012 136.49744 2378.36967 147.75195 2361.38379 C150.19558 2357.70561 152.65139 2354.03578 155.10938 2350.36719 C170.56956 2327.2787 170.56956 2327.2787 177.85547 2315.4375 C180.93964 2310.49383 184.19436 2305.66967 187.44141 2300.83203 C198.7986 2283.82226 209.61189 2266.45059 220.43359 2249.09766 C222.2719 2246.16253 224.1172 2243.23283 225.97266 2240.30859 C231.36187 2231.81456 236.66637 2223.28766 241.80859 2214.64062 C244.05152 2210.91441 246.36211 2207.23775 248.6875 2203.5625 C255.39623 2192.86787 261.68373 2181.92941 268 2171 C268.62632 2169.91767 269.25265 2168.83534 269.89795 2167.72021 C273.68959 2161.16697 277.4718 2154.60838 281.24658 2148.04541 C282.86764 2145.22989 284.49376 2142.41736 286.12109 2139.60547 C292.82408 2127.99048 299.23379 2116.23282 305.5625 2104.41016 C308.67815 2098.59005 311.83176 2092.7916 315 2087 C315.98585 2085.1915 316.97152 2083.3829 317.95703 2081.57422 C319.50132 2078.74111 321.04942 2075.91034 322.60693 2073.08447 C330.86926 2058.09331 338.55208 2042.87696 345.96582 2027.45361 C349.49571 2020.12015 353.06509 2012.8458 356.9375 2005.6875 C369.57253 1982.09924 380.36462 1957.39213 391.56348 1933.10107 C392.9228 1930.16666 394.2985 1927.24058 395.67969 1924.31641 C408.00262 1898.07134 418.70342 1870.99776 428.91602 1843.87109 C429.95932 1841.10774 431.01685 1838.35025 432.07812 1835.59375 C439.86925 1815.23976 446.92254 1794.6105 454 1774 C454.28375 1773.17385 454.56751 1772.3477 454.85986 1771.49652 C462.07327 1750.46539 468.74528 1729.32637 474.86377 1707.95117 C475.94343 1704.19674 477.04415 1700.44922 478.15234 1696.70312 C487.12084 1666.21918 493.33469 1635.21833 499.27284 1604.02899 C500.39237 1598.14924 501.54211 1592.27727 502.72656 1586.41016 C508.29822 1557.94486 510.74136 1528.94365 513.68146 1500.11374 C513.88306 1498.14307 514.088 1496.17275 514.29755 1494.20291 C516.93568 1469.03114 516.31006 1443.23433 515 1418 C514.95005 1416.99904 514.9001 1415.99809 514.84863 1414.9668 C514.45009 1407.62046 513.77177 1400.31586 513 1393 C512.91577 1392.19605 512.83154 1391.3921 512.74475 1390.56378 C509.78925 1362.57578 505.53499 1335.2048 499.11719 1307.80078 C498.05549 1303.23844 497.037 1298.66871 496.03125 1294.09375 C491.41428 1273.38245 485.47495 1253.19975 479 1233 C478.54142 1231.544 478.08283 1230.08801 477.61035 1228.58789 C465.84455 1191.30598 451.28414 1155.56307 433 1121 C432.42347 1119.90736 431.84693 1118.81472 431.25293 1117.68896 C413.32504 1083.89356 392.5846 1051.73072 369.61133 1021.14941 C368.03877 1019.05172 366.47869 1016.94533 364.92188 1014.83594 C357.88328 1005.32754 350.51264 996.13358 343 987 C342.60426 986.51209 342.60426 986.51209 340.60156 984.04297 C331.50253 972.8252 322.20209 962.01492 311.89062 951.88672 C309.63052 949.62967 307.5026 947.36851 305.4375 944.9375 C299.01941 937.40183 291.85123 930.43917 284.3125 924.03125 C281.70462 921.74055 279.18192 919.36582 276.65771 916.98364 C269.98481 910.68862 263.17758 904.71904 256 899 C254.1162 897.45288 252.23245 895.9057 250.34961 894.35742 C230.20283 877.84208 208.93759 863.0183 187 849 C186.20304 848.48937 185.40607 847.97874 184.58496 847.45264 C179.08016 843.93033 173.55079 840.44935 168 837 C167.23317 836.5224 166.46634 836.0448 165.67627 835.55273 C152.90408 827.63607 139.76673 820.50032 126.49219 813.46484 C121.5671 810.85054 116.70616 808.15828 111.875 805.375 C107.1353 802.66218 102.33235 800.15182 97.43359 797.74219 C96.26135 797.16549 95.08911 796.5888 93.88135 795.99463 C91.54857 794.85425 89.21115 793.7233 86.86865 792.60303 C75.63779 787.12657 75.63779 787.12657 73 783 C72.97094 777.22851 74.62736 773.09366 77.3125 768.0625 C78.03309 766.67289 78.75367 765.28328 79.49609 763.85156 C79.89554 763.0836 80.29499 762.31564 80.70654 761.52441 C89.60949 744.14871 97.53381 726.31407 105.12549 708.33447 C106.1781 705.8437 107.24439 703.35915 108.3125 700.875 C108.90676 699.46992 109.50102 698.06484 110.11328 696.61719 C113.00038 691.08209 114.71777 688.32821 121.10156 687.41016 C127.12333 688.13527 131.86739 689.98048 137.375 692.4375 C138.48496 692.92122 139.59493 693.40494 140.73853 693.90332 C165.80498 704.97692 190.32272 717.20019 214 731 C214.98323 731.57283 215.96646 732.14565 216.97949 732.73584 C232.44627 741.81461 247.27768 751.76759 262 762 C262.82291 762.57025 263.64581 763.1405 264.49365 763.72803 C279.22613 773.95535 293.52243 784.65428 307.37891 796.03516 C310.33253 798.45349 313.31028 800.83031 316.3125 803.1875 C320.85803 806.80865 325.13449 810.69115 329.41016 814.625 C331.60294 816.63588 333.81719 818.61084 336.0625 820.5625 C340.76171 824.64919 345.37677 828.82782 350 833 C350.32069 833.27953 350.32069 833.27953 351.9436 834.69409 C359.91953 841.72112 367.39363 849.24231 374.89624 856.76587 C377.18947 859.06447 379.48801 861.35766 381.78711 863.65039 C383.26855 865.13249 384.74968 866.6149 386.23047 868.09766 C386.90668 868.77184 387.58289 869.44603 388.27959 870.14064 C392.72092 874.60358 396.8828 879.23619 401 884 C403.27079 886.45745 405.57353 888.88381 407.875 891.3125 C412.65764 896.40318 417.25731 901.56543 421.61719 907.02734 C423.98912 909.98643 426.4156 912.89613 428.84814 915.80542 C436.65028 925.16734 443.98825 934.83459 451.23779 944.62793 C452.87812 946.83595 454.53089 949.0337 456.19141 951.22656 C532.60013 1052.24148 587.21135 1169.86849 619 1349 C619.12472 1350.10021 619.24943 1351.20043 619.37793 1352.33398 C632.33952 1467.86815 622.52417 1585.24498 511 1940 C510.62639 1940.8699 510.25279 1941.73979 509.86786 1942.63605 C495.02101 1977.17321 478.98531 2011.08561 462.48099 2044.86253 C459.99245 2049.95793 457.51713 2055.05959 455.04779 2060.16432 C440.1088 2091.0375 424.48276 2121.42228 407.71484 2151.35156 C405.12206 2155.9801 402.55432 2160.62142 400.00391 2165.27344 C392.67973 2178.63285 385.22893 2191.89558 377.50391 2205.02734 C374.40106 2210.3021 371.34348 2215.60192 368.29492 2220.9082 C361.33402 2233.02428 354.24859 2245.05405 347 2257 C346.43394 2257.93473 345.86788 2258.86946 345.28467 2259.83252 C337.0696 2273.39422 328.77356 2286.89872 320.28125 2300.28906 C319.31234 2301.8176 318.34359 2303.34625 317.375 2304.875 C316.88314 2305.65118 316.39128 2306.42735 315.88452 2307.22705 C311.5071 2314.15537 307.22033 2321.13794 302.9375 2328.125 C293.62082 2343.30907 283.91449 2358.19875 274 2373 C272.29107 2375.5621 270.58273 2378.1246 268.875 2380.6875 C268.0625 2381.90625 268.0625 2381.90625 264 2388 C263.47874 2388.7848 262.95747 2389.56959 262.42041 2390.37817 C254.9069 2401.67656 247.2978 2412.91078 239.70508 2424.15601 C237.81605 2426.95402 235.92741 2429.7523 234.03906 2432.55078 C233.73444 2433.00219 233.73444 2433.00219 232.19286 2435.28661 C228.59349 2440.62448 225.01341 2445.97451 221.44922 2451.33594 C218.09358 2456.37802 214.69128 2461.37233 211.1875 2466.3125 C210.69234 2467.01069 210.19718 2467.70888 209.68701 2468.42822 C200.98886 2480.66996 192.1611 2492.81466 183.23315 2504.88965 C179.25857 2510.27141 175.33805 2515.68944 171.4375 2521.125 C162.57621 2533.44744 153.27751 2545.424 143.87891 2557.33984 C140.56954 2561.54727 137.28341 2565.77232 134 2570 C127.11059 2578.86754 120.1768 2587.69958 113.22656 2596.51953 C108.80618 2602.13478 104.40566 2607.76225 100.0625 2613.4375 C95.44422 2619.46103 90.70324 2625.38022 85.94922 2631.29688 C83.19705 2634.75258 80.4949 2638.24 77.8125 2641.75 C74.12145 2646.5718 70.34411 2651.30404 66.48047 2655.98828 C63.46921 2659.64447 60.48429 2663.32181 57.5 2667 C52.34752 2673.34503 47.18579 2679.68216 42 2686 C41.74162 2686.3151 41.74162 2686.3151 40.43408 2687.90967 C19.98503 2712.83942 19.98503 2712.83942 9.26562 2724.51953 C7.31394 2726.65629 5.39704 2728.81486 3.5 2731 C-0.12945 2735.17729 -3.86479 2739.25537 -7.59375 2743.34375 C-9.58649 2745.54353 -11.55338 2747.75955 -13.5 2750 C-17.13066 2754.17868 -20.86719 2758.25816 -24.59766 2762.34766 C-26.56942 2764.52461 -28.51365 2766.71839 -30.4375 2768.9375 C-34.25447 2773.33198 -38.2065 2777.59997 -42.15625 2781.875 C-44.26244 2784.1895 -46.33154 2786.52065 -48.38281 2788.88281 C-51.94974 2792.97457 -55.64499 2796.93218 -59.375 2800.875 C-66.15303 2808.07332 -72.83293 2815.34321 -79.3125 2822.8125 C-83.41363 2827.52545 -87.68156 2832.08338 -91.9375 2836.65625 C-94.13914 2839.06008 -96.30013 2841.47809 -98.4375 2843.9375 C-101.86986 2847.87794 -105.41268 2851.70074 -109 2855.5 C-110.16675 2856.7395 -111.33341 2857.97909 -112.5 2859.21875 C-113.17217 2859.93104 -113.84433 2860.64333 -114.53687 2861.3772 C-116.44149 2863.40529 -118.33784 2865.44116 -120.23071 2867.48022 C-129.04156 2876.95912 -138.05457 2886.21132 -147.21851 2895.34888 C-149.46392 2897.58885 -151.70383 2899.83423 -153.94336 2902.08008 C-155.39812 2903.53418 -156.85318 2904.98796 -158.30859 2906.44141 C-158.96396 2907.09879 -159.61932 2907.75618 -160.29454 2908.43349 C-164.7055 2912.82244 -169.2894 2916.93394 -174 2921 C-175.73345 2922.59954 -177.46308 2924.20323 -179.1875 2925.8125 C-199.95599 2944.64837 -199.95599 2944.64837 -210.8125 2941.6875 C-217.03439 2938.85245 -221.8795 2934.44884 -227 2930 C-228.74695 2928.60035 -230.49697 2927.20453 -232.25 2925.8125 C-238.64312 2920.58176 -244.61981 2914.92489 -250.61133 2909.24512 C-252.43904 2907.52724 -254.27849 2905.82185 -256.12305 2904.12207 C-266.11945 2894.88526 -275.79795 2885.35616 -285.40967 2875.7207 C-288.02066 2873.10429 -290.63704 2870.49334 -293.25391 2867.88281 C-294.94043 2866.19563 -296.62663 2864.50814 -298.3125 2862.82031 C-299.08239 2862.05244 -299.85229 2861.28458 -300.64551 2860.49344 C-305.30083 2855.81806 -309.69096 2850.9963 -314 2846 C-315.48065 2844.48089 -316.97745 2842.9771 -318.5 2841.5 C-321.91101 2838.19081 -325.02789 2834.70038 -328.13965 2831.11426 C-331.13689 2827.70795 -334.25722 2824.42066 -337.375 2821.125 C-344.15303 2813.92668 -350.83293 2806.65679 -357.3125 2799.1875 C-360.36364 2795.67939 -363.51935 2792.27767 -366.6875 2788.875 C-371.98438 2783.16151 -377.06799 2777.29501 -382.11328 2771.35938 C-385.5915 2767.31165 -389.17323 2763.36899 -392.77734 2759.43359 C-403.87696 2747.28059 -414.38285 2734.57254 -425 2722 C-426.8331 2719.83314 -428.66643 2717.66647 -430.5 2715.5 C-430.95246 2714.96504 -430.95246 2714.96504 -433.24219 2712.25781 C-435.0997 2710.06353 -436.95911 2707.87085 -438.82031 2705.67969 C-443.83858 2699.7668 -448.80196 2693.81734 -453.69531 2687.80078 C-456.2203 2684.73228 -458.79491 2681.70979 -461.375 2678.6875 C-466.08041 2673.14674 -470.58146 2667.47315 -475.04688 2661.73828 C-478.32625 2657.58701 -481.68524 2653.50913 -485.0625 2649.4375 C-490.01052 2643.46573 -494.81493 2637.41099 -499.51172 2631.23828 C-503.26957 2626.34776 -507.14342 2621.55181 -511.00391 2616.74219 C-515.71212 2610.86152 -520.3591 2604.93385 -525 2599 C-525.26676 2598.66049 -525.26676 2598.66049 -526.6167 2596.94238 C-535.02829 2586.23672 -543.21163 2575.38701 -551.24561 2564.39551 C-553.58786 2561.19732 -555.94461 2558.00996 -558.30078 2554.82202 C-563.95263 2547.17213 -569.54997 2539.48542 -575.10791 2531.76709 C-581.33662 2523.1275 -587.66954 2514.56515 -594 2506 C-601.99452 2495.18337 -609.9542 2484.34473 -617.80859 2473.42578 C-619.87123 2470.55937 -621.94635 2467.70286 -624.03516 2464.85547 C-633.27276 2452.2301 -642.01242 2439.27774 -650.76172 2426.31104 C-653.229 2422.66124 -655.71146 2419.02216 -658.19946 2415.38647 C-695.98232 2360.16283 -695.98232 2360.16283 -713 2333 C-714.2655 2330.99081 -715.53113 2328.98169 -716.79688 2326.97266 C-724.28198 2315.06501 -731.63748 2303.08126 -738.92969 2291.05469 C-741.28618 2287.16896 -743.66566 2283.29851 -746.0625 2279.4375 C-750.00262 2273.05351 -753.79244 2266.5831 -757.59668 2260.11768 C-762.10379 2252.47602 -766.69681 2244.88897 -771.3125 2237.3125 C-783.48087 2217.31025 -795.51061 2197.27953 -806.57764 2176.64307 C-808.47975 2173.10852 -810.40854 2169.58885 -812.3374 2166.06885 C-824.03821 2144.70064 -835.4824 2123.20913 -846.5708 2101.51685 C-849.85413 2095.09664 -853.15417 2088.68926 -856.55167 2082.32881 C-860.27769 2075.3521 -863.80089 2068.35657 -867 2061.125 C-871.55543 2051.00614 -876.36844 2041.02765 -881.25 2031.0625 C-904.3773 1983.75847 -925.16195 1935.16756 -944 1886 C-944.55623 1884.55303 -945.11246 1883.10605 -945.68555 1881.61523 C-960.54833 1842.8819 -973.80944 1803.72539 -985.54053 1763.93262 C-986.88755 1759.36793 -988.26315 1754.81223 -989.64453 1750.25781 C-1000.23311 1715.15689 -1008.97464 1679.58619 -1016.43884 1643.69781 C-1016.8195 1641.86776 -1017.20146 1640.03797 -1017.58459 1638.20844 C-1023.00832 1612.29773 -1027.55281 1586.49305 -1030.521 1560.18066 C-1030.94651 1556.46685 -1031.40987 1552.76115 -1031.89453 1549.05469 C-1040.66177 1480.33354 -1038.80573 1407.57343 -1030 1339 C-1029.83693 1337.7198 -1029.67387 1336.4396 -1029.50586 1335.12061 C-1024.33965 1295.93663 -1015.45814 1256.80091 -1004 1219 C-1003.56188 1217.54932 -1003.12376 1216.09864 -1002.67236 1214.604 C-982.85641 1149.43328 -958.12608 1085.00222 -922.59229 1026.62451 C-920.98241 1023.971 -919.40007 1021.30274 -917.82422 1018.62891 C-912.54762 1009.69927 -907.101 1000.93665 -901.27344 992.35156 C-899.88111 990.29896 -898.50673 988.23386 -897.16406 986.14844 C-890.94199 976.50286 -883.8611 967.49658 -876.85791 958.41309 C-875.29824 956.38736 -873.74765 954.35465 -872.19922 952.32031 C-867.21877 945.78297 -862.09007 939.37655 -856.88818 933.01489 C-853.34642 928.6785 -849.87347 924.29621 -846.4375 919.875 C-837.62772 908.63362 -828.20462 898.01109 -818.41016 887.62891 C-815.38336 884.40795 -812.40698 881.14861 -809.4375 877.875 C-802.91629 870.77865 -796.06781 864.01409 -789.20874 857.24561 C-788.33548 856.38081 -787.46222 855.51601 -786.5625 854.625 C-786.17127 854.23957 -786.17127 854.23957 -784.19141 852.28906 C-782 850 -782 850 -779.94995 847.42041 C-778.16712 845.20744 -776.40744 843.46925 -774.23828 841.64844 C-770.09222 838.10179 -766.13923 834.38523 -762.1875 830.625 C-756.87187 825.60482 -751.48341 820.78901 -745.76172 816.23047 C-742.50534 813.6005 -739.35038 810.86663 -736.1875 808.125 C-730.45426 803.1903 -724.59076 798.47422 -718.61328 793.83984 C-715.46284 791.36377 -712.37195 788.82925 -709.29272 786.26562 C-700.88815 779.30239 -692.12988 773.07645 -683.04688 767.03369 C-679.50017 764.66638 -675.96923 762.27632 -672.4375 759.88672 C-645.71864 741.8657 -618.38992 725.27285 -590 710 C-589.01258 709.46568 -588.02516 708.93137 -587.00781 708.38086 C-512.20903 668.02888 -428.27643 639.35892 -344.41016 625.22656 C-343.70311 625.10668 -343.70311 625.10668 -340.125 624.5 C-339.50754 624.40203 -339.50754 624.40203 -336.38281 623.90625 C-332.13218 622.76751 -328.04915 621.0983 -326 617 C-325.55683 607.81642 -326.01183 598.64884 -326.65625 589.48828 C-330.40503 536.08716 -331.36013 481.39812 -327 428 C-326.9293 427.12418 -326.85861 426.24837 -326.78577 425.34601 C-324.6508 399.18889 -321.35267 373.21536 -317.5625 347.25 C-317.38154 345.99796 -317.20058 344.74592 -317.01413 343.45593 C-313.48296 319.20511 -308.80683 295.20385 -302.8125 271.4375 C-302.43795 269.9492 -302.06339 268.46089 -301.67749 266.92749 C-290.41824 223.00791 -275.49913 180.67121 -255.47754 140.00195 C-254.02577 137.05236 -252.58676 134.09679 -251.14844 131.14062 C-233.49588 95.08401 -210.54949 62.05539 -184 32 C-183.24203 31.1402 -182.48406 30.28039 -181.70312 29.39453 C-179.48923 26.91014 -177.25053 24.45129 -175 22 C-174.45618 21.40574 -173.91235 20.81148 -173.35205 20.19922 C-165.25048 11.36827 -156.97128 2.96169 -148 -5 C-147.21883 -5.7309 -146.43766 -6.4618 -145.63281 -7.21484 C-93.37013 -55.87017 -45.14282 -57.369 0 0 Z M-108 215 C-109.09441 215.88043 -110.18883 216.76086 -111.31641 217.66797 C-117.45727 222.73296 -123.04203 227.78171 -128 234 C-128.90234 235.08926 -129.80469 236.17852 -130.73438 237.30078 C-147.45273 257.73197 -160.11853 280.52175 -172 304 C-172.39542 304.77473 -172.79084 305.54945 -173.19824 306.34766 C-211.55473 382.04502 -228.81092 471.91202 -229.23828 556.35938 C-229.24808 557.96731 -229.25787 559.57524 -229.26796 561.2319 C-229.29531 566.4046 -229.30665 571.57724 -229.3125 576.75 C-229.31365 577.63278 -229.3148 578.51557 -229.31599 579.4251 C-229.34053 606.55105 -228.77476 633.38776 -225.33905 660.32678 C-224.97289 663.21378 -224.62063 666.10228 -224.27002 668.99121 C-218.29917 717.93444 -218.29917 717.93444 -213 725 C-203.32481 725.56913 -195.79604 714.91072 -189.5 708.5 C-184.77726 703.69124 -180.00185 699.05942 -174.89307 694.66162 C-167.66013 688.31298 -160.88134 681.27249 -154.65625 673.93359 C-152.74014 671.69663 -150.74487 669.54196 -148.75 667.375 C-144.2227 662.35826 -140.07852 657.08732 -135.9375 651.75 C-133.4505 648.57511 -130.91992 645.44405 -128.35767 642.32983 C-121.47533 633.96129 -114.94772 625.35897 -108.48438 616.66406 C-105.73021 612.96176 -102.91475 609.31502 -100.0625 605.6875 C-88.07897 590.15478 -77.21257 573.74051 -67 557 C-66.19691 555.68902 -65.39383 554.37805 -64.56641 553.02734 C-13.09284 467.23807 51.69255 326.79591 -1.875 228.5 C-5.70002 222.17174 -10.00494 216.44915 -15 211 C-15.5891 210.35547 -16.1782 209.71094 -16.78516 209.04688 C-42.83673 183.62512 -82.87284 194.7036 -108 215 Z M-270.4375 1082.1875 C-271.29344 1082.91453 -272.14937 1083.64156 -273.03125 1084.39062 C-273.52109 1084.82117 -273.52109 1084.82117 -276 1087 C-277.83244 1088.58546 -279.66489 1090.17091 -281.49756 1091.7561 C-282.79663 1092.88204 -284.09382 1094.01016 -285.38916 1095.14038 C-289.14338 1098.41381 -292.93983 1101.61786 -296.8125 1104.75 C-301.16582 1108.27381 -305.3208 1111.96763 -309.45703 1115.74219 C-312.13777 1118.12232 -314.89504 1120.37732 -317.6875 1122.625 C-322.09681 1126.19208 -326.02992 1129.95501 -330 1134 C-331.95306 1135.70995 -333.90667 1137.41927 -335.86597 1139.12207 C-339.16836 1142.02814 -342.36466 1145.04239 -345.5625 1148.0625 C-346.96601 1149.38296 -348.36966 1150.70327 -349.77344 1152.02344 C-350.47694 1152.68569 -351.18045 1153.34795 -351.90527 1154.03027 C-355.15918 1157.09001 -358.42247 1160.13965 -361.6875 1163.1875 C-362.78449 1164.2123 -363.88148 1165.23711 -365.01172 1166.29297 C-367.22235 1168.35759 -369.44608 1170.40465 -371.68652 1172.43701 C-380.85405 1180.79206 -389.64627 1189.49322 -398.4043 1198.27393 C-400.88818 1200.76321 -403.37743 1203.24706 -405.86719 1205.73047 C-407.47168 1207.33562 -409.07585 1208.94107 -410.67969 1210.54688 C-411.0459 1210.91207 -411.0459 1210.91207 -412.89914 1212.76019 C-417.46872 1217.3504 -421.76784 1222.0969 -426 1227 C-427.27305 1228.28949 -428.56056 1229.56524 -429.875 1230.8125 C-433.78053 1234.65806 -437.16384 1238.81762 -440.58984 1243.08984 C-443.08563 1246.10339 -445.70124 1248.95617 -448.375 1251.8125 C-454.32628 1258.24253 -459.65443 1265.06501 -465 1272 C-466.07877 1273.36223 -467.15958 1274.72285 -468.24219 1276.08203 C-481.85562 1293.24086 -494.25298 1311.25347 -505.71533 1329.91406 C-506.8797 1331.80466 -508.06189 1333.68426 -509.24609 1335.5625 C-537.73414 1381.56155 -556.63402 1434.78841 -566 1488 C-566.26297 1489.40121 -566.52594 1490.80242 -566.79688 1492.24609 C-578.14984 1557.17812 -573.22284 1624.39688 -553 1687 C-552.67951 1687.99596 -552.35901 1688.99192 -552.02881 1690.01807 C-538.57646 1731.01536 -516.49424 1770.04982 -489.08594 1803.25781 C-487.26273 1805.46874 -485.45061 1807.68903 -483.66406 1809.92969 C-474.28639 1821.67792 -463.72087 1832.36076 -453.125 1843 C-452.34077 1843.78891 -451.55653 1844.57781 -450.74854 1845.39062 C-445.99008 1850.13596 -441.10095 1854.62475 -436 1859 C-435.03578 1859.84562 -434.07156 1860.69125 -433.07812 1861.5625 C-380.4067 1906.95887 -314.06939 1935.20785 -246 1948 C-244.96891 1948.19529 -243.93782 1948.39059 -242.87549 1948.5918 C-239.79511 1949.16422 -236.71192 1949.71406 -233.625 1950.25 C-232.75948 1950.40146 -231.89395 1950.55293 -231.0022 1950.70898 C-212.96698 1953.64592 -194.92732 1954.40334 -176.6875 1954.375 C-176.14643 1954.37539 -176.14643 1954.37539 -173.40829 1954.37738 C-119.96499 1954.33114 -119.96499 1954.33114 -109.5625 1946.0625 C-104.69295 1936.51817 -109.39302 1923.10677 -111.32422 1913.0625 C-111.67184 1911.21493 -112.01857 1909.36719 -112.36446 1907.51929 C-113.27607 1902.66189 -114.19947 1897.80681 -115.12555 1892.95215 C-116.04826 1888.10481 -116.96032 1883.25547 -117.87305 1878.40625 C-119.28226 1870.92644 -120.69462 1863.44724 -122.11084 1855.96875 C-122.27637 1855.09444 -122.4419 1854.22014 -122.61244 1853.31934 C-123.32419 1849.56145 -124.03741 1845.80385 -124.75397 1842.04688 C-127.35322 1828.4152 -129.70359 1814.76345 -131.88672 1801.05859 C-134.57642 1784.19962 -137.67363 1767.43995 -140.91937 1750.68024 C-145.36245 1727.70819 -149.66606 1704.7282 -153.375 1681.625 C-157.10256 1658.43056 -161.49116 1635.37715 -165.9375 1612.3125 C-170.6117 1588.05861 -175.20103 1563.80561 -179.25 1539.4375 C-179.43998 1538.29589 -179.62995 1537.15429 -179.82568 1535.97809 C-180.20824 1533.67881 -180.59076 1531.37952 -180.97324 1529.08023 C-181.16383 1527.93485 -181.35442 1526.78947 -181.55078 1525.60938 C-181.74129 1524.46375 -181.9318 1523.31813 -182.12808 1522.13779 C-184.54451 1507.65897 -187.07121 1493.19956 -189.63196 1478.74564 C-190.16455 1475.732 -190.69366 1472.71774 -191.21912 1469.70285 C-191.9482 1465.52289 -192.68929 1461.34524 -193.43359 1457.16797 C-193.6488 1455.92094 -193.86401 1454.67391 -194.08574 1453.3891 C-196.42702 1440.42163 -196.42702 1440.42163 -201.125 1436 C-208.46217 1433.44794 -216.51406 1438.43044 -222.875 1441.875 C-223.77976 1442.35824 -224.68452 1442.84147 -225.6167 1443.33936 C-239.26083 1450.7326 -252.29424 1458.76817 -264 1469 C-265.11762 1469.92426 -266.23523 1470.84852 -267.38672 1471.80078 C-316.38853 1512.64446 -340.3867 1576.24701 -330 1639 C-323.28225 1675.17509 -308.40287 1708.35848 -284 1736 C-283.35031 1736.76055 -282.70062 1737.52109 -282.03125 1738.30469 C-271.89849 1750.1416 -260.13574 1759.45732 -247.75 1768.83594 C-242 1773.3608 -242 1773.3608 -242 1777 C-262.75067 1787.37534 -308.7513 1758.51226 -325.57373 1747.57227 C-333.34172 1742.40376 -340.91256 1737.0783 -348 1731 C-349.04672 1730.14664 -350.09344 1729.29328 -351.17188 1728.41406 C-396.50952 1690.83419 -420.84652 1636.31276 -430 1579 C-430.22559 1577.6207 -430.45117 1576.24141 -430.68359 1574.82031 C-433.93503 1551.09607 -432.70382 1526.58752 -429 1503 C-428.83903 1501.96279 -428.67806 1500.92558 -428.51221 1499.85693 C-417.13303 1429.16615 -384.65072 1366.75162 -330 1320 C-329.09895 1319.2098 -328.19789 1318.41961 -327.26953 1317.60547 C-302.00072 1295.73145 -273.67769 1277.28614 -243.16235 1263.67798 C-236.61397 1260.66217 -231.72927 1258.31006 -228 1252 C-227.53301 1244.16603 -228.64806 1236.86689 -230.01953 1229.16797 C-230.12671 1228.54737 -230.12671 1228.54737 -230.66908 1225.40677 C-231.37521 1221.33218 -232.09363 1217.25986 -232.8125 1213.1875 C-233.30995 1210.33432 -233.80685 1207.48105 -234.30322 1204.62769 C-238.18106 1182.40089 -242.16447 1160.1924 -246.2063 1137.99487 C-246.42009 1136.81929 -246.63387 1135.64371 -246.85414 1134.43251 C-247.27532 1132.11767 -247.69746 1129.803 -248.12059 1127.48851 C-249.23741 1121.34529 -250.30793 1115.19716 -251.3252 1109.03662 C-251.54435 1107.72123 -251.7635 1106.40584 -251.98929 1105.05058 C-252.40705 1102.53005 -252.81754 1100.00829 -253.21945 1097.48518 C-255.55292 1083.44708 -255.55292 1083.44708 -260 1079 C-264.69668 1078.46526 -266.89478 1079.12472 -270.4375 1082.1875 Z M-113 1418 C-113.32631 1427.11882 -110.98143 1436.51645 -109.36244 1445.43716 C-108.55999 1449.8628 -107.77742 1454.29198 -106.99219 1458.7207 C-106.82775 1459.64563 -106.66332 1460.57057 -106.4939 1461.52353 C-104.69136 1471.68709 -102.97988 1481.86551 -101.28125 1492.04688 C-101.12643 1492.97424 -100.97161 1493.9016 -100.8121 1494.85707 C-100.02252 1499.58872 -99.2345 1504.32062 -98.44775 1509.05273 C-97.66029 1513.78888 -96.86989 1518.52453 -96.07872 1523.26006 C-92.42493 1545.13812 -88.8475 1567.02671 -85.39844 1588.93805 C-83.57685 1600.4942 -81.66489 1612.03191 -79.6875 1623.5625 C-79.51298 1624.58193 -79.33846 1625.60136 -79.15865 1626.65169 C-78.75317 1629.01416 -78.34542 1631.37623 -77.9375 1633.73828 C-75.66827 1646.90558 -73.42491 1660.07726 -71.1875 1673.25 C-71.08202 1673.87027 -71.08202 1673.87027 -70.54822 1677.00922 C-68.1339 1691.21574 -65.75484 1705.42711 -63.45312 1719.65234 C-63.2448 1720.93907 -63.03647 1722.2258 -62.82182 1723.55151 C-62.61403 1724.83502 -62.40623 1726.11852 -62.19214 1727.44092 C-61.77402 1730.02313 -61.35581 1732.60532 -60.9375 1735.1875 C-60.73058 1736.46498 -60.52365 1737.74246 -60.31046 1739.05865 C-57.40584 1756.94197 -54.23898 1774.75438 -50.81271 1792.54456 C-47.88194 1807.79759 -45.3447 1823.08397 -43 1838.4375 C-40.30363 1856.0674 -37.38483 1873.64116 -34.1875 1891.1875 C-33.99841 1892.23928 -33.80932 1893.29107 -33.6145 1894.37473 C-33.07818 1897.34908 -32.53125 1900.32126 -31.98047 1903.29297 C-31.82451 1904.16145 -31.66855 1905.02994 -31.50786 1905.92474 C-29.06193 1918.87558 -29.06193 1918.87558 -24.9375 1923.125 C-17.60238 1925.30993 -9.2073 1921.15018 -2.5625 1918.0625 C-1.7085 1917.67135 -0.85449 1917.2802 0.02539 1916.8772 C25.00448 1905.18373 48.23836 1889.20887 68 1870 C68.6397 1869.38608 69.27939 1868.77217 69.93848 1868.13965 C98.99036 1840.2014 120.85254 1804.65712 135 1767 C135.33081 1766.12988 135.66161 1765.25977 136.00244 1764.36328 C139.97312 1753.75314 142.87381 1742.99711 145.3125 1731.9375 C145.55517 1730.85114 145.79783 1729.76479 146.04785 1728.64551 C149.58155 1711.72673 150.33371 1694.78556 150.26074 1677.56421 C150.25002 1674.56799 150.26072 1671.57237 150.27344 1668.57617 C150.28686 1651.65003 149.48928 1634.70163 145.8125 1618.125 C145.59602 1617.13146 145.37954 1616.13791 145.15649 1615.11426 C135.59874 1572.64279 116.10753 1532.25091 88 1499 C86.43496 1497.0437 84.87218 1495.08558 83.3125 1493.125 C76.64013 1484.98617 69.07008 1477.74242 61 1471 C60.43539 1470.52176 60.43539 1470.52176 57.57812 1468.10156 C23.60112 1439.6611 -16.35959 1421.58865 -60 1414 C-60.88317 1413.83774 -61.76634 1413.67548 -62.67627 1413.5083 C-73.28627 1411.58408 -83.7139 1410.71619 -94.5 1410.625 C-95.5692 1410.61106 -96.63839 1410.59712 -97.73999 1410.58276 C-105.19095 1410.62882 -109.42703 1410.85407 -113 1418 Z " fill="url(#mmGold)" transform="translate(1130,142)"/></g>
</svg>
