<svg xmlns="http://www.w3.org/2000/svg" viewBox="0 0 1848 3176" role="img" aria-label="MusicalMap">
<title>MusicalMap</title>
<defs>
<linearGradient id="mmGold" x1="0" y1="0" x2="0.85" y2="1">
<stop offset="0" stop-color="#ead29a"/>
<stop offset="0.5" stop-color="#c4a25c"/>
<stop offset="1" stop-color="#9a7430"/>
</linearGradient>
</defs>
<g><path d="M0 0 C0.92168 0.89332 1.84336 1.78664 2.79297 2.70703 C25.43259 25.00415 43.6766 52.28545 59 80 C59.54688 80.9792 60.09377 81.95841 60.65723 82.96729 C82.08063 121.48457 97.61772 162.0777 111 204 C111.17717 204.5518 111.17717 204.5518 112.07373 207.34424 C121.95653 238.47026 127.60348 270.84467 133 303 C133.20609 304.19303 133.41218 305.38605 133.62451 306.61523 C153.12051 420.83284 140.53695 542.93821 101.98047 655.15576 C101.08412 657.75597 100.20984 660.36225 99.34375 662.97266 C88.73759 694.34921 74.9937 724.45949 59.34375 753.62109 C57.75825 756.58334 56.19339 759.54833 54.65625 762.53516 C40.64456 789.69553 24.69982 816.08351 7 841 C6.50323 841.70254 6.00646 842.40508 5.49463 843.12891 C-2.18594 853.97206 -10.20071 864.51819 -18.41016 874.96484 C-20.69738 877.89271 -22.94015 880.85397 -25.1875 883.8125 C-29.41144 889.31747 -33.84292 894.61682 -38.35547 899.88672 C-40.74573 902.70066 -43.06723 905.55595 -45.375 908.4375 C-49.99566 914.12191 -54.98375 919.43772 -59.99219 924.77734 C-63.41849 928.44839 -66.71143 932.2055 -70 936 C-76.63267 943.59745 -83.63209 950.78797 -90.77515 957.90552 C-92.56676 959.69175 -94.35293 961.48329 -96.13867 963.27539 C-101.93515 969.06538 -107.77593 974.67425 -114 980 C-115.35198 981.31442 -116.69026 982.64348 -118 984 C-121.09623 987.13815 -124.31737 990.06745 -127.65625 992.94922 C-130.70283 995.61497 -133.69833 998.33253 -136.6875 1001.0625 C-137.76387 1002.04348 -138.84023 1003.02445 -139.94922 1004.03516 C-151.97536 1015.72253 -149.28651 1027.02962 -146.6875 1042.4375 C-146.47416 1043.79811 -146.26082 1045.15871 -146.04102 1046.56055 C-145.93306 1047.20991 -145.93306 1047.20991 -145.38672 1050.49609 C-145.28984 1051.08483 -145.28984 1051.08483 -144.79956 1054.06421 C-144 1057 -144 1057 -141 1060 C-135.80655 1059.87406 -132.96942 1058.72206 -129.125 1055.3125 C-128.18656 1054.50168 -127.24812 1053.69086 -126.28125 1052.85547 C-125.19844 1051.91316 -124.11563 1050.97086 -123 1050 C-120.94854 1048.29644 -118.88546 1046.6077 -116.8208 1044.92017 C-105.34183 1035.53559 -93.99353 1026.06121 -83.16797 1015.92188 C-80.96218 1013.88744 -78.71473 1011.89765 -76.43701 1009.94409 C-71.35458 1005.50338 -66.60515 1000.74869 -61.83984 995.97266 C-60.89114 995.02491 -59.94243 994.07716 -58.96498 993.10069 C-56.96948 991.10587 -54.97524 989.1098 -52.98218 987.11255 C-49.94692 984.07194 -46.90636 981.03669 -43.86523 978.00195 C-41.91895 976.05501 -39.97298 974.10775 -38.02734 972.16016 C-37.12612 971.26096 -36.2249 970.36176 -35.29637 969.43532 C-30.32402 964.44463 -25.58469 959.34899 -21 954 C-19.42136 952.28733 -17.8385 950.57853 -16.25 948.875 C-11.45148 943.61844 -7.07617 938.0969 -2.71875 932.47266 C-0.20389 929.26043 2.37345 926.12111 5 923 C10.49176 916.45479 15.74832 909.73839 21 903 C22.12834 901.56856 23.25726 900.13759 24.38672 898.70703 C44.27516 873.44684 62.02801 846.56503 78.41797 818.92188 C84.86772 808.07506 84.86772 808.07506 88.5625 803.0625 C92.67358 797.28831 95.6587 791.03862 98.71729 784.65967 C100.19347 781.59884 101.69621 778.55165 103.19922 775.50391 C109.26216 763.14932 115.07739 750.73938 120.4375 738.0625 C131.364 712.227 131.364 712.227 137 708 C144.04495 708.06214 149.96004 710.74078 156.3125 713.5 C157.42045 713.97558 158.5284 714.45117 159.66992 714.94116 C181.60471 724.49936 203.31473 734.96331 224 747 C225.13438 747.63422 226.26875 748.26844 227.4375 748.92188 C245.93917 759.28624 263.6023 770.89407 281 783 C281.77892 783.54044 282.55783 784.08088 283.36035 784.6377 C298.12957 794.90214 312.48003 805.61945 326.37891 817.03516 C329.33253 819.45349 332.31028 821.83031 335.3125 824.1875 C339.85803 827.80865 344.13449 831.69115 348.41016 835.625 C350.60294 837.63588 352.81719 839.61084 355.0625 841.5625 C359.76171 845.64919 364.37677 849.82782 369 854 C369.32069 854.27953 369.32069 854.27953 370.9436 855.69409 C378.91953 862.72112 386.39363 870.24231 393.89624 877.76587 C396.18947 880.06447 398.48801 882.35766 400.78711 884.65039 C402.26855 886.13249 403.74968 887.6149 405.23047 889.09766 C405.90668 889.77184 406.58289 890.44603 407.27959 891.14064 C411.72092 895.60358 415.8828 900.23619 420 905 C422.27079 907.45744 424.57339 909.88394 426.875 912.3125 C431.73226 917.47795 436.37891 922.73287 440.80469 928.27734 C443.24502 931.30388 445.77524 934.24183 448.3125 937.1875 C453.36174 943.13889 458.06558 949.3071 462.70703 955.57812 C465.70111 959.61908 468.76253 963.60557 471.83081 967.59033 C532.77293 1046.88133 577.56204 1134.95508 608 1230 C608.44328 1231.37043 608.88655 1232.74087 609.34326 1234.15283 C616.53146 1256.50032 622.04074 1279.0782 627 1302 C627.14695 1302.66564 627.14695 1302.66564 627.89062 1306.03418 C632.53707 1327.18976 635.50528 1348.49232 638 1370 C638.07799 1370.66314 638.07799 1370.66314 638.47266 1374.01904 C651.64664 1489.1579 641.42275 1606.64617 578 1836 C577.70396 1836.90806 577.40792 1837.81613 577.10291 1838.75171 C565.6748 1873.74331 552.45822 1908.15057 538 1942 C537.5025 1943.17281 537.005 1944.34561 536.49243 1945.55396 C519.43766 1985.73908 501.25507 2025.30325 482.12109 2064.53906 C477.65437 2073.69872 473.22796 2082.87761 468.81592 2092.06372 C461.96542 2106.29208 454.83614 2120.36141 447.4375 2134.3125 C447.05016 2135.04367 446.66281 2135.77484 446.26373 2136.52817 C439.30943 2149.64679 432.15223 2162.64529 424.896 2175.59912 C422.1645 2180.49865 419.46828 2185.41736 416.76904 2190.33472 C411.11639 2200.62764 405.41012 2210.86338 399.39453 2220.94922 C397.18674 2224.68409 395.03746 2228.44529 392.90259 2232.22192 C386.84332 2242.93595 380.50222 2253.46059 374.0813 2263.96143 C370.30944 2270.1447 366.62268 2276.34521 363.125 2282.6875 C359.74274 2288.80808 356.05003 2294.67904 352.21631 2300.52197 C348.96694 2305.47976 345.82364 2310.49361 342.75 2315.5625 C337.79934 2323.72122 332.75582 2331.8192 327.68628 2339.90454 C324.67545 2344.70931 321.67387 2349.51858 318.71484 2354.35547 C311.0435 2366.88631 303.00473 2379.13795 294.79932 2391.3252 C292.35474 2394.95922 289.92686 2398.60412 287.5 2402.25 C286 2404.5 284.5 2406.75 283 2409 C282.48744 2409.77175 281.97487 2410.54349 281.44678 2411.33862 C273.92447 2422.6502 266.30667 2433.89765 258.70508 2445.15601 C256.81605 2447.95402 254.92741 2450.7523 253.03906 2453.55078 C252.73444 2454.00219 252.73444 2454.00219 251.19286 2456.28661 C247.59349 2461.62448 244.01341 2466.97451 240.44922 2472.33594 C237.09358 2477.37802 233.69128 2482.37233 230.1875 2487.3125 C229.69234 2488.01069 229.19718 2488.70888 228.68701 2489.42822 C219.98886 2501.66996 211.1611 2513.81466 202.23315 2525.88965 C198.25857 2531.2714 194.33794 2536.68936 190.4375 2542.125 C184.13696 2550.88985 177.59562 2559.45606 171 2568 C170.13633 2569.13051 169.27266 2570.26102 168.38281 2571.42578 C162.99936 2578.46898 157.48912 2585.40129 151.9375 2592.3125 C148.41664 2596.73231 144.983 2601.21441 141.55078 2605.70312 C138.80417 2609.25311 136.00174 2612.75341 133.1875 2616.25 C128.88034 2621.61052 124.66067 2627.02523 120.5 2632.5 C115.38359 2639.23236 110.14676 2645.8506 104.84375 2652.4375 C102.12417 2655.84444 99.45927 2659.28632 96.8125 2662.75 C93.12257 2667.57033 89.34612 2672.30098 85.48438 2676.98438 C82.4528 2680.66421 79.44385 2684.36205 76.4375 2688.0625 C76.15604 2688.40869 76.15604 2688.40869 74.73169 2690.16064 C71.75913 2693.82045 68.80492 2697.49351 65.875 2701.1875 C62.88633 2704.94057 59.80144 2708.60024 56.6875 2712.25 C52.76819 2716.84786 49.00494 2721.53074 45.3125 2726.3125 C41.76279 2730.87425 38.14323 2735.02596 33.96484 2739.00781 C30.76263 2742.25459 28.00396 2745.85661 25.15234 2749.41016 C22.31407 2752.82536 19.13897 2755.86103 16 2759 C14.50472 2760.79923 13.0267 2762.61289 11.5625 2764.4375 C8.26316 2768.54074 4.81267 2772.24499 1.03516 2775.90234 C-2.16608 2779.2019 -4.96342 2782.81647 -7.83984 2786.39844 C-9.68528 2788.62097 -11.56407 2790.66807 -13.625 2792.6875 C-16.57823 2795.58604 -19.30124 2798.58871 -22.00391 2801.71875 C-28.20218 2808.80249 -34.67517 2815.64973 -41.0625 2822.5625 C-54.78064 2837.41789 -54.78064 2837.41789 -60.375 2843.875 C-64.45189 2848.57019 -68.70155 2853.10486 -72.9375 2857.65625 C-75.13914 2860.06008 -77.30013 2862.47809 -79.4375 2864.9375 C-82.86986 2868.87794 -86.41268 2872.70074 -90 2876.5 C-91.16675 2877.7395 -92.33341 2878.97909 -93.5 2880.21875 C-94.17217 2880.93104 -94.84433 2881.64333 -95.53687 2882.3772 C-97.44149 2884.40529 -99.33784 2886.44116 -101.23071 2888.48022 C-110.04156 2897.95912 -119.05457 2907.21132 -128.21851 2916.34888 C-130.46392 2918.58885 -132.70383 2920.83423 -134.94336 2923.08008 C-136.39812 2924.53418 -137.85318 2925.98796 -139.30859 2927.44141 C-139.96396 2928.09879 -140.61932 2928.75618 -141.29454 2929.43349 C-145.70543 2933.82236 -150.28808 2937.93558 -155 2942 C-156.54481 2943.41324 -158.08695 2944.8294 -159.625 2946.25 C-180.76244 2965.31965 -180.76244 2965.31965 -190 2964 C-199.04022 2959.63177 -206.51869 2952.56563 -214 2946 C-214.7425 2945.35805 -215.485 2944.71609 -216.25 2944.05469 C-218.17855 2942.38276 -220.09169 2940.69498 -222 2939 C-222.69609 2938.38512 -223.39219 2937.77023 -224.10938 2937.13672 C-236.47118 2926.12309 -248.45114 2914.70619 -260.04688 2902.89062 C-262.59677 2900.3947 -265.21149 2898.21468 -268 2896 C-269.60183 2894.16457 -271.20099 2892.32669 -272.78125 2890.47266 C-275.57368 2887.36067 -278.52829 2884.44104 -281.5 2881.5 C-285.03069 2878.00155 -288.51731 2874.5265 -291.75 2870.75 C-294.8838 2867.13408 -298.16254 2863.79754 -301.59375 2860.46875 C-304.22195 2857.77229 -306.67257 2854.95742 -309.13965 2852.11426 C-312.13689 2848.70795 -315.25722 2845.42066 -318.375 2842.125 C-325.15303 2834.92668 -331.83293 2827.65679 -338.3125 2820.1875 C-341.36364 2816.67939 -344.51935 2813.27767 -347.6875 2809.875 C-352.98438 2804.16151 -358.06799 2798.29501 -363.11328 2792.35938 C-366.5915 2788.31165 -370.17323 2784.36899 -373.77734 2780.43359 C-384.87696 2768.28059 -395.38285 2755.57254 -406 2743 C-407.8331 2740.83314 -409.66643 2738.66647 -411.5 2736.5 C-412.40363 2735.43137 -413.30727 2734.36273 -414.23828 2733.26172 C-416.10789 2731.05363 -417.98037 2728.84796 -419.85547 2726.64453 C-424.03286 2721.72961 -428.18452 2716.80845 -432.1875 2711.75 C-434.70195 2708.57494 -437.29005 2705.50989 -440 2702.5 C-445.10538 2696.81964 -449.78597 2690.82827 -454.49219 2684.81641 C-459.44055 2678.49829 -464.42663 2672.21786 -469.5 2666 C-476.33914 2657.61544 -483.01289 2649.1063 -489.67188 2640.57812 C-493.95774 2635.10312 -498.26848 2629.65801 -502.6875 2624.28955 C-509.20312 2616.36234 -515.34933 2608.21582 -521.39453 2599.92578 C-525.06678 2594.89136 -528.81116 2589.91312 -532.5625 2584.9375 C-537.84243 2577.92179 -543.03385 2570.84972 -548.15649 2563.71851 C-552.06403 2558.28211 -556.02022 2552.8837 -560 2547.5 C-565.08217 2540.62305 -570.11003 2533.70967 -575.10547 2526.76953 C-579.03392 2521.31916 -583.00716 2515.90334 -587 2510.5 C-593.24073 2502.05182 -599.41285 2493.55629 -605.54199 2485.02686 C-606.86055 2483.19385 -608.1839 2481.3643 -609.50781 2479.53516 C-616.528 2469.79262 -623.2692 2459.86451 -630.01123 2449.92871 C-631.91178 2447.12992 -633.8164 2444.33397 -635.72266 2441.53906 C-640.15841 2435.0328 -644.58054 2428.51734 -649 2422 C-649.53035 2421.21832 -650.0607 2420.43665 -650.60712 2419.63129 C-680.33084 2375.81808 -680.33084 2375.81808 -694 2354 C-695.2655 2351.99081 -696.53113 2349.98169 -697.79688 2347.97266 C-705.27639 2336.0739 -712.62599 2324.09883 -719.91406 2312.08203 C-722.3631 2308.044 -724.83024 2304.01773 -727.3125 2300 C-733.22703 2290.40616 -738.99484 2280.7269 -744.6875 2271 C-748.63678 2264.26731 -752.67616 2257.59541 -756.75 2250.9375 C-778.0198 2216.10401 -797.55236 2180.28329 -816.28638 2144.03101 C-819.87045 2137.11471 -823.55936 2130.26334 -827.3125 2123.4375 C-835.00297 2109.41313 -841.90338 2095.11417 -848.59399 2080.59204 C-853.0596 2070.9348 -857.69705 2061.36837 -862.375 2051.8125 C-880.06209 2015.59315 -896.06286 1978.6246 -911.25146 1941.2959 C-912.39437 1938.48793 -913.5404 1935.68123 -914.68994 1932.87598 C-936.57739 1879.41873 -955.13737 1824.8664 -971.29358 1769.42206 C-972.00014 1766.99953 -972.71029 1764.57808 -973.4209 1762.15674 C-990.70371 1703.13376 -1005.32402 1641.97786 -1011.60156 1580.74219 C-1011.9695 1577.28646 -1012.4036 1573.84917 -1012.875 1570.40625 C-1022.12547 1501.81124 -1019.79302 1428.47449 -1011 1360 C-1010.83693 1358.7198 -1010.67387 1357.4396 -1010.50586 1356.12061 C-1005.33965 1316.93663 -996.45814 1277.80091 -985 1240 C-984.56188 1238.54932 -984.12376 1237.09864 -983.67236 1235.604 C-963.85627 1170.43283 -939.18737 1105.9454 -903.57617 1047.59229 C-901.97141 1044.95299 -900.3964 1042.29784 -898.82812 1039.63672 C-892.86091 1029.53633 -886.59191 1019.70789 -880 1010 C-878.70796 1008.02108 -877.41627 1006.04192 -876.125 1004.0625 C-863.91303 985.76898 -849.81075 968.56949 -835.89844 951.55078 C-833.4978 948.60984 -831.1158 945.65644 -828.75 942.6875 C-821.72817 933.89917 -814.58119 925.31271 -807 917 C-805.62464 915.45865 -804.24965 913.91698 -802.875 912.375 C-792.41186 900.77534 -781.65249 889.51949 -770.52197 878.55884 C-767.10435 875.17919 -763.76094 871.80462 -760.65625 868.13281 C-758.14701 865.17338 -755.47658 862.71324 -752.52344 860.20703 C-749.16213 857.26719 -745.93378 854.19021 -742.6875 851.125 C-737.54542 846.29109 -732.31384 841.67267 -726.79688 837.26562 C-723.53172 834.62067 -720.36289 831.877 -717.1875 829.125 C-711.45426 824.1903 -705.59076 819.47422 -699.61328 814.83984 C-696.46262 812.36359 -693.37153 809.82883 -690.29199 807.26514 C-681.86533 800.2831 -673.07735 794.03838 -663.9707 787.97852 C-660.50009 785.66706 -657.0393 783.34119 -653.57812 781.01562 C-650.92751 779.23894 -648.27647 777.4629 -645.625 775.6875 C-644.37767 774.85146 -643.13034 774.01542 -641.84521 773.15405 C-634.94914 768.55529 -627.99648 764.08472 -620.91553 759.77563 C-617.92893 757.95672 -614.9635 756.10625 -612 754.25 C-602.80139 748.59864 -593.41322 743.28341 -584 738 C-583.1207 737.50403 -582.2414 737.00807 -581.33545 736.49707 C-549.98684 718.89198 -517.54312 703.88309 -484 691 C-482.72463 690.50597 -481.44927 690.01193 -480.13525 689.50293 C-427.61077 669.26849 -372.88594 654.13636 -317.38281 644.80859 C-308.56713 642.70138 -308.56713 642.70138 -307 638 C-306.57015 628.81339 -307.01216 619.65146 -307.65625 610.48828 C-314.65132 510.8356 -310.99231 407.53015 -288 310 C-287.65856 308.54336 -287.31712 307.08672 -286.96533 305.58594 C-274.96535 254.93254 -258.77647 205.95635 -235.62646 159.28369 C-234.15033 156.3035 -232.69105 153.31585 -231.23828 150.32422 C-217.22457 121.62123 -199.5649 93.14529 -178.58203 68.98047 C-176.15573 66.17977 -173.82011 63.3263 -171.5 60.4375 C-166.57355 54.39694 -161.31478 48.69874 -156 43 C-154.79513 41.69051 -153.59072 40.3806 -152.38672 39.07031 C-144.91681 30.97655 -137.24452 23.31672 -129 16 C-128.21883 15.2691 -127.43766 14.5382 -126.63281 13.78516 C-86.95602 -23.153 -43.01922 -41.81665 0 0 Z M-153.5437 325.59546 C-159.65187 338.13327 -164.85906 351.04262 -170 364 C-170.20158 364.49951 -170.20158 364.49951 -171.22168 367.02734 C-187.11256 406.53101 -196.33438 448.06955 -203 490 C-203.16484 491.01353 -203.32968 492.02705 -203.49951 493.07129 C-207.99001 520.86289 -210.09599 549.22396 -210.23828 577.35938 C-210.24803 578.96758 -210.25778 580.57579 -210.26782 582.23273 C-210.29504 587.40514 -210.30625 592.57752 -210.3125 597.75 C-210.3138 598.6319 -210.3151 599.5138 -210.31643 600.42242 C-210.34771 628.48274 -209.4928 656.13506 -206 684 C-205.78793 685.77912 -205.57735 687.55843 -205.36816 689.33789 C-204.04407 700.5768 -202.65106 711.80372 -201 723 C-200.77586 724.55268 -200.55173 726.10535 -200.3208 727.70508 C-200.08216 729.22037 -199.84353 730.73566 -199.59766 732.29688 C-199.38762 733.65651 -199.17758 735.01615 -198.96118 736.41699 C-197.93592 740.23888 -196.80047 742.2347 -194 745 C-184.66612 746.82619 -177.97285 737.17872 -172.125 731.1875 C-166.26072 725.20453 -160.33725 719.47874 -154 714 C-147.66144 707.91058 -141.42482 701.72021 -135.73438 695.01562 C-133.56779 692.49771 -131.31384 690.06736 -129.0625 687.625 C-124.47225 682.58054 -120.18457 677.3832 -116 672 C-114.96101 670.66791 -113.92194 669.33589 -112.88281 668.00391 C-110.48822 664.93145 -108.09832 661.85541 -105.71094 658.77734 C-103.30763 655.67973 -100.89643 652.5886 -98.47656 649.50391 C-80.46163 626.51376 -63.24092 602.93273 -48 578 C-47.19434 576.68516 -46.38867 575.37031 -45.55859 574.01562 C5.91757 488.19375 70.71876 347.84403 17.125 249.5 C2.87309 225.93904 -14.62058 215.21406 -42.03516 215.69531 C-96.96968 217.76961 -132.23373 282.8596 -153.5437 325.59546 Z M-263.17578 1113.42188 C-265.8994 1115.90817 -268.69283 1118.24734 -271.5625 1120.5625 C-276.01138 1124.15316 -280.25689 1127.91062 -284.48047 1131.76172 C-287.03205 1134.02847 -289.65172 1136.1754 -292.3125 1138.3125 C-297.67926 1142.65304 -302.72804 1147.28754 -307.76172 1152.00781 C-310.1218 1154.18854 -312.49739 1156.31939 -314.92188 1158.42578 C-318.89061 1161.88064 -322.73741 1165.45 -326.5625 1169.0625 C-327.96601 1170.38296 -329.36966 1171.70327 -330.77344 1173.02344 C-331.47694 1173.68569 -332.18045 1174.34795 -332.90527 1175.03027 C-336.15918 1178.09001 -339.42247 1181.13965 -342.6875 1184.1875 C-343.78449 1185.2123 -344.88148 1186.23711 -346.01172 1187.29297 C-348.22235 1189.35759 -350.44608 1191.40465 -352.68652 1193.43701 C-361.85405 1201.79206 -370.64627 1210.49322 -379.4043 1219.27393 C-381.88818 1221.76321 -384.37743 1224.24706 -386.86719 1226.73047 C-388.47168 1228.33562 -390.07585 1229.94107 -391.67969 1231.54688 C-392.0459 1231.91207 -392.0459 1231.91207 -393.89914 1233.76019 C-398.46872 1238.3504 -402.76784 1243.0969 -407 1248 C-408.27305 1249.28949 -409.56056 1250.56524 -410.875 1251.8125 C-414.78053 1255.65806 -418.16384 1259.81762 -421.58984 1264.08984 C-424.08563 1267.10339 -426.70124 1269.95617 -429.375 1272.8125 C-435.32628 1279.24253 -440.65443 1286.06501 -446 1293 C-447.07877 1294.36223 -448.15958 1295.72285 -449.24219 1297.08203 C-462.85562 1314.24086 -475.25298 1332.25347 -486.71533 1350.91406 C-487.8797 1352.80466 -489.06189 1354.68426 -490.24609 1356.5625 C-501.52088 1374.76766 -511.21385 1394.0586 -519 1414 C-519.3213 1414.81034 -519.6426 1415.62067 -519.97363 1416.45557 C-531.8325 1446.40296 -541.41012 1477.24181 -547 1509 C-547.26297 1510.40121 -547.52594 1511.80242 -547.79688 1513.24609 C-559.14984 1578.17812 -554.22284 1645.39688 -534 1708 C-533.67951 1708.99596 -533.35901 1709.99192 -533.02881 1711.01807 C-519.67702 1751.7089 -497.74989 1791.42566 -470.20312 1824.17578 C-467.75535 1827.09819 -465.38803 1830.04437 -463.0625 1833.0625 C-454.25158 1844.10403 -444.01808 1854.06601 -434.0625 1864.0625 C-433.28221 1864.84746 -432.50193 1865.63242 -431.698 1866.44116 C-426.9565 1871.16951 -422.08238 1875.63994 -417 1880 C-416.03578 1880.84562 -415.07156 1881.69125 -414.07812 1882.5625 C-371.4668 1919.28828 -321.64983 1942.99706 -268 1959 C-267.01661 1959.29858 -266.03321 1959.59716 -265.02002 1959.90479 C-250.92104 1964.13702 -236.65897 1967.18349 -222.1875 1969.8125 C-221.39626 1969.95756 -221.39626 1969.95756 -217.39209 1970.69165 C-197.50257 1974.1772 -177.91762 1975.40813 -157.75 1975.375 C-157.20957 1975.37523 -157.20957 1975.37523 -154.47467 1975.37637 C-105.77519 1975.31673 -105.77519 1975.31673 -91 1968 C-87.35132 1960.70264 -88.98864 1952.80644 -90.39844 1945.00781 C-90.47353 1944.58677 -90.47353 1944.58677 -90.85353 1942.45604 C-91.35192 1939.67736 -91.86326 1936.90125 -92.375 1934.125 C-92.73558 1932.13151 -93.09568 1930.13794 -93.45532 1928.14429 C-96.35326 1912.1688 -99.46347 1896.2353 -102.57437 1880.30023 C-106.06662 1862.36739 -109.17109 1844.38957 -112.11633 1826.35959 C-114.77917 1810.07567 -117.61869 1793.83745 -120.6875 1777.625 C-120.87772 1776.61949 -121.06793 1775.61398 -121.26392 1774.578 C-122.779 1766.58182 -124.30995 1758.58872 -125.84668 1750.59668 C-128.25384 1738.06665 -130.61115 1725.53708 -132.65234 1712.94141 C-132.79891 1712.03822 -132.94547 1711.13504 -133.09648 1710.20448 C-133.24713 1709.27615 -133.39777 1708.34782 -133.55298 1707.39136 C-137.83381 1681.02702 -142.77693 1654.8112 -147.90039 1628.5979 C-151.63132 1609.46341 -155.08226 1590.29883 -158.31354 1571.07376 C-159.35855 1564.87219 -160.42502 1558.67435 -161.49219 1552.47656 C-161.59016 1551.90641 -161.59016 1551.90641 -162.08595 1549.02107 C-163.75318 1539.32002 -165.43003 1529.62064 -167.11055 1519.92188 C-168.33333 1512.86325 -169.54836 1505.80335 -170.75623 1498.74216 C-171.47441 1494.55546 -172.20053 1490.37016 -172.92902 1486.18524 C-173.26483 1484.24673 -173.59738 1482.30765 -173.92645 1480.36798 C-174.37838 1477.70725 -174.84201 1475.04882 -175.30859 1472.39062 C-175.56439 1470.90595 -175.82019 1469.42127 -176.08374 1467.8916 C-177.29875 1462.73111 -178.20812 1458.9706 -183 1456.375 C-213.12385 1453.55089 -257.6525 1498.17342 -274 1519 C-274.51031 1519.64646 -275.02062 1520.29293 -275.54639 1520.95898 C-289.24048 1538.49609 -299.11803 1557.87081 -306 1579 C-306.39703 1580.17176 -306.79406 1581.34352 -307.20312 1582.55078 C-325.92508 1641.99999 -305.31113 1711.33067 -265 1757 C-264.36191 1757.74895 -263.72383 1758.49789 -263.06641 1759.26953 C-253.53409 1770.43093 -242.7068 1779.51666 -230.76562 1788.03906 C-230.0742 1788.53487 -229.38278 1789.03067 -228.67041 1789.5415 C-226.71746 1790.93407 -224.75351 1792.31119 -222.78906 1793.6875 C-220 1796 -220 1796 -220 1799 C-250.37635 1810.6233 -307.63394 1769.62241 -329.65234 1751.85547 C-337.91367 1744.80876 -346.27218 1737.54004 -353.21094 1729.16016 C-354.67951 1727.38697 -356.19668 1725.65416 -357.72656 1723.93359 C-387.55955 1690.13546 -403.99762 1645.12554 -411 1601 C-411.22559 1599.63102 -411.45117 1598.26203 -411.68359 1596.85156 C-415.00118 1572.82766 -413.77038 1547.88782 -410 1524 C-409.83903 1522.96424 -409.67806 1521.92848 -409.51221 1520.86133 C-400.34433 1463.89897 -378.12396 1411.05459 -338.48828 1368.67188 C-336.41513 1366.44576 -334.4124 1364.18752 -332.4375 1361.875 C-325.87232 1354.32034 -318.62326 1347.46904 -311 1341 C-310.10281 1340.21367 -309.20563 1339.42734 -308.28125 1338.61719 C-282.76185 1316.51326 -254.04967 1298.27076 -223.54688 1283.90234 C-222.10828 1283.2127 -220.66969 1282.52305 -219.1875 1281.8125 C-217.88168 1281.2002 -216.57586 1280.58789 -215.23047 1279.95703 C-209.99955 1276.78812 -209.12949 1274.69544 -208.66406 1268.60156 C-208.88757 1261.76332 -210.16014 1255.09428 -211.375 1248.375 C-211.63539 1246.89588 -211.89578 1245.41676 -212.16406 1243.89282 C-212.9251 1239.58408 -213.69458 1235.27699 -214.46765 1230.9704 C-215.24363 1226.64059 -216.01381 1222.30976 -216.78448 1217.979 C-218.71722 1207.11899 -220.65706 1196.26026 -222.60156 1185.40234 C-224.53529 1174.60319 -226.46414 1163.80323 -228.375 1153 C-228.61001 1151.67339 -228.84502 1150.34679 -229.08716 1148.97998 C-230.1422 1142.99341 -231.17146 1137.00438 -232.14453 1131.00391 C-232.32258 1129.90885 -232.50063 1128.81379 -232.68408 1127.68555 C-233.00212 1125.71253 -233.31499 1123.73866 -233.62061 1121.76367 C-236.36667 1104.63333 -236.36667 1104.63333 -241 1100 C-250.35004 1100 -256.65391 1107.34571 -263.17578 1113.42188 Z M-93 1435 C-96.08192 1444.24576 -92.16677 1456.54956 -90.4375 1465.875 C-89.8905 1468.90078 -89.34501 1471.92684 -88.80078 1474.95312 C-88.50897 1476.57154 -88.21716 1478.18996 -87.9165 1479.85742 C-86.26073 1489.10308 -84.69619 1498.36467 -83.125 1507.625 C-82.95809 1508.60874 -82.79117 1509.59247 -82.6192 1510.60602 C-81.7596 1515.67554 -80.9018 1520.74536 -80.04541 1525.81543 C-79.34668 1529.95186 -78.64572 1534.0879 -77.94287 1538.22363 C-71.27159 1577.49734 -71.27159 1577.49734 -68.6875 1596.625 C-66.10297 1615.61454 -62.61712 1634.44348 -59.23047 1653.30273 C-56.28212 1669.72766 -53.40888 1686.16089 -50.6875 1702.625 C-50.52586 1703.60236 -50.36423 1704.57972 -50.19769 1705.5867 C-49.41963 1710.29572 -48.64403 1715.00514 -47.87012 1719.71484 C-46.28904 1729.33056 -44.67876 1738.94144 -43.07251 1748.55298 C-41.96988 1755.15712 -40.87337 1761.762 -39.80078 1768.37109 C-38.04342 1779.1472 -36.22864 1789.90556 -34.19141 1800.63281 C-34.03054 1801.48028 -33.86967 1802.32774 -33.70393 1803.20088 C-33.36943 1804.96222 -33.03492 1806.72356 -32.70041 1808.48489 C-29.50487 1825.32276 -26.65436 1842.18371 -24.0625 1859.125 C-21.34367 1876.85844 -18.40331 1894.53712 -15.1875 1912.1875 C-14.9985 1913.23883 -14.8095 1914.29016 -14.61478 1915.37335 C-14.07836 1918.34816 -13.53135 1921.32081 -12.98047 1924.29297 C-12.90249 1924.72722 -12.90249 1924.72722 -12.50784 1926.92482 C-10.06194 1939.87558 -10.06194 1939.87558 -5.9375 1944.125 C1.25718 1946.2681 9.60542 1942.25862 16.125 1939.25 C16.96829 1938.86441 17.81158 1938.47882 18.68042 1938.08154 C35.48731 1930.18051 51.40332 1920.47273 66 1909 C66.45826 1908.6468 66.45826 1908.6468 68.77734 1906.85938 C107.81553 1876.30252 136.62362 1834.25173 154 1788 C154.33081 1787.12988 154.66161 1786.25977 155.00244 1785.36328 C158.97312 1774.75314 161.87381 1763.99711 164.3125 1752.9375 C164.55517 1751.85114 164.79783 1750.76479 165.04785 1749.64551 C168.58155 1732.72673 169.33371 1715.78556 169.26074 1698.56421 C169.25002 1695.56799 169.26072 1692.57237 169.27344 1689.57617 C169.28701 1672.57381 168.46603 1655.58369 164.75 1638.9375 C164.53094 1637.9355 164.31188 1636.93349 164.08618 1635.90112 C151.87119 1581.49201 122.78838 1528.34389 80 1492 C79.15051 1491.26137 78.30102 1490.52273 77.42578 1489.76172 C35.12195 1453.5755 -20.5396 1431.9311 -76.375 1431.5625 C-76.92184 1431.55742 -76.92184 1431.55742 -79.68921 1431.53174 C-89.28378 1431.63959 -89.28378 1431.63959 -93 1435 Z " fill="#14334c" transform="translate(1111,121)"/></g>
<g><path d="M0 0 C0.92168 0.89332 1.84336 1.78664 2.79297 2.70703 C25.43259 25.00415 43.6766 52.28545 59 80 C59.54688 80.9792 60.09377 81.95841 60.65723 82.96729 C82.08063 121.48457 97.61772 162.0777 111 204 C111.17717 204.5518 111.17717 204.5518 112.07373 207.34424 C121.95653 238.47026 127.60348 270.84467 133 303 C133.20609 304.19303 133.41218 305.38605 133.62451 306.61523 C153.32236 422.01536 140.9399 545.76519 101.98047 659.15576 C101.08412 661.75597 100.20984 664.36225 99.34375 666.97266 C88.73759 698.34921 74.9937 728.45949 59.34375 757.62109 C57.75825 760.58334 56.19339 763.54833 54.65625 766.53516 C40.64456 793.69553 24.69982 820.08351 7 845 C6.50323 845.70254 6.00646 846.40508 5.49463 847.12891 C-2.18594 857.97206 -10.20071 868.51819 -18.41016 878.96484 C-20.69738 881.89271 -22.94015 884.85397 -25.1875 887.8125 C-29.41144 893.31747 -33.84292 898.61682 -38.35547 903.88672 C-40.74573 906.70066 -43.06723 909.55595 -45.375 912.4375 C-49.99566 918.12191 -54.98375 923.43772 -59.99219 928.77734 C-63.41849 932.44839 -66.71143 936.2055 -70 940 C-76.63267 947.59745 -83.63209 954.78797 -90.77515 961.90552 C-92.56676 963.69175 -94.35293 965.48329 -96.13867 967.27539 C-101.93515 973.06538 -107.77593 978.67425 -114 984 C-115.35198 985.31442 -116.69026 986.64348 -118 988 C-121.09623 991.13815 -124.31737 994.06745 -127.65625 996.94922 C-130.70283 999.61497 -133.69833 1002.33253 -136.6875 1005.0625 C-137.76387 1006.04348 -138.84023 1007.02445 -139.94922 1008.03516 C-151.82456 1019.57599 -149.13809 1028.66311 -146.6875 1044.125 C-146.47416 1045.55199 -146.26082 1046.97898 -146.04102 1048.44922 C-145.93306 1049.13951 -145.93306 1049.13951 -145.38672 1052.63281 C-145.28984 1053.25615 -145.28984 1053.25615 -144.79956 1056.41064 C-143.95431 1060.20512 -142.55312 1063.44659 -141 1067 C-140.84766 1070.45312 -140.84766 1070.45312 -141.0625 1074.25 C-141.20967 1082.86706 -140.12411 1090.96357 -138.77148 1099.46143 C-137.2694 1108.9682 -136.03175 1118.49535 -134.87457 1128.04929 C-133.09287 1142.75473 -131.0951 1157.40635 -128.80493 1172.04272 C-127.35342 1181.406 -126.12709 1190.78007 -125 1200.1875 C-123.68222 1211.05582 -122.18432 1221.87937 -120.4375 1232.6875 C-120.23963 1233.95296 -120.04176 1235.21841 -119.83789 1236.52222 C-119.74024 1237.1083 -119.74024 1237.1083 -119.24609 1240.07422 C-119.07779 1241.1012 -118.90949 1242.12818 -118.73608 1243.18628 C-117.69285 1247.17409 -116.50528 1250.0158 -112.98364 1252.31836 C-108.41509 1253.36209 -103.91026 1253.08376 -99.26172 1252.90625 C-97.07252 1252.84295 -94.88331 1252.78015 -92.69409 1252.71777 C-92.12188 1252.69971 -92.12188 1252.69971 -89.22617 1252.60828 C-68.02266 1251.95949 -47.13491 1251.89571 -26 1254 C-25.00049 1254.09265 -24.00099 1254.1853 -22.97119 1254.28076 C19.34461 1258.35 60.38471 1271.49198 98 1291 C99.88137 1291.96252 101.76289 1292.92474 103.64453 1293.88672 C114.01019 1299.21035 124.27246 1304.56097 134 1311 C134.72671 1311.48082 135.45342 1311.96164 136.20215 1312.45703 C145.85767 1318.87583 155.17393 1325.46486 164 1333 C165.76834 1334.44057 167.53925 1335.87799 169.3125 1337.3125 C171.20986 1338.87315 173.10562 1340.43574 175 1342 C176.02352 1342.83531 177.04703 1343.67062 178.10156 1344.53125 C185.57835 1350.76482 192.55342 1357.37223 199.4375 1364.25 C200.27789 1365.08958 201.11828 1365.92917 201.98413 1366.79419 C257.00274 1422.30634 299.13492 1503.56682 306 1582 C306.07795 1582.84464 306.1559 1583.68929 306.23621 1584.55952 C307.68014 1600.30707 308.40773 1615.9374 308.375 1631.75 C308.3744 1632.29887 308.3744 1632.29887 308.37134 1635.07648 C308.24194 1678.80803 301.19878 1720.91182 286 1762 C285.57348 1763.16789 285.14696 1764.33578 284.70752 1765.53906 C273.05183 1797.19411 258.25027 1828.23393 239 1856 C237.62218 1858.10232 236.24704 1860.2064 234.875 1862.3125 C228.81757 1871.38051 221.71745 1879.54682 214.65625 1887.83984 C212.38322 1890.54408 210.17805 1893.28192 208 1896.0625 C197.33698 1909.47238 185.08475 1921.94806 172 1933 C171.01 1933.86754 170.02 1934.73508 169 1935.62891 C159.96308 1943.5054 150.59456 1950.82155 141 1958 C139.74059 1958.95004 138.48117 1959.90008 137.18359 1960.87891 C128.0469 1967.69025 118.64073 1973.93699 109 1980 C107.8927 1980.71414 106.78539 1981.42828 105.64453 1982.16406 C87.54401 1993.49546 67.75896 2002.93345 48 2011 C47.20948 2011.32549 46.41896 2011.65098 45.60449 2011.98633 C29.49432 2018.60595 29.49432 2018.60595 21.25 2021.1875 C13.31274 2023.76963 7.44717 2026.4475 5 2035 C5.1168 2039.42137 5.83806 2043.70597 6.57031 2048.0625 C6.66876 2048.69454 6.66876 2048.69454 7.16696 2051.89307 C7.80106 2055.93191 8.46297 2059.96565 9.125 2064 C9.54863 2066.68332 9.97052 2069.36691 10.39062 2072.05078 C12.17644 2083.35915 14.03843 2094.6271 16.38281 2105.83496 C17.49929 2111.56046 18.19913 2117.34084 18.9375 2123.125 C20.05784 2131.60003 21.28602 2139.99937 23 2148.375 C25.0464 2158.43127 26.30491 2168.56032 27.56372 2178.74121 C28.61203 2187.17566 29.83164 2195.52534 31.38672 2203.88281 C39.50987 2258.4166 35.62375 2318.61271 15 2370 C14.6273 2370.93957 14.2546 2371.87913 13.87061 2372.84717 C3.00115 2399.96181 -11.8188 2424.73237 -32 2446 C-32.45182 2446.47824 -32.45182 2446.47824 -34.73828 2448.89844 C-41.97322 2456.35378 -49.70017 2462.76842 -58 2469 C-59.18465 2469.91781 -60.3693 2470.83563 -61.58984 2471.78125 C-96.20174 2498.08186 -143.62649 2513.99298 -187.05469 2514.20312 C-187.99571 2514.20883 -188.93674 2514.21453 -189.90628 2514.2204 C-191.89129 2514.22979 -193.87631 2514.23636 -195.86133 2514.24023 C-198.83232 2514.24986 -201.8026 2514.28091 -204.77344 2514.3125 C-217.19197 2514.38147 -228.7666 2513.30115 -241 2511 C-243.19737 2510.63989 -245.39523 2510.28272 -247.59375 2509.92969 C-280.98205 2504.12086 -312.14394 2491.8787 -339 2471 C-339.86367 2470.34 -340.72734 2469.68 -341.61719 2469 C-373.69101 2443.71281 -389.49306 2411.6724 -389.3125 2370.75 C-389.30968 2370.07449 -389.30968 2370.07449 -389.29541 2366.65601 C-389.09465 2350.03936 -386.68285 2335.34833 -380 2320 C-379.60941 2319.08992 -379.21883 2318.17984 -378.81641 2317.24219 C-362.49523 2282.11494 -324.73994 2259.48563 -287 2255 C-282.12647 2254.76505 -277.25368 2254.76915 -272.375 2254.75 C-271.08465 2254.72937 -269.7943 2254.70875 -268.46484 2254.6875 C-256.38534 2254.63884 -245.90617 2257.06304 -234.65625 2261.32812 C-231.54629 2262.11476 -229.97022 2262.24749 -227 2261 C-223.91796 2256.18073 -223.63582 2252.34612 -223.67188 2246.69531 C-223.67339 2245.87966 -223.6749 2245.06401 -223.67645 2244.22365 C-223.68588 2241.52378 -223.7176 2238.82468 -223.75 2236.125 C-223.762 2234.22112 -223.77305 2232.31723 -223.7832 2230.41333 C-223.89418 2213.88127 -224.23376 2197.34987 -224.64355 2180.82275 C-224.87919 2171.21245 -225.0547 2161.6056 -225.08203 2151.99219 C-225.08449 2151.53877 -225.08449 2151.53877 -225.09692 2149.24419 C-225.09692 2129.74468 -225.09692 2129.74468 -216.9375 2123.75 C-209.77147 2120.5651 -202.84154 2119.52669 -196 2124 C-192.75219 2127.94377 -190.35546 2132.36226 -187.875 2136.8125 C-181.83032 2146.49554 -172.32309 2153.76273 -163.29688 2160.5 C-136.7871 2180.6022 -109.26424 2204.78004 -112 2241 C-113.79176 2251.6072 -116.70505 2265.33778 -127 2271 C-131.7483 2271.66476 -132.49746 2271.50254 -136 2268 C-137.60726 2263.30318 -138.47199 2258.57068 -139.3125 2253.6875 C-143.54372 2232.59363 -159.32196 2219.93293 -178.58594 2211.75 C-182.13122 2210.64855 -184.53878 2210.67443 -188 2212 C-190.66729 2217.16255 -190.29235 2222.49914 -190.28711 2228.17407 C-190.29394 2229.30335 -190.30078 2230.43263 -190.30782 2231.59613 C-190.3214 2234.04929 -190.33046 2236.50247 -190.33553 2238.95566 C-190.34383 2242.85563 -190.36436 2246.75536 -190.38806 2250.65526 C-190.4363 2258.95764 -190.46915 2267.26004 -190.5 2275.5625 C-190.53583 2285.13757 -190.57817 2294.71253 -190.63594 2304.28749 C-190.65576 2308.09797 -190.66428 2311.90836 -190.67224 2315.71889 C-190.86584 2360.85419 -190.86584 2360.85419 -204 2380 C-204.23848 2380.36738 -204.23848 2380.36738 -205.44531 2382.22656 C-219.5255 2402.25015 -243.87071 2410.79975 -266.55249 2416.28906 C-269 2417 -269 2417 -273 2419 C-269.89361 2431.42556 -249.6735 2435.77904 -238.61011 2439.00049 C-217.81816 2444.75996 -195.3099 2447.07256 -174 2443 C-173.05818 2442.82614 -172.11636 2442.65228 -171.146 2442.47314 C-138.07273 2436.20267 -112.38812 2420.93211 -88 2398 C-87.20465 2397.28199 -86.4093 2396.56398 -85.58984 2395.82422 C-78.76216 2389.43003 -73.92384 2381.90847 -69 2374 C-68.29746 2372.89785 -67.59492 2371.7957 -66.87109 2370.66016 C-58.64301 2357.11843 -53.59239 2342.20985 -49.625 2326.9375 C-49.38636 2326.04241 -49.14772 2325.14731 -48.90186 2324.2251 C-44.80901 2307.49562 -44.61601 2290.12727 -44.6875 2273 C-44.69032 2272.01334 -44.69314 2271.02669 -44.69604 2270.01013 C-44.83209 2238.14677 -50.20172 2207.37366 -55.49066 2176.0325 C-56.00597 2172.96443 -56.51502 2169.89539 -57.02197 2166.82593 C-59.0779 2154.38438 -61.23762 2141.96843 -63.5 2129.5625 C-65.48577 2118.62089 -67.42081 2107.67705 -69.125 2096.6875 C-70.47373 2088.0836 -71.92282 2079.50267 -73.5 2070.9375 C-73.68965 2069.86009 -73.87931 2068.78267 -74.07471 2067.67261 C-76.91162 2052.63411 -76.91162 2052.63411 -82.32275 2049.771 C-85.18875 2048.94564 -87.0472 2048.92581 -89.99219 2049.28516 C-90.95737 2049.39489 -91.92256 2049.50462 -92.91699 2049.61768 C-93.93438 2049.74384 -94.95178 2049.87001 -96 2050 C-98.08569 2050.23016 -100.17163 2050.45795 -102.25781 2050.68359 C-103.35867 2050.80565 -104.45953 2050.92771 -105.59375 2051.05347 C-195.39308 2060.81939 -283.7733 2054.19708 -369 2023 C-369.94875 2022.65437 -370.8975 2022.30874 -371.875 2021.95264 C-398.88438 2012.05647 -425.33026 1999.8302 -450 1985 C-451.56979 1984.07854 -453.14015 1983.15805 -454.71094 1982.23828 C-465.44883 1975.91692 -475.8723 1969.27056 -486 1962 C-486.76731 1961.45054 -487.53463 1960.90107 -488.3252 1960.33496 C-497.58556 1953.67687 -506.58712 1946.85826 -515.21484 1939.38672 C-517.65368 1937.29677 -520.13129 1935.31772 -522.6875 1933.375 C-527.71024 1929.52546 -532.33409 1925.26927 -537 1921 C-538.62384 1919.54037 -540.24884 1918.08204 -541.875 1916.625 C-542.70773 1915.87348 -543.54047 1915.12195 -544.39844 1914.34766 C-546.14948 1912.76751 -547.90478 1911.19207 -549.66406 1909.62109 C-556.05421 1903.85588 -562.2178 1897.8867 -568.3125 1891.8125 C-569.06531 1891.06428 -569.81813 1890.31606 -570.59375 1889.54517 C-575.27078 1884.85521 -579.6722 1880.0136 -584 1875 C-585.57864 1873.28733 -587.1615 1871.57853 -588.75 1869.875 C-594.53231 1863.5258 -599.76989 1856.80612 -605 1850 C-606.10115 1848.58301 -607.20272 1847.16635 -608.30469 1845.75 C-614.54483 1837.6989 -620.45813 1829.55254 -626 1821 C-627.58183 1818.64483 -629.16527 1816.29073 -630.75 1813.9375 C-644.99228 1792.50875 -657.52609 1770.65135 -668.46484 1747.34766 C-670.64987 1742.70026 -672.96055 1738.12804 -675.3125 1733.5625 C-679.15966 1725.89934 -682.13469 1718.07373 -685 1710 C-685.71864 1708.02162 -686.4388 1706.0438 -687.16016 1704.06641 C-691.63433 1691.77279 -695.9952 1679.4556 -700 1667 C-700.45633 1665.6323 -700.91266 1664.26461 -701.38281 1662.85547 C-713.01166 1626.41205 -717.99473 1588.9133 -722 1551 C-722.0973 1550.12106 -722.1946 1549.24211 -722.29485 1548.33653 C-723.08687 1540.61562 -723.19421 1532.92515 -723.23828 1525.16797 C-723.24798 1523.75391 -723.25769 1522.33986 -723.26768 1520.88295 C-723.29258 1516.31777 -723.30521 1511.75274 -723.3125 1507.1875 C-723.31512 1505.63422 -723.31774 1504.08094 -723.32043 1502.48059 C-723.32468 1479.01637 -722.51123 1456.21791 -719 1433 C-718.68411 1430.73318 -718.36897 1428.46626 -718.05469 1426.19922 C-714.62641 1402.50603 -709.42827 1379.05022 -703 1356 C-702.71431 1354.95167 -702.42862 1353.90334 -702.13428 1352.82324 C-697.98385 1337.67003 -692.90721 1323.20849 -686.80469 1308.73438 C-683.94597 1301.94864 -681.34191 1295.07855 -678.75 1288.1875 C-675.77094 1280.33073 -672.62061 1272.7469 -668.6875 1265.30859 C-666.72663 1261.46401 -665.06353 1257.53406 -663.375 1253.5625 C-658.92085 1243.29811 -653.38534 1233.69337 -647.76172 1224.03369 C-645.97183 1220.95149 -644.20314 1217.85786 -642.4375 1214.76172 C-636.5582 1204.50031 -630.53087 1194.50641 -623.70312 1184.84375 C-621.28102 1181.39961 -618.94087 1177.91881 -616.62549 1174.40308 C-607.36449 1160.34281 -597.58172 1146.78714 -586.96484 1133.71484 C-583.88395 1129.8546 -580.93221 1125.91053 -578 1121.9375 C-573.20328 1115.4606 -568.10129 1109.31218 -562.80469 1103.23828 C-560.28495 1100.329 -557.84882 1097.37413 -555.4375 1094.375 C-551.33879 1089.32414 -546.98266 1084.54744 -542.5625 1079.77734 C-539.89814 1076.8896 -537.30619 1073.95031 -534.73438 1070.98047 C-532.72735 1068.68867 -530.67597 1066.44003 -528.625 1064.1875 C-525.65631 1060.90815 -522.84347 1057.56507 -520.10962 1054.08887 C-514.09889 1046.71914 -507.35629 1040.08699 -500.62109 1033.39062 C-499.24028 1032.01101 -497.85984 1030.63102 -496.47975 1029.25067 C-493.60425 1026.37673 -490.72546 1023.50614 -487.84399 1020.63818 C-484.16858 1016.97979 -480.49982 1013.31482 -476.83328 1009.64753 C-473.98956 1006.80408 -471.14323 1003.96325 -468.29604 1001.12328 C-466.94279 999.7732 -465.59013 998.42253 -464.2381 997.07124 C-457.66418 990.50492 -451.09537 984.00722 -444 978 C-432.4233 967.50736 -432.4233 967.50736 -427.1875 962.1875 C-424.27456 959.27456 -421.28098 956.57042 -418.16797 953.87891 C-411.86656 948.41768 -405.76521 942.81935 -399.91016 936.88281 C-397.47917 934.48662 -394.90908 932.26236 -392.32031 930.03906 C-389.38597 927.4604 -386.54258 924.79109 -383.6875 922.125 C-378.85783 917.65103 -373.92862 913.39164 -368.80078 909.26562 C-363.45346 904.94004 -358.23575 900.45941 -353 896 C-351.81664 894.99324 -350.63328 893.98648 -349.41406 892.94922 C-338.9713 884.0355 -328.82445 874.87113 -318.83496 865.45581 C-315.23599 862.06988 -311.6073 858.73971 -307.875 855.5 C-304.20852 852.28661 -301.11672 848.75423 -298 845 C-296.33333 843.33333 -294.66667 841.66667 -293 840 C-291.75582 838.70172 -290.52758 837.38805 -289.3125 836.0625 C-288.73113 835.43473 -288.14977 834.80695 -287.55078 834.16016 C-280.40576 824.20753 -285.46505 809.71165 -287.875 798.8125 C-289.97456 789.06662 -291.86473 779.37789 -293.26172 769.50391 C-294.5222 763.52163 -296.07451 760.69412 -301 757 C-305.47281 755.8818 -307.5799 756.33844 -312.03516 757.33594 C-313.46602 757.65337 -314.89688 757.9708 -316.37109 758.29785 C-317.91926 758.65331 -319.46742 759.00877 -321.0625 759.375 C-322.67125 759.74077 -324.28 760.10654 -325.9375 760.4834 C-330.96358 761.63355 -335.98268 762.81226 -341 764 C-342.49902 764.35417 -343.99804 764.70834 -345.54248 765.07324 C-368.12953 770.48159 -390.1041 777.26776 -412 785 C-413.12438 785.39687 -414.24877 785.79374 -415.40723 786.20264 C-461.98586 802.81691 -507.15019 824.22849 -549.59082 849.5752 C-552.675 851.3992 -555.80394 853.1375 -558.9375 854.875 C-575.52949 864.33588 -591.47123 874.97634 -606.79346 886.36719 C-609.14132 888.10458 -611.5046 889.81934 -613.87109 891.53125 C-622.20117 897.57643 -630.30329 903.74518 -638.08984 910.48828 C-640.86931 912.8872 -643.7009 915.20014 -646.5625 917.5 C-651.4751 921.49862 -656.14683 925.719 -660.78516 930.03125 C-662.50578 931.62016 -664.2321 933.20355 -665.99292 934.7478 C-673.95172 941.75867 -681.41019 949.25892 -688.89624 956.76587 C-691.18947 959.06447 -693.48801 961.35766 -695.78711 963.65039 C-697.26855 965.13249 -698.74968 966.6149 -700.23047 968.09766 C-700.90668 968.77184 -701.58289 969.44603 -702.27959 970.14064 C-706.72072 974.60338 -710.88704 979.23278 -715 984 C-716.78513 985.94353 -718.57633 987.8815 -720.375 989.8125 C-724.5871 994.39609 -728.61101 999.07197 -732.51172 1003.92188 C-734.92851 1006.91156 -737.38917 1009.86186 -739.85449 1012.81152 C-748.28235 1022.93146 -756.19373 1033.39645 -764 1044 C-764.57138 1044.76989 -765.14275 1045.53979 -765.73145 1046.33301 C-773.43644 1056.72111 -780.56507 1067.35651 -787.36084 1078.35889 C-789.14879 1081.23975 -790.95751 1084.10687 -792.76953 1086.97266 C-794.07562 1089.04421 -795.38161 1091.11582 -796.6875 1093.1875 C-797.28095 1094.12417 -797.8744 1095.06083 -798.48584 1096.02588 C-822.13867 1133.71302 -840.7256 1174.66766 -856.54053 1216.17236 C-857.89453 1219.72338 -859.26793 1223.2663 -860.64453 1226.80859 C-880.7773 1279.2141 -893.54198 1334.49606 -900.125 1390.1875 C-900.2044 1390.8481 -900.2044 1390.8481 -900.6062 1394.19116 C-903.52406 1419.97913 -904.37826 1445.75057 -904.3125 1471.6875 C-904.31159 1472.43904 -904.31159 1472.43904 -904.30698 1476.24231 C-904.22848 1514.8676 -901.22084 1552.74495 -896 1591 C-895.83387 1592.22912 -895.66774 1593.45824 -895.49658 1594.72461 C-885.8029 1665.17562 -865.30281 1733.6671 -843 1801 C-842.68869 1801.94146 -842.37738 1802.88292 -842.05664 1803.85291 C-826.12006 1851.9975 -808.17457 1899.46692 -788 1946 C-787.55012 1947.03866 -787.10023 1948.07732 -786.63672 1949.14746 C-763.95174 2001.30693 -739.36485 2053.51403 -711.64844 2103.20703 C-708.65417 2108.58042 -705.82759 2114.03756 -703 2119.5 C-693.1011 2138.57663 -682.63184 2157.32402 -672 2176 C-671.47874 2176.91733 -670.95747 2177.83466 -670.42041 2178.77979 C-660.83164 2195.65109 -651.03683 2212.39052 -641 2229 C-640.74211 2229.42684 -640.74211 2229.42684 -639.43701 2231.58691 C-632.78965 2242.57819 -626.07992 2253.52206 -619.18604 2264.3606 C-616.23511 2269.01011 -613.36831 2273.69823 -610.5625 2278.4375 C-606.59089 2285.10924 -602.39563 2291.61323 -598.14648 2298.10962 C-594.07427 2304.33713 -590.05202 2310.5942 -586.0625 2316.875 C-585.48444 2317.78459 -584.90637 2318.69419 -584.31079 2319.63135 C-581.93195 2323.37664 -579.55529 2327.12331 -577.18115 2330.87158 C-570.42189 2341.54286 -563.62738 2352.17641 -556.57324 2362.65625 C-552.99273 2367.99034 -549.43709 2373.3411 -545.875 2378.6875 C-543.63693 2382.04485 -541.39865 2385.40205 -539.15967 2388.75879 C-537.73991 2390.88954 -536.32221 2393.02167 -534.90674 2395.15527 C-530.725 2401.4525 -526.47344 2407.6918 -522.125 2413.875 C-521.51987 2414.73722 -520.91473 2415.59944 -520.29126 2416.48779 C-512.07419 2428.18228 -503.72729 2439.78219 -495.35156 2451.36328 C-493.15549 2454.39993 -490.96279 2457.43897 -488.77344 2460.48047 C-481.50248 2470.57681 -474.15212 2480.61175 -466.75732 2490.61768 C-465.0224 2492.96963 -463.29345 2495.32585 -461.56641 2497.68359 C-453.42588 2508.78789 -445.13659 2519.77154 -436.76123 2530.69971 C-435.24436 2532.68085 -433.73298 2534.6662 -432.22266 2536.65234 C-427.21318 2543.22068 -422.05347 2549.65486 -416.82446 2556.04883 C-412.55224 2561.28481 -408.42318 2566.61932 -404.32422 2571.99219 C-401.40448 2575.77068 -398.37687 2579.45168 -395.33594 2583.13281 C-392.73723 2586.32253 -390.21242 2589.5641 -387.6875 2592.8125 C-382.90136 2598.93073 -377.90842 2604.83604 -372.82812 2610.71094 C-368.79493 2615.40148 -364.90155 2620.19999 -361 2625 C-354.17882 2633.37164 -347.37471 2641.71797 -340.07422 2649.67969 C-337.79933 2652.22448 -335.64708 2654.84664 -333.5 2657.5 C-329.83986 2662.02098 -326.03218 2666.36689 -322.11719 2670.66797 C-319.64087 2673.39557 -317.22222 2676.16962 -314.80469 2678.94922 C-312.77042 2681.26089 -310.69778 2683.53531 -308.625 2685.8125 C-305.51471 2689.25378 -302.53522 2692.76321 -299.625 2696.375 C-294.67316 2702.49147 -289.34966 2708.23227 -284 2714 C-279.54677 2718.84172 -275.18821 2723.69915 -271.125 2728.875 C-264.59214 2737.1517 -257.31911 2744.75965 -249.81641 2752.15625 C-247.41222 2754.59663 -245.18826 2757.17047 -242.94922 2759.76172 C-235.71405 2768.06984 -228.10277 2775.95449 -220.27856 2783.70215 C-217.1399 2786.82105 -214.06253 2789.9481 -211.1875 2793.3125 C-198.33789 2808.17773 -198.33789 2808.17773 -191 2811 C-185.97854 2809.90696 -183.13932 2807.70107 -179.45703 2804.19922 C-178.4137 2803.21099 -177.37036 2802.22276 -176.29541 2801.20459 C-170.71796 2795.78085 -165.17908 2790.32324 -159.6875 2784.8125 C-159.12386 2784.25079 -159.12386 2784.25079 -156.27148 2781.4082 C-150.63245 2775.76254 -145.19264 2770.05694 -140 2764 C-138.09672 2762.04234 -136.15137 2760.14615 -134.1875 2758.25 C-132.30601 2756.31476 -130.51772 2754.28968 -128.75 2752.25 C-124.40191 2747.24367 -119.69198 2742.64041 -114.96094 2738 C-110.41607 2733.50777 -106.16538 2728.84395 -102 2724 C-100.5043 2722.32948 -99.00496 2720.66219 -97.5 2719 C-88.45647 2708.96853 -79.69224 2698.69676 -70.94531 2688.40625 C-66.15762 2682.78537 -61.33079 2677.22918 -56.3125 2671.8125 C-52.2047 2667.36531 -48.30093 2662.81557 -44.50391 2658.10156 C-42.00677 2655.00839 -39.47741 2651.94425 -36.94189 2648.88257 C-31.98721 2642.89661 -27.08929 2636.87987 -22.3125 2630.75 C-18.78357 2626.22242 -15.16813 2621.80035 -11.4375 2617.4375 C-7.8454 2613.23485 -4.40174 2608.96859 -1.0625 2604.5625 C3.48953 2598.56803 8.34272 2592.88273 13.26562 2587.19141 C16.65987 2583.22983 19.85382 2579.15926 23 2575 C25.06079 2572.29034 27.12308 2569.58189 29.1875 2566.875 C29.74873 2566.1379 30.30995 2565.4008 30.88818 2564.64136 C34.53773 2559.86387 38.27143 2555.1667 42.0625 2550.5 C46.80961 2544.61134 51.18984 2538.55311 55.49585 2532.34253 C59.77501 2526.21319 64.41347 2520.42071 69.125 2514.61719 C73.6581 2508.91386 77.81893 2502.96338 82 2497 C83.70587 2494.60241 85.4142 2492.20657 87.125 2489.8125 C87.95516 2488.64977 88.78531 2487.48703 89.64062 2486.28906 C91.70491 2483.41137 93.78482 2480.54639 95.875 2477.6875 C99.7864 2472.3251 103.61066 2466.9023 107.43262 2461.47607 C112.25698 2454.62815 117.12521 2447.81211 122 2441 C122.78762 2439.89527 123.57523 2438.79055 124.38672 2437.65234 C127.99679 2432.58894 131.60988 2427.52879 135.27344 2422.50391 C140.40855 2415.45353 145.48172 2408.43358 150.07812 2401.01562 C152.71081 2396.88466 155.47876 2392.85141 158.25 2388.8125 C158.81388 2387.99016 159.37777 2387.16782 159.95874 2386.32056 C162.58206 2382.50118 165.21406 2378.68818 167.86328 2374.88672 C173.13628 2367.29391 178.19469 2359.60872 183.0957 2351.77393 C187.49842 2344.75061 192.01797 2337.80725 196.5625 2330.875 C196.92811 2330.31728 196.92811 2330.31728 198.77832 2327.49487 C200.20293 2325.32192 201.62757 2323.14898 203.05225 2320.97607 C206.5411 2315.64528 209.99925 2310.29491 213.45312 2304.94141 C215.22796 2302.19477 217.00835 2299.45252 218.79688 2296.71484 C223.86066 2288.95195 228.75904 2281.11717 233.48828 2273.14453 C236.57924 2268.0442 239.78463 2263.0225 243 2258 C247.74836 2250.58009 252.38501 2243.11294 256.87891 2235.53516 C259.09492 2231.8418 261.38431 2228.20206 263.6875 2224.5625 C273.06274 2209.62026 281.75043 2194.2522 290.46704 2178.91943 C293.05584 2174.37294 295.67167 2169.84489 298.33203 2165.33984 C306.07721 2152.21595 313.40871 2138.92024 320.55469 2125.46094 C323.26777 2120.35422 326.04231 2115.29123 328.875 2110.25 C339.20766 2091.7409 349.25852 2073.06129 358.26074 2053.86597 C360.92511 2048.19585 363.72791 2042.64728 366.6875 2037.125 C376.88784 2018.06527 386.00531 1998.40627 395.125 1978.8125 C395.37882 1978.26759 395.37882 1978.26759 396.66333 1975.51001 C399.24507 1969.92661 401.73289 1964.31479 404.13672 1958.65234 C406.15323 1953.91413 408.28456 1949.30749 410.6875 1944.75 C416.41391 1933.43871 421.15688 1921.70956 426 1910 C426.43151 1908.96569 426.86303 1907.93138 427.30762 1906.86572 C441.00309 1874.02901 453.47826 1840.65716 465 1807 C465.48388 1805.58687 465.96776 1804.17373 466.46631 1802.71777 C472.53458 1784.91457 478.30724 1767.02742 483.875 1749.0625 C484.14013 1748.20833 484.40527 1747.35417 484.67844 1746.47412 C499.45235 1698.78815 510.35619 1650.45997 518.44067 1601.21143 C518.82654 1598.99591 519.24512 1596.78593 519.69019 1594.58154 C522.27617 1581.72811 523.63819 1568.77145 525.0625 1555.75 C525.32044 1553.43874 525.5789 1551.12755 525.83789 1548.81641 C526.57487 1542.21266 527.2914 1535.60685 528 1529 C528.10226 1528.05596 528.20452 1527.11193 528.30988 1526.13928 C535.08796 1463.21225 529.56121 1397.97486 515.05029 1336.46875 C513.95768 1331.81993 512.91571 1327.16156 511.87891 1322.5 C506.9508 1300.65542 500.88983 1279.30208 494 1258 C493.49501 1256.43282 492.99002 1254.86564 492.46973 1253.25098 C487.14323 1236.76845 481.76215 1220.33515 474.99512 1204.37891 C473.9147 1201.79608 472.88139 1199.19715 471.85156 1196.59375 C461.83056 1171.52425 449.27819 1147.48657 436 1124 C435.55286 1123.1974 435.10571 1122.39479 434.64502 1121.56787 C419.97928 1095.34858 402.79061 1069.9477 384.56543 1046.07471 C382.83982 1043.78771 381.15573 1041.47365 379.47656 1039.15234 C373.2526 1030.55952 366.86382 1022.30076 359.85547 1014.32031 C356.98659 1010.98441 354.3007 1007.55458 351.625 1004.0625 C344.48821 994.87777 336.52183 986.47935 328.27344 978.28516 C325 975 325 975 321.875 971.375 C314.95806 963.36509 307.34966 955.83964 299.27734 948.99609 C296.6802 946.7197 294.17131 944.35605 291.65991 941.98584 C284.98646 935.68988 278.17839 929.71968 271 924 C269.1162 922.45288 267.23245 920.9057 265.34961 919.35742 C243.43759 901.39503 220.21386 884.89761 195.96411 870.24365 C191.29379 867.41863 186.67899 864.52303 182.09082 861.56665 C172.91332 855.66943 163.51939 850.33894 153.90625 845.1875 C149.79601 842.98322 145.71812 840.7297 141.65625 838.4375 C128.17937 830.83925 114.58316 823.64853 100.64648 816.92261 C99.44443 816.33584 98.24238 815.74908 97.00391 815.14453 C95.93987 814.63253 94.87583 814.12053 93.77954 813.59302 C89.62386 811.2113 87.20975 809.57497 86.5625 804.71484 C87.0594 800.49559 88.22992 797.42269 90 793.5625 C90.64711 792.14711 91.29422 790.73172 91.96094 789.27344 C94.45464 784.04717 97.02875 778.8673 99.64062 773.69922 C107.55125 757.99919 115.19738 742.22121 121.66553 725.86523 C127.3054 711.7964 127.3054 711.7964 133 708 C141.94143 706.80781 148.94272 710.42639 157 714 C158.4966 714.65355 159.9932 715.30711 161.53516 715.98047 C182.85201 725.37552 203.68587 735.59834 224 747 C225.23492 747.68449 226.46984 748.36898 227.74219 749.07422 C246.13375 759.39513 263.69876 770.96119 281 783 C281.77892 783.54044 282.55783 784.08088 283.36035 784.6377 C298.12957 794.90214 312.48003 805.61945 326.37891 817.03516 C329.33253 819.45349 332.31028 821.83031 335.3125 824.1875 C339.85803 827.80865 344.13449 831.69115 348.41016 835.625 C350.60294 837.63588 352.81719 839.61084 355.0625 841.5625 C359.76171 845.64919 364.37677 849.82782 369 854 C369.32069 854.27953 369.32069 854.27953 370.9436 855.69409 C378.91953 862.72112 386.39363 870.24231 393.89624 877.76587 C396.18947 880.06447 398.48801 882.35766 400.78711 884.65039 C402.26855 886.13249 403.74968 887.6149 405.23047 889.09766 C405.90668 889.77184 406.58289 890.44603 407.27959 891.14064 C411.72092 895.60358 415.8828 900.23619 420 905 C422.27079 907.45744 424.57339 909.88394 426.875 912.3125 C431.73226 917.47795 436.37891 922.73287 440.80469 928.27734 C443.24502 931.30388 445.77524 934.24183 448.3125 937.1875 C453.36174 943.13889 458.06558 949.3071 462.70703 955.57812 C465.70111 959.61908 468.76253 963.60557 471.83081 967.59033 C532.77293 1046.88133 577.56204 1134.95508 608 1230 C608.44328 1231.37043 608.88655 1232.74087 609.34326 1234.15283 C616.53146 1256.50032 622.04074 1279.0782 627 1302 C627.14695 1302.66564 627.14695 1302.66564 627.89062 1306.03418 C632.53707 1327.18976 635.50528 1348.49232 638 1370 C638.07799 1370.66314 638.07799 1370.66314 638.47266 1374.01904 C645.34204 1434.05654 646.08914 1496.83207 641 1557 C640.96229 1557.44793 640.96229 1557.44793 640.77148 1559.71472 C632.57025 1656.13253 607.93664 1748.26165 578 1840 C577.70396 1840.90806 577.40792 1841.81613 577.10291 1842.75171 C565.6748 1877.74331 552.45822 1912.15057 538 1946 C537.5025 1947.17281 537.005 1948.34561 536.49243 1949.55396 C519.43766 1989.73908 501.25507 2029.30325 482.12109 2068.53906 C477.65437 2077.69872 473.22796 2086.87761 468.81592 2096.06372 C461.96542 2110.29208 454.83614 2124.36141 447.4375 2138.3125 C447.05016 2139.04367 446.66281 2139.77484 446.26373 2140.52817 C439.30943 2153.64679 432.15223 2166.64529 424.896 2179.59912 C422.1645 2184.49865 419.46828 2189.41736 416.76904 2194.33472 C411.11639 2204.62764 405.41012 2214.86338 399.39453 2224.94922 C397.18674 2228.68409 395.03746 2232.44529 392.90259 2236.22192 C386.84332 2246.93595 380.50222 2257.46059 374.0813 2267.96143 C370.30944 2274.1447 366.62268 2280.34521 363.125 2286.6875 C359.74274 2292.80808 356.05003 2298.67904 352.21631 2304.52197 C348.96694 2309.47976 345.82364 2314.49361 342.75 2319.5625 C337.79934 2327.72122 332.75582 2335.8192 327.68628 2343.90454 C324.67545 2348.70931 321.67387 2353.51858 318.71484 2358.35547 C311.0435 2370.88631 303.00473 2383.13795 294.79932 2395.3252 C292.35474 2398.95922 289.92686 2402.60412 287.5 2406.25 C286 2408.5 284.5 2410.75 283 2413 C282.48744 2413.77175 281.97487 2414.54349 281.44678 2415.33862 C273.92447 2426.6502 266.30667 2437.89765 258.70508 2449.15601 C256.81605 2451.95402 254.92741 2454.7523 253.03906 2457.55078 C252.73444 2458.00219 252.73444 2458.00219 251.19286 2460.28661 C247.59349 2465.62448 244.01341 2470.97451 240.44922 2476.33594 C237.09358 2481.37802 233.69128 2486.37233 230.1875 2491.3125 C229.69234 2492.01069 229.19718 2492.70888 228.68701 2493.42822 C219.98886 2505.66996 211.1611 2517.81466 202.23315 2529.88965 C198.25857 2535.2714 194.33794 2540.68936 190.4375 2546.125 C184.13696 2554.88985 177.59562 2563.45606 171 2572 C170.13633 2573.13051 169.27266 2574.26102 168.38281 2575.42578 C162.99936 2582.46898 157.48912 2589.40129 151.9375 2596.3125 C148.41664 2600.73231 144.983 2605.21441 141.55078 2609.70312 C138.80417 2613.25311 136.00174 2616.75341 133.1875 2620.25 C128.88034 2625.61052 124.66067 2631.02523 120.5 2636.5 C115.38359 2643.23236 110.14676 2649.8506 104.84375 2656.4375 C102.12417 2659.84444 99.45927 2663.28632 96.8125 2666.75 C93.12257 2671.57033 89.34612 2676.30098 85.48438 2680.98438 C82.4528 2684.66421 79.44385 2688.36205 76.4375 2692.0625 C76.15604 2692.40869 76.15604 2692.40869 74.73169 2694.16064 C71.75913 2697.82045 68.80492 2701.49351 65.875 2705.1875 C62.88633 2708.94057 59.80144 2712.60024 56.6875 2716.25 C52.76819 2720.84786 49.00494 2725.53074 45.3125 2730.3125 C41.76279 2734.87425 38.14323 2739.02596 33.96484 2743.00781 C30.76263 2746.25459 28.00396 2749.85661 25.15234 2753.41016 C22.31407 2756.82536 19.13897 2759.86103 16 2763 C14.50472 2764.79923 13.0267 2766.61289 11.5625 2768.4375 C8.26316 2772.54074 4.81267 2776.24499 1.03516 2779.90234 C-2.16608 2783.2019 -4.96342 2786.81647 -7.83984 2790.39844 C-9.68528 2792.62097 -11.56407 2794.66807 -13.625 2796.6875 C-16.57823 2799.58604 -19.30124 2802.58871 -22.00391 2805.71875 C-28.20218 2812.80249 -34.67517 2819.64973 -41.0625 2826.5625 C-54.78064 2841.41789 -54.78064 2841.41789 -60.375 2847.875 C-64.45189 2852.57019 -68.70155 2857.10486 -72.9375 2861.65625 C-75.13914 2864.06008 -77.30013 2866.47809 -79.4375 2868.9375 C-82.86986 2872.87794 -86.41268 2876.70074 -90 2880.5 C-91.16675 2881.7395 -92.33341 2882.97909 -93.5 2884.21875 C-94.17217 2884.93104 -94.84433 2885.64333 -95.53687 2886.3772 C-97.44149 2888.40529 -99.33784 2890.44116 -101.23071 2892.48022 C-110.04156 2901.95912 -119.05457 2911.21132 -128.21851 2920.34888 C-130.46392 2922.58885 -132.70383 2924.83423 -134.94336 2927.08008 C-136.39812 2928.53418 -137.85318 2929.98796 -139.30859 2931.44141 C-139.96396 2932.09879 -140.61932 2932.75618 -141.29454 2933.43349 C-145.70543 2937.82236 -150.28808 2941.93558 -155 2946 C-156.54481 2947.41324 -158.08695 2948.8294 -159.625 2950.25 C-181.56914 2970.04743 -181.56914 2970.04743 -194 2968 C-203.1096 2964.03016 -210.61705 2956.4793 -218 2950 C-218.7425 2949.35805 -219.485 2948.71609 -220.25 2948.05469 C-222.17855 2946.38276 -224.09169 2944.69498 -226 2943 C-226.69609 2942.38512 -227.39219 2941.77023 -228.10938 2941.13672 C-240.47118 2930.12309 -252.45114 2918.70619 -264.04688 2906.89062 C-266.59677 2904.3947 -269.21149 2902.21468 -272 2900 C-273.60183 2898.16457 -275.20099 2896.32669 -276.78125 2894.47266 C-279.57368 2891.36067 -282.52829 2888.44104 -285.5 2885.5 C-289.03069 2882.00155 -292.51731 2878.5265 -295.75 2874.75 C-298.8838 2871.13408 -302.16254 2867.79754 -305.59375 2864.46875 C-308.22195 2861.77229 -310.67257 2858.95742 -313.13965 2856.11426 C-316.13689 2852.70795 -319.25722 2849.42066 -322.375 2846.125 C-329.15303 2838.92668 -335.83293 2831.65679 -342.3125 2824.1875 C-345.36364 2820.67939 -348.51935 2817.27767 -351.6875 2813.875 C-356.98438 2808.16151 -362.06799 2802.29501 -367.11328 2796.35938 C-370.5915 2792.31165 -374.17323 2788.36899 -377.77734 2784.43359 C-388.87696 2772.28059 -399.38285 2759.57254 -410 2747 C-411.8331 2744.83314 -413.66643 2742.66647 -415.5 2740.5 C-416.40363 2739.43137 -417.30727 2738.36273 -418.23828 2737.26172 C-420.10789 2735.05363 -421.98037 2732.84796 -423.85547 2730.64453 C-428.03286 2725.72961 -432.18452 2720.80845 -436.1875 2715.75 C-438.70195 2712.57494 -441.29005 2709.50989 -444 2706.5 C-449.10538 2700.81964 -453.78597 2694.82827 -458.49219 2688.81641 C-463.44055 2682.49829 -468.42663 2676.21786 -473.5 2670 C-480.33914 2661.61544 -487.01289 2653.1063 -493.67188 2644.57812 C-497.95774 2639.10312 -502.26848 2633.65801 -506.6875 2628.28955 C-513.20312 2620.36234 -519.34933 2612.21582 -525.39453 2603.92578 C-529.06678 2598.89136 -532.81116 2593.91312 -536.5625 2588.9375 C-541.84243 2581.92179 -547.03385 2574.84972 -552.15649 2567.71851 C-556.06403 2562.28211 -560.02022 2556.8837 -564 2551.5 C-569.08217 2544.62305 -574.11003 2537.70967 -579.10547 2530.76953 C-583.03392 2525.31916 -587.00716 2519.90334 -591 2514.5 C-597.24073 2506.05182 -603.41285 2497.55629 -609.54199 2489.02686 C-610.86055 2487.19385 -612.1839 2485.3643 -613.50781 2483.53516 C-620.528 2473.79262 -627.2692 2463.86451 -634.01123 2453.92871 C-635.91178 2451.12992 -637.8164 2448.33397 -639.72266 2445.53906 C-644.15841 2439.0328 -648.58054 2432.51734 -653 2426 C-653.53035 2425.21832 -654.0607 2424.43665 -654.60712 2423.63129 C-684.33084 2379.81808 -684.33084 2379.81808 -698 2358 C-699.2655 2355.99081 -700.53113 2353.98169 -701.79688 2351.97266 C-709.27639 2340.0739 -716.62599 2328.09883 -723.91406 2316.08203 C-726.3631 2312.044 -728.83024 2308.01773 -731.3125 2304 C-737.22703 2294.40616 -742.99484 2284.7269 -748.6875 2275 C-752.63678 2268.26731 -756.67616 2261.59541 -760.75 2254.9375 C-782.0198 2220.10401 -801.55236 2184.28329 -820.28638 2148.03101 C-823.87045 2141.11471 -827.55936 2134.26334 -831.3125 2127.4375 C-839.00297 2113.41313 -845.90338 2099.11417 -852.59399 2084.59204 C-857.0596 2074.9348 -861.69705 2065.36837 -866.375 2055.8125 C-884.06209 2019.59315 -900.06286 1982.6246 -915.25146 1945.2959 C-916.39437 1942.48793 -917.5404 1939.68123 -918.68994 1936.87598 C-940.57739 1883.41873 -959.13737 1828.8664 -975.29358 1773.42206 C-976.00014 1770.99953 -976.71029 1768.57808 -977.4209 1766.15674 C-994.70371 1707.13376 -1009.32402 1645.97786 -1015.60156 1584.74219 C-1015.9695 1581.28646 -1016.4036 1577.84917 -1016.875 1574.40625 C-1026.30004 1504.53875 -1023.95736 1429.75422 -1015 1360 C-1014.83693 1358.7198 -1014.67387 1357.4396 -1014.50586 1356.12061 C-1009.33965 1316.93663 -1000.45814 1277.80091 -989 1240 C-988.56188 1238.54932 -988.12376 1237.09864 -987.67236 1235.604 C-967.85627 1170.43283 -943.18737 1105.9454 -907.57617 1047.59229 C-905.97141 1044.95299 -904.3964 1042.29784 -902.82812 1039.63672 C-896.86091 1029.53633 -890.59191 1019.70789 -884 1010 C-882.70796 1008.02108 -881.41627 1006.04192 -880.125 1004.0625 C-867.91303 985.76898 -853.81075 968.56949 -839.89844 951.55078 C-837.4978 948.60984 -835.1158 945.65644 -832.75 942.6875 C-825.72817 933.89917 -818.58119 925.31271 -811 917 C-809.62464 915.45865 -808.24965 913.91698 -806.875 912.375 C-796.41186 900.77534 -785.65249 889.51949 -774.52197 878.55884 C-771.10435 875.17919 -767.76094 871.80462 -764.65625 868.13281 C-762.14701 865.17338 -759.47658 862.71324 -756.52344 860.20703 C-753.16213 857.26719 -749.93378 854.19021 -746.6875 851.125 C-741.54542 846.29109 -736.31384 841.67267 -730.79688 837.26562 C-727.53172 834.62067 -724.36289 831.877 -721.1875 829.125 C-715.45426 824.1903 -709.59076 819.47422 -703.61328 814.83984 C-700.46262 812.36359 -697.37153 809.82883 -694.29199 807.26514 C-685.86533 800.2831 -677.07735 794.03838 -667.9707 787.97852 C-664.50009 785.66706 -661.0393 783.34119 -657.57812 781.01562 C-654.92751 779.23894 -652.27647 777.4629 -649.625 775.6875 C-648.37767 774.85146 -647.13034 774.01542 -645.84521 773.15405 C-638.94914 768.55529 -631.99648 764.08472 -624.91553 759.77563 C-621.92893 757.95672 -618.9635 756.10625 -616 754.25 C-606.80139 748.59864 -597.41322 743.28341 -588 738 C-587.1207 737.50403 -586.2414 737.00807 -585.33545 736.49707 C-553.98684 718.89198 -521.54312 703.88309 -488 691 C-486.72463 690.50597 -485.44927 690.01193 -484.13525 689.50293 C-431.61077 669.26849 -376.88594 654.13636 -321.38281 644.80859 C-312.88918 642.77836 -312.88918 642.77836 -311 639 C-310.51247 630.97481 -311.08401 622.92806 -311.65625 614.92188 C-315.53713 560.13959 -316.56251 503.77246 -312 449 C-311.96347 448.55833 -311.96347 448.55833 -311.77863 446.32324 C-307.96134 400.68623 -302.51754 354.61395 -292 310 C-291.65856 308.54336 -291.31712 307.08672 -290.96533 305.58594 C-278.96535 254.93254 -262.77647 205.95635 -239.62646 159.28369 C-238.15033 156.3035 -236.69105 153.31585 -235.23828 150.32422 C-221.22457 121.62123 -203.5649 93.14529 -182.58203 68.98047 C-180.15573 66.17977 -177.82011 63.3263 -175.5 60.4375 C-170.57355 54.39694 -165.31478 48.69874 -160 43 C-158.79513 41.69051 -157.59072 40.3806 -156.38672 39.07031 C-148.91681 30.97655 -141.24452 23.31672 -133 16 C-132.21883 15.2691 -131.43766 14.5382 -130.63281 13.78516 C-90.05533 -23.99152 -43.81134 -42.58662 0 0 Z M-153.5437 329.59546 C-159.65187 342.13327 -164.85906 355.04262 -170 368 C-170.20158 368.49951 -170.20158 368.49951 -171.22168 371.02734 C-187.11256 410.53101 -196.33438 452.06955 -203 494 C-203.16484 495.01353 -203.32968 496.02705 -203.49951 497.07129 C-207.94181 524.56455 -210.08877 552.64846 -210.23828 580.48438 C-210.24803 582.00362 -210.25778 583.52286 -210.26782 585.08813 C-210.29273 589.97545 -210.30547 594.86262 -210.3125 599.75 C-210.3138 600.58439 -210.3151 601.41878 -210.31643 602.27846 C-210.34772 628.85293 -209.57713 655.10306 -206.30719 681.49585 C-205.98858 684.09305 -205.68468 686.69165 -205.38428 689.29102 C-199.23417 742.32437 -199.23417 742.32437 -193 747 C-191.01953 745.92188 -191.01953 745.92188 -188.8125 743.75 C-187.94496 742.91211 -187.07742 742.07422 -186.18359 741.21094 C-185.13301 740.15133 -184.08242 739.09172 -183 738 C-181.61637 736.61671 -180.23222 735.23393 -178.84766 733.85156 C-176.63777 731.64385 -174.43201 729.43296 -172.24146 727.20605 C-168.2636 723.17669 -164.18759 719.36012 -159.89746 715.66602 C-152.69095 709.33853 -145.93963 702.32676 -139.73438 695.01562 C-137.56779 692.49771 -135.31384 690.06736 -133.0625 687.625 C-128.47225 682.58054 -124.18457 677.3832 -120 672 C-118.96101 670.66791 -117.92194 669.33589 -116.88281 668.00391 C-114.48822 664.93145 -112.09832 661.85541 -109.71094 658.77734 C-107.30763 655.67973 -104.89643 652.5886 -102.47656 649.50391 C-84.46163 626.51376 -67.24092 602.93273 -52 578 C-51.19434 576.68516 -50.38867 575.37031 -49.55859 574.01562 C2.00361 488.0503 63.80473 353.88161 14 255 C2.56278 234.82095 -13.82376 219.91759 -37.75 219.5625 C-95.37972 219.98668 -131.20753 284.80162 -153.5437 329.59546 Z M-250.6875 1106.6875 C-251.67105 1107.50605 -252.65461 1108.32461 -253.66797 1109.16797 C-257.95315 1112.81012 -262.20075 1116.4946 -266.43896 1120.19116 C-270.17794 1123.44574 -273.9589 1126.63224 -277.8125 1129.75 C-282.16582 1133.27381 -286.3208 1136.96763 -290.45703 1140.74219 C-293.13777 1143.12232 -295.89504 1145.37732 -298.6875 1147.625 C-303.09681 1151.19208 -307.02992 1154.95501 -311 1159 C-312.95306 1160.70995 -314.90667 1162.41927 -316.86597 1164.12207 C-320.16836 1167.02814 -323.36466 1170.04239 -326.5625 1173.0625 C-327.96601 1174.38296 -329.36966 1175.70327 -330.77344 1177.02344 C-331.47694 1177.68569 -332.18045 1178.34795 -332.90527 1179.03027 C-336.15918 1182.09001 -339.42247 1185.13965 -342.6875 1188.1875 C-343.78449 1189.2123 -344.88148 1190.23711 -346.01172 1191.29297 C-348.22235 1193.35759 -350.44608 1195.40465 -352.68652 1197.43701 C-361.85405 1205.79206 -370.64627 1214.49322 -379.4043 1223.27393 C-381.88818 1225.76321 -384.37743 1228.24706 -386.86719 1230.73047 C-388.47168 1232.33562 -390.07585 1233.94107 -391.67969 1235.54688 C-392.0459 1235.91207 -392.0459 1235.91207 -393.89914 1237.76019 C-398.46872 1242.3504 -402.76784 1247.0969 -407 1252 C-408.27305 1253.28949 -409.56056 1254.56524 -410.875 1255.8125 C-414.78053 1259.65806 -418.16384 1263.81762 -421.58984 1268.08984 C-424.08563 1271.10339 -426.70124 1273.95617 -429.375 1276.8125 C-435.32628 1283.24253 -440.65443 1290.06501 -446 1297 C-447.07877 1298.36223 -448.15958 1299.72285 -449.24219 1301.08203 C-462.85562 1318.24086 -475.25298 1336.25347 -486.71533 1354.91406 C-487.8797 1356.80466 -489.06189 1358.68426 -490.24609 1360.5625 C-501.52088 1378.76766 -511.21385 1398.0586 -519 1418 C-519.3213 1418.81034 -519.6426 1419.62067 -519.97363 1420.45557 C-531.8325 1450.40296 -541.41012 1481.24181 -547 1513 C-547.26297 1514.40121 -547.52594 1515.80242 -547.79688 1517.24609 C-558.95397 1581.05782 -553.87258 1646.48117 -534 1708 C-533.67951 1708.99596 -533.35901 1709.99192 -533.02881 1711.01807 C-519.67702 1751.7089 -497.74989 1791.42566 -470.20312 1824.17578 C-467.75535 1827.09819 -465.38803 1830.04437 -463.0625 1833.0625 C-454.25158 1844.10403 -444.01808 1854.06601 -434.0625 1864.0625 C-433.28221 1864.84746 -432.50193 1865.63242 -431.698 1866.44116 C-426.9565 1871.16951 -422.08238 1875.63994 -417 1880 C-416.03578 1880.84562 -415.07156 1881.69125 -414.07812 1882.5625 C-371.4668 1919.28828 -321.64983 1942.99706 -268 1959 C-267.01661 1959.29858 -266.03321 1959.59716 -265.02002 1959.90479 C-250.92104 1964.13702 -236.65897 1967.18349 -222.1875 1969.8125 C-221.39626 1969.95756 -221.39626 1969.95756 -217.39209 1970.69165 C-198.18839 1974.05701 -179.2243 1975.40835 -159.75 1975.375 C-158.76418 1975.37579 -157.77836 1975.37657 -156.76266 1975.37738 C-102.32585 1975.32585 -102.32585 1975.32585 -93 1966 C-92.59633 1959.91303 -93.2907 1954.30238 -94.39844 1948.32422 C-94.54862 1947.50296 -94.6988 1946.6817 -94.85353 1945.83556 C-95.35285 1943.11802 -95.86388 1940.40283 -96.375 1937.6875 C-96.73566 1935.73692 -97.09575 1933.78623 -97.45532 1931.83545 C-99.39505 1921.35733 -101.40047 1910.89243 -103.44141 1900.43359 C-104.27391 1896.16415 -105.10601 1891.89464 -105.9375 1887.625 C-106.04258 1887.08588 -106.04258 1887.08588 -106.57437 1884.35764 C-110.06358 1866.40558 -113.16791 1848.40785 -116.11633 1830.35986 C-118.77916 1814.07585 -121.61867 1797.83754 -124.6875 1781.625 C-124.87772 1780.61949 -125.06793 1779.61398 -125.26392 1778.578 C-126.779 1770.58182 -128.30995 1762.58872 -129.84668 1754.59668 C-132.25384 1742.06665 -134.61115 1729.53708 -136.65234 1716.94141 C-136.79891 1716.03822 -136.94547 1715.13504 -137.09648 1714.20448 C-137.24713 1713.27615 -137.39777 1712.34782 -137.55298 1711.39136 C-141.83381 1685.02702 -146.77693 1658.8112 -151.90039 1632.5979 C-155.63132 1613.46341 -159.08226 1594.29883 -162.31354 1575.07376 C-163.35855 1568.87219 -164.42502 1562.67435 -165.49219 1556.47656 C-165.59016 1555.90641 -165.59016 1555.90641 -166.08595 1553.02107 C-167.75318 1543.32002 -169.43003 1533.62064 -171.11055 1523.92188 C-172.33333 1516.86325 -173.54836 1509.80335 -174.75623 1502.74216 C-175.47441 1498.55546 -176.20053 1494.37016 -176.92902 1490.18524 C-177.26483 1488.24673 -177.59738 1486.30765 -177.92645 1484.36798 C-178.37838 1481.70725 -178.84201 1479.04882 -179.30859 1476.39062 C-179.56439 1474.90595 -179.82019 1473.42127 -180.08374 1471.8916 C-181.19226 1467.1834 -182.55286 1463.44714 -186 1460 C-192.14642 1460.10749 -197.39587 1463.49641 -202.6875 1466.3125 C-203.70336 1466.85012 -204.71922 1467.38774 -205.76587 1467.94165 C-231.88036 1481.9446 -255.57605 1499.52804 -274 1523 C-274.51031 1523.64646 -275.02062 1524.29293 -275.54639 1524.95898 C-289.24048 1542.49609 -299.11803 1561.87081 -306 1583 C-306.39703 1584.17176 -306.79406 1585.34352 -307.20312 1586.55078 C-310.43099 1596.80044 -311.80067 1607.35721 -313 1618 C-313.16887 1619.47469 -313.33773 1620.94938 -313.51172 1622.46875 C-317.56126 1670.19242 -296.1068 1721.75844 -265 1757 C-264.36191 1757.74895 -263.72383 1758.49789 -263.06641 1759.26953 C-253.58532 1770.37094 -242.8604 1779.69718 -230.76562 1787.89844 C-230.0742 1788.3762 -229.38278 1788.85396 -228.67041 1789.34619 C-226.72321 1790.6826 -224.75657 1791.99055 -222.78906 1793.29688 C-219.30004 1796.67839 -219.21536 1798.29218 -220 1803 C-243.00343 1814.50172 -291.19422 1785.12508 -310.08252 1772.87012 C-327.08757 1761.61047 -344.11432 1748.97684 -357.21094 1733.16016 C-358.67951 1731.38697 -360.19668 1729.65416 -361.72656 1727.93359 C-399.0187 1685.68491 -417.51755 1624.7888 -417.3125 1569 C-417.31004 1568.19575 -417.31004 1568.19575 -417.29761 1564.12573 C-417.16577 1550.56897 -416.15622 1537.37839 -414 1524 C-413.83903 1522.97004 -413.67806 1521.94008 -413.51221 1520.87891 C-404.34886 1463.90946 -382.12853 1411.05947 -342.48828 1368.67188 C-340.41513 1366.44576 -338.4124 1364.18752 -336.4375 1361.875 C-329.87232 1354.32034 -322.62326 1347.46904 -315 1341 C-314.10281 1340.21367 -313.20563 1339.42734 -312.28125 1338.61719 C-288.03643 1317.61726 -260.82249 1299.99068 -232 1286 C-229.05958 1284.56848 -226.12201 1283.13109 -223.1875 1281.6875 C-221.88168 1281.05199 -220.57586 1280.41648 -219.23047 1279.76172 C-214.85438 1277.37524 -213.11339 1276.2855 -212.66406 1271.19141 C-212.89626 1264.68088 -214.18549 1258.328 -215.375 1251.9375 C-215.92464 1248.90498 -216.4741 1245.87242 -217.02344 1242.83984 C-217.33679 1241.12481 -217.65027 1239.40981 -217.96387 1237.69482 C-219.78868 1227.69194 -221.56157 1217.67966 -223.3457 1207.66946 C-224.21633 1202.78679 -225.08873 1197.90444 -225.96112 1193.02208 C-228.1062 1181.01598 -230.24977 1169.00963 -232.375 1157 C-232.61001 1155.67275 -232.84502 1154.3455 -233.08716 1152.97803 C-234.33212 1145.9102 -235.52731 1138.83633 -236.67871 1131.75269 C-240.50259 1108.24612 -240.50259 1108.24612 -244 1103 C-247.06337 1103 -248.35642 1104.74668 -250.6875 1106.6875 Z M-94 1441 C-93.97759 1444.60115 -93.65851 1447.5001 -93 1451 C-92.82324 1452.06783 -92.64647 1453.13565 -92.46436 1454.23584 C-91.82101 1458.05935 -91.13176 1461.87291 -90.4375 1465.6875 C-89.89065 1468.74066 -89.34515 1471.79406 -88.80078 1474.84766 C-88.65643 1475.65656 -88.51207 1476.46547 -88.36334 1477.29889 C-85.48775 1493.45305 -82.77823 1509.63664 -80.04541 1525.81543 C-79.34668 1529.95186 -78.64572 1534.0879 -77.94287 1538.22363 C-71.27159 1577.49734 -71.27159 1577.49734 -68.6875 1596.625 C-66.10297 1615.61454 -62.61712 1634.44348 -59.23047 1653.30273 C-56.28212 1669.72766 -53.40888 1686.16089 -50.6875 1702.625 C-50.52586 1703.60236 -50.36423 1704.57972 -50.19769 1705.5867 C-49.41963 1710.29572 -48.64403 1715.00514 -47.87012 1719.71484 C-46.28904 1729.33056 -44.67876 1738.94144 -43.07251 1748.55298 C-41.96988 1755.15712 -40.87337 1761.762 -39.80078 1768.37109 C-38.04342 1779.1472 -36.22863 1789.90556 -34.19141 1800.63281 C-34.111 1801.05643 -34.111 1801.05643 -33.70407 1803.2002 C-33.36961 1804.9613 -33.03515 1806.72241 -32.70068 1808.48352 C-29.52465 1825.21816 -26.69507 1841.97423 -24.125 1858.8125 C-21.44227 1876.33495 -18.5408 1893.80637 -15.35126 1911.24423 C-14.91153 1913.64956 -14.47516 1916.0555 -14.0423 1918.46207 C-13.43873 1921.80753 -12.82134 1925.15013 -12.19922 1928.49219 C-12.02137 1929.48558 -11.84353 1930.47897 -11.66029 1931.50246 C-9.94731 1940.51678 -9.94731 1940.51678 -7 1944 C-1.87948 1945.28013 1.18523 1943.74308 5.875 1941.8125 C6.75052 1941.45591 7.62603 1941.09933 8.52808 1940.73193 C36.0984 1929.15499 61.59779 1911.80354 83 1891 C83.6397 1890.38608 84.27939 1889.77217 84.93848 1889.13965 C113.99036 1861.2014 135.85254 1825.65712 150 1788 C150.33081 1787.12988 150.66161 1786.25977 151.00244 1785.36328 C154.97312 1774.75314 157.87381 1763.99711 160.3125 1752.9375 C160.55517 1751.85114 160.79783 1750.76479 161.04785 1749.64551 C164.4591 1733.31302 165.33867 1716.90433 165.26074 1700.27319 C165.25002 1697.56667 165.26073 1694.8608 165.27344 1692.1543 C165.28798 1675.64416 164.35667 1659.09381 160.75 1642.9375 C160.53094 1641.9355 160.31188 1640.93349 160.08618 1639.90112 C147.87119 1585.49201 118.78838 1532.34389 76 1496 C75.15051 1495.26137 74.30102 1494.52273 73.42578 1493.76172 C31.51313 1457.91011 -23.56136 1436.3498 -78.875 1435.4375 C-79.82584 1435.41059 -80.77669 1435.38368 -81.75635 1435.35596 C-87.53996 1435.3887 -90.98493 1435.83784 -94 1441 Z " fill="url(#mmGold)" transform="translate(1113,119)"/></g>
</svg>
