<svg version="1.2" baseProfile="tiny-ps" xmlns="http://www.w3.org/2000/svg" viewBox="0 0 1024 1024"><title>MusicalMap</title><rect width="1024" height="1024" fill="#ffffff"/><path d="M0 0 C2.5346 8.1375 3.4548 13.1466 -2 20 C-6.021 24.253 -10.2291 28.1181 -14.6602 31.9453 C-19.8714 36.5214 -24.9189 41.2806 -30 46 C-31.2617 47.1667 -32.5234 48.3334 -33.7852 49.5 C-54.1584 68.3727 -54.1584 68.3727 -62.7617 79.207 C-64.2695 81.0884 -65.8151 82.9401 -67.3945 84.7617 C-84.6106 104.6348 -97.8021 129.1136 -103 155 C-103.205 155.9694 -103.4099 156.9388 -103.6211 157.9375 C-111.2034 200.6078 -97.5952 243.7659 -68 275 C-67.1673 275.8972 -66.3345 276.7944 -65.4766 277.7188 C-50.2412 293.6243 -30.2891 305.3157 -9 311 C-7.6787 311.3906 -6.3574 311.7812 -4.9961 312.1836 C8.8223 315.6532 22.6497 315.2591 36.7949 314.8528 C38.4404 314.8189 40.0859 314.7849 41.7812 314.75 C43.2669 314.7036 44.7525 314.6572 46.2832 314.6094 C50.5681 315.0597 51.6841 315.4082 54 319 C55.0967 322.6692 55.0967 322.6692 55.9219 327.1133 C55.997 327.5125 55.997 327.5125 56.3769 329.5327 C56.855 332.1228 57.3052 334.7165 57.75 337.3125 C57.9047 338.1922 58.0595 339.0718 58.2189 339.9781 C62.0573 361.9896 66.3969 387.8626 48.1875 404.875 C37.6279 413.3426 23.9446 415.8899 11 412 C7 410 7 410 6 406 C9.0978 403.8311 12.3706 402.2182 15.7305 400.4883 C24.668 393.6863 23.5871 383.3215 23.625 373.0625 C23.6504 370.2616 23.6838 367.4608 23.7266 364.6602 C23.7325 363.4292 23.7385 362.1982 23.7446 360.9299 C24 358 24 358 26 356 C31.3286 356.1184 33.649 357.9788 37 362 C37.33 362.99 37.66 363.98 38 365 C39.32 365 40.64 365 42 365 C42.9448 353.6624 37.2046 348.8356 28.875 342.2969 C26 340 26 340 23.875 337.7031 C22 336 22 336 18 336 C17.9953 336.4314 17.9953 336.4314 17.9717 338.6145 C17.9181 342.5144 17.8344 346.4131 17.75 350.3125 C17.7358 351.6705 17.7216 353.0286 17.707 354.4277 C17.6748 355.7265 17.6426 357.0252 17.6094 358.3633 C17.5884 359.5625 17.5675 360.7617 17.5459 361.9973 C17 365 17 365 13 368 C9.6797 368.1523 9.6797 368.1523 5.875 367.9375 C-5.3798 367.7194 -12.3085 370.834 -19.1875 379.875 C-24.5277 389.0823 -24.0763 398.3529 -20 408 C-8.5053 425.9104 10.5529 429.0622 30.521 428.1909 C48.8474 426.7795 63.6778 414.7924 72 399 C81.0054 377.3452 79.0241 355.3901 74.7788 332.7095 C71.7461 316.3049 71.7461 316.3049 73 310 C76.3994 307.4505 78.7062 306.1817 82.5625 304.6875 C115.7103 291.1471 140.6902 261.3171 145.7188 225.3438 C148.1029 196.9991 140.9996 171.3546 122 150 C121.3232 149.2279 120.6465 148.4557 119.9492 147.6602 C102.6918 129.1677 78.2126 120.1872 53.2976 120.54 C47.1918 120.5199 44.7619 119.7994 41 115 C39.9575 111.4065 39.9575 111.4065 39.3828 107.2852 C39.2758 106.5398 39.2758 106.5398 38.7344 102.7676 C38.5333 101.2149 38.3322 99.6622 38.125 98.0625 C38.0129 97.2881 38.0129 97.2881 37.4453 93.3691 C35.5618 79.7429 35.8332 73.8475 46.9375 65 C63.8774 51.3888 76.4016 34.655 88.4453 16.7617 C91.6551 12.0353 91.6551 12.0353 95.0508 11.6875 C99.9326 12.0738 102.9038 13.6453 107.1875 16 C107.9329 16.4094 108.6783 16.8187 109.4463 17.2405 C129.8256 28.5903 148.8746 43.3299 163 62 C163.8959 63.1653 164.7918 64.3306 165.7148 65.5312 C171.8569 73.687 177.1955 81.9967 182 91 C182.2913 91.5188 182.2913 91.5188 183.7656 94.1445 C217.4574 156.8992 201.8845 230.7146 173 292 C172.4977 293.077 171.9955 294.154 171.478 295.2637 C159.4204 321.0235 146.1433 345.9232 131 370 C130.3365 371.057 129.6729 372.1141 128.9893 373.2031 C122.0563 384.2175 115.098 395.1845 107.4141 405.6953 C105.1198 408.836 102.8789 412.0104 100.6497 415.1975 C90.3323 429.9326 79.4199 444.1078 68 458 C67.1853 459.0106 66.3706 460.0213 65.5312 461.0625 C60.9765 466.7079 56.2347 472.1257 51.3203 477.4609 C49.4158 479.5449 47.5738 481.6587 45.75 483.8125 C42.249 487.8256 38.5424 491.6383 34.8125 495.4375 C34.2057 496.0657 33.5988 496.6939 32.9736 497.3411 C29.9227 500.4152 28.2886 501.9278 24 503 C16.9523 499.9523 11.799 492.8716 6.875 487.1562 C4.8264 484.8004 2.728 482.4949 0.625 480.1875 C-3.3269 475.8136 -7.0528 471.2903 -10.7578 466.707 C-12.8948 464.127 -15.1074 461.6529 -17.375 459.1875 C-22.339 453.7194 -26.8763 447.9583 -31.3779 442.1064 C-32.5134 440.6319 -33.6523 439.1602 -34.7939 437.6904 C-62.2124 402.3858 -86.3183 364.6309 -107 325 C-107.6088 323.8384 -108.2175 322.6768 -108.8447 321.48 C-148.5464 245.2888 -173.4955 153.9462 -124 76 C-117.7174 66.7555 -110.7532 58.0537 -103 50 C-101.8901 48.827 -100.7802 47.6539 -99.6367 46.4453 C-85.8249 32.0687 -19.4854 -19.4854 0 0 Z " fill="#14334c" transform="translate(487,338)"/><path d="M0 0 C35.65 36.6205 40.5683 99.6301 28.6875 147 C17.7199 185.4026 -4.154 219.0099 -33.9375 245.625 C-38.091 250.4078 -36.9626 255.8309 -36.0742 261.75 C-35.8544 263.2466 -35.6346 264.7432 -35.4082 266.2852 C-35.1704 267.8411 -34.9325 269.397 -34.6875 271 C-34.4613 272.525 -34.235 274.0499 -34.002 275.6211 C-33.5538 278.6405 -33.0981 281.6588 -32.6343 284.6758 C-32.223 287.4799 -31.851 290.2901 -31.5259 293.1055 C-31.3794 294.3494 -31.2329 295.5934 -31.082 296.875 C-30.9671 297.9655 -30.8521 299.0561 -30.7336 300.1797 C-29.8473 303.5871 -28.8142 304.9117 -26 307 C-22.5667 307.3282 -19.3687 307.4542 -15.9375 307.4375 C17.0172 308.1733 46.0813 325.7596 63 354 C80.261 386.0952 78.7189 422.5441 59.6875 453.5 C47.2172 471.734 31.0888 484.8003 10.9727 493.6758 C9.9917 494.1128 9.0107 494.5498 8 495 C6.885 495.3029 5.7699 495.6059 4.6211 495.918 C-0.5812 500.0503 1.6371 507.4564 2.4922 513.4497 C3.1206 517.1624 3.808 520.8612 4.5 524.5625 C6.3063 534.9733 7.494 545.1137 7.5 555.6875 C7.5029 556.2206 7.5029 556.2206 7.5176 558.9182 C7.1825 580.1474 -2.5649 599.4772 -21 610.5625 C-38.2569 619.5167 -61.7049 620.9217 -78.8398 610.5039 C-90.7862 602.1868 -96.9568 592.9256 -96 578 C-93.0389 566.8001 -88.2538 560.4014 -77.2227 555.8555 C-73.4453 554.8528 -70.2131 554.8758 -66.3125 555 C-59.3314 555.221 -59.3314 555.221 -56 553 C-55.6152 550.342 -55.6152 550.342 -55.5938 547.0039 C-55.5718 545.8057 -55.5499 544.6075 -55.5273 543.373 C-55.5183 542.1156 -55.5093 540.8581 -55.5 539.5625 C-55.4822 537.0845 -55.4515 534.6066 -55.4062 532.1289 C-55.3992 531.0262 -55.3921 529.9235 -55.3848 528.7874 C-55 526 -55 526 -52 523 C-47.4461 523.9587 -45.1324 526.7252 -42 530 C-40.4813 531.2733 -38.9602 532.544 -37.4375 533.8125 C-32.2065 538.4584 -29 542.7696 -29 550 C-29.33 550.99 -29.66 551.98 -30 553 C-35.4133 553 -35.2289 551.3299 -38 547 C-43.3272 544.3364 -43.3272 544.3364 -47 546 C-47.5959 548.8164 -47.5959 548.8164 -47.5664 552.5625 C-47.5719 553.2399 -47.5719 553.2399 -47.5996 556.668 C-47.5874 558.0975 -47.5751 559.5271 -47.5625 561 C-47.4389 581.6396 -47.4389 581.6396 -54.2188 588.1211 C-54.9716 588.5555 -55.7244 588.9899 -56.5 589.4375 C-57.2528 589.89 -58.0056 590.3424 -58.7812 590.8086 C-60.834 591.9109 -62.916 592.958 -65 594 C-65 595.32 -65 596.64 -65 598 C-50.2509 603.8343 -36.3666 600.3044 -23.75 591.8125 C-15.0509 582.9157 -11.3992 571.618 -11.375 559.3125 C-11.3727 558.3757 -11.3703 557.4388 -11.3679 556.4736 C-11.6157 545.9317 -13.4666 535.6055 -15.3125 525.25 C-15.4668 524.3699 -15.6212 523.4897 -15.7802 522.5829 C-16.2294 520.0572 -16.6981 517.5361 -17.1758 515.0156 C-17.3146 514.2797 -17.3146 514.2797 -18.0168 510.5557 C-19 507 -19 507 -22 504 C-25.6033 503.7229 -25.6033 503.7229 -30.1211 503.8477 C-30.9454 503.863 -30.9454 503.863 -35.1172 503.9407 C-35.987 503.9614 -36.8568 503.9822 -37.7529 504.0036 C-52.6062 504.3296 -66.6324 504.2472 -81 500 C-82.2697 499.661 -83.5395 499.322 -84.8477 498.9727 C-104.381 493.201 -121.3448 481.9059 -136 468 C-136.9707 467.0938 -137.9413 466.1876 -138.9414 465.2539 C-172.2408 433.2304 -185.6304 383.7932 -175 339 C-162.9949 292.5712 -129.3395 254.2619 -92.4414 224.9688 C-89.5655 222.6496 -86.7789 220.2489 -84.0195 217.793 C-82.5508 216.489 -81.0669 215.2022 -79.5742 213.9258 C-78.766 213.2284 -77.9577 212.531 -77.125 211.8125 C-76.3851 211.1796 -75.6452 210.5466 -74.8828 209.8945 C-70.177 205.1595 -70.0376 199.7323 -71.6406 193.5156 C-73.6403 187.3597 -73.6403 187.3597 -75 186 C-80.9161 185.5618 -86.1248 186.846 -91.75 188.5 C-92.6703 188.7692 -93.5906 189.0383 -94.5388 189.3157 C-122.1278 197.6479 -147.2716 211.9473 -168 232 C-168.5304 232.4989 -168.5304 232.4989 -171.2148 235.0234 C-218.3533 280.4244 -232.0193 349.0791 -217.3125 411.375 C-209.6337 442.285 -198.6221 471.6569 -184.417 500.1514 C-183.087 502.825 -181.7784 505.5079 -180.4766 508.1953 C-152.4087 565.7791 -113.9798 619.4232 -71.0039 666.7812 C-69.1869 668.7931 -67.4006 670.8266 -65.625 672.875 C-64.4182 674.2514 -63.2097 675.6262 -62 677 C-61.0964 678.0325 -60.1927 679.0651 -59.2617 680.1289 C-58.2885 681.2207 -57.3152 682.3126 -56.3125 683.4375 C-55.4011 684.4675 -54.4898 685.4974 -53.5508 686.5586 C-51 689 -51 689 -47 690 C-41.6684 687.763 -37.7474 683.0471 -33.75 679 C-32.9907 678.2361 -32.2315 677.4723 -31.4492 676.6853 C-26.6624 671.8209 -22.1737 666.8359 -17.9609 661.4609 C-15.9457 658.9319 -13.8171 656.5642 -11.625 654.1875 C-7.0091 649.1205 -2.81 643.7687 1.3906 638.3555 C3.4989 635.6444 5.6403 632.972 7.8125 630.3125 C11.6963 625.4738 15.3805 620.4927 19.0625 615.5 C19.6404 614.7167 20.2183 613.9333 20.8137 613.1262 C81.2956 530.7368 154.589 415.8526 114.1182 288.4976 C103.9305 265.7421 87.5642 242.6389 68 227 C66.8811 226.1054 65.7622 225.2108 64.6094 224.2891 C55.9497 217.5787 47.0255 211.8289 37.4727 206.4727 C36.7432 206.0616 36.0138 205.6506 35.2622 205.2271 C33.6858 204.372 32.085 203.5608 30.4683 202.7847 C24.3486 199.7496 24.3486 199.7496 22.6992 196.2031 C23.1147 191.7786 24.7464 188.6723 26.8125 184.75 C27.5408 183.3423 28.2691 181.9347 29.0195 180.4844 C31 177 31 177 33 175 C75.2085 176.5464 117.1403 234.3998 135 268 C135.3532 268.6639 135.3532 268.6639 137.1406 272.0234 C157.2359 312.293 163.2491 361.8842 154 406 C153.8226 406.9012 153.6452 407.8024 153.4624 408.731 C145.9297 446.2409 131.0051 481.9025 114 516 C113.448 517.1081 112.8959 518.2162 112.3271 519.3579 C100.7145 542.5268 87.324 564.3186 73.0376 585.918 C71.6254 588.054 70.2165 590.1922 68.8101 592.332 C56.2715 611.4086 43.3541 629.9302 28.832 647.5508 C26.5944 650.2761 24.4008 653.0189 22.25 655.8125 C15.5194 664.5324 8.4247 672.8663 1 681 C-0.5013 682.6655 -2.0013 684.3322 -3.5 686 C-12.5 696 -12.5 696 -14.7734 698.5195 C-16.2041 700.1133 -17.6267 701.7143 -19.0391 703.3242 C-23.798 708.7159 -28.7557 713.8891 -33.8125 719 C-34.4591 719.6596 -35.1058 720.3192 -35.772 720.9988 C-42.8545 728.0952 -42.8545 728.0952 -47.9558 727.8689 C-51.474 726.8647 -53.0743 725.614 -55.707 723.0977 C-56.5676 722.2831 -57.4283 721.4686 -58.3149 720.6294 C-59.201 719.7617 -60.0871 718.894 -61 718 C-61.877 717.1491 -62.7541 716.2981 -63.6577 715.4214 C-66.3541 712.7793 -69.0239 710.1127 -71.6875 707.4375 C-72.5853 706.5435 -73.4832 705.6496 -74.4082 704.7285 C-79.486 699.6433 -84.3304 694.4619 -89 689 C-90.0364 687.8102 -91.0728 686.6204 -92.1406 685.3945 C-111.7028 662.8587 -111.7028 662.8587 -120.2773 651.5664 C-122.2721 648.9535 -124.2825 646.3594 -126.3164 643.7773 C-133.2111 635.0154 -139.8551 626.1395 -146.2188 616.9844 C-148.6837 613.4531 -151.2071 609.9752 -153.75 606.5 C-160.5336 597.0138 -166.7072 587.1247 -172.9331 577.2681 C-174.9275 574.1147 -176.9336 570.969 -178.9414 567.8242 C-190.4085 549.7773 -200.6446 531.2275 -210 512 C-210.8604 510.272 -211.7211 508.5442 -212.582 506.8164 C-227.9963 475.5899 -239.9118 442.1063 -247 408 C-247.1044 407.5332 -247.1044 407.5332 -247.6328 405.1709 C-253.7694 377.2939 -253.9064 344.735 -247 317 C-246.7804 316.1014 -246.5608 315.2027 -246.3345 314.2769 C-241.7296 295.9258 -234.7882 278.7576 -226 262 C-225.5321 261.05 -225.0641 260.0999 -224.582 259.1211 C-220.1217 250.3444 -214.0257 242.735 -208 235 C-207.2923 234.0641 -206.5846 233.1283 -205.8555 232.1641 C-175.2259 192.8954 -131.2353 169.131 -83.2109 158.8594 C-80 158 -80 158 -78 156 C-77.7889 152.607 -77.6987 149.2895 -77.6914 145.8945 C-77.6662 143.7728 -77.6408 141.651 -77.6152 139.5293 C-77.5869 136.2063 -77.5629 132.8834 -77.5437 129.5603 C-77.2664 89.3831 -70.7817 46.6999 -44 15 C-43.5675 14.4863 -43.5675 14.4863 -41.3789 11.8867 C-30.1782 -0.871 -15.5505 -14.8128 0 0 Z M-45 93 C-53.0784 116.7973 -60.7751 157.4498 -49 181 C-37.5298 180.9218 -29.1289 165.1256 -23 157 C-22.1518 155.8966 -21.3036 154.7931 -20.4297 153.6562 C-3.2318 130.5819 14.5097 95.3565 6 66 C2.6693 58.4127 -1.2779 53.1444 -9.8125 51.4375 C-29.6377 54.9361 -38.6285 76.191 -45 93 Z M-70.3125 276.5625 C-71.2819 277.4855 -72.2513 278.4084 -73.25 279.3594 C-74.1575 280.2308 -75.065 281.1022 -76 282 C-77.2621 283.1142 -78.532 284.2196 -79.8125 285.3125 C-88.689 293.0519 -97.512 300.8864 -105 310 C-105.7541 310.8546 -106.5082 311.7093 -107.2852 312.5898 C-132.9687 342.1636 -145.4403 381.8471 -133 420 C-120.131 455.0638 -91.5384 478.0398 -55.125 485.3125 C-29.9443 488.9443 -29.9443 488.9443 -23 482 C-22.6072 476.4971 -23.503 471.3899 -24.4971 465.9856 C-24.6565 465.1096 -24.8158 464.2336 -24.9801 463.3311 C-25.5068 460.4449 -26.0423 457.5604 -26.5781 454.6758 C-26.9502 452.6487 -27.3217 450.6215 -27.6928 448.5943 C-28.4726 444.341 -29.2564 440.0886 -30.0435 435.8367 C-31.0416 430.4444 -32.0331 425.051 -33.0219 419.657 C-33.9759 414.4545 -34.9331 409.2526 -35.8906 404.0508 C-36.0682 403.0849 -36.2458 402.119 -36.4287 401.1239 C-37.4376 395.6437 -38.459 390.1662 -39.4952 384.6912 C-40.0204 381.8915 -40.5299 379.0892 -41.0399 376.2867 C-41.3824 374.4608 -41.7255 372.635 -42.0693 370.8093 C-42.3687 369.1869 -42.6681 367.5644 -42.9765 365.8927 C-44 362 -44 362 -47 359 C-58.8008 359.5117 -68.7447 371.3104 -73.875 381.0625 C-81.4674 397.7556 -78.8127 414.6065 -68.7812 429.5625 C-67.5026 431.3122 -66.1609 433.0164 -64.7812 434.6875 C-63 437 -63 437 -63 439 C-80.2198 435.8111 -91.8224 423.0883 -97.9297 407.2539 C-105.9936 382.7383 -100.955 355.9738 -84.0781 336.2305 C-75.9561 327.5131 -66.2518 320.6052 -55.5742 315.2969 C-49.359 309.7512 -54.03 296.9677 -55.375 289.6875 C-55.5967 288.4262 -55.8184 287.1648 -56.0469 285.8652 C-57.7395 276.521 -57.7395 276.521 -60 272 C-65.8323 272 -66.314 272.6797 -70.3125 276.5625 Z M-23 354 C-23.4968 360.8031 -22.515 367.2476 -21.3953 373.9482 C-21.2245 375.0047 -21.0538 376.0611 -20.8779 377.1495 C-20.3153 380.6166 -19.7422 384.0817 -19.168 387.5469 C-18.7713 389.9658 -18.3749 392.3848 -17.9788 394.8038 C-17.1489 399.8614 -16.3135 404.918 -15.4744 409.9741 C-14.3996 416.4542 -13.3412 422.9367 -12.2871 429.4201 C-11.4735 434.4107 -10.6501 439.3997 -9.8239 444.3882 C-9.4295 446.7783 -9.0384 449.1689 -8.6507 451.5601 C-8.1082 454.8983 -7.5523 458.2339 -6.9929 461.5693 C-6.8354 462.5565 -6.6779 463.5436 -6.5156 464.5606 C-5.0184 473.3275 -5.0184 473.3275 -2 477 C7.3037 478.8976 18.1603 468.8122 24.1328 462.3398 C39.1461 443.5261 47.146 417.3983 38 394 C28.5082 371.9262 12.2935 356.1082 -12 352 C-19.4894 351.6596 -19.4894 351.6596 -23 354 Z " fill="#c4a25c" transform="translate(559,150)"/></svg>
