<svg version="1.2" baseProfile="tiny-ps" xmlns="http://www.w3.org/2000/svg" viewBox="0 0 512 512"><title>MusicalMap</title><rect width="512" height="512" fill="#ffffff"/><path d="M0 0 C1 1 1 1 1.6875 4.5 C1.6482 7.6472 1.1842 8.7829 -0.8789 11.2148 C-3.5206 13.5671 -6.2403 15.7877 -9 18 C-10.6976 19.5096 -12.3854 21.0302 -14.0625 22.5625 C-16.4244 24.7037 -18.7839 26.8216 -21.2422 28.8516 C-31.402 37.3482 -39.2586 48.1072 -45 60 C-45.3764 60.6987 -45.7528 61.3973 -46.1406 62.1172 C-53.1908 76.0596 -53.4887 92.8711 -49.375 107.6875 C-43.2626 125.348 -32.8469 138.2651 -15.9883 146.4648 C-5.9873 150.8827 3.2438 152.3237 14.125 152.125 C15.0815 152.116 16.038 152.107 17.0234 152.0977 C19.3492 152.0744 21.6745 152.0417 24 152 C30.5598 183.6852 30.5598 183.6852 25 193 C21.3628 197.1075 17.1432 199.7554 11.6406 200.1836 C7.0062 200.3001 3.1866 200.2329 -1 198 C-1 197.34 -1 196.68 -1 196 C0.7253 195.3815 2.4505 194.763 4.1758 194.1445 C6.8627 192.4587 7.7026 190.9037 9 188 C9.4797 185.066 9.6004 182.1562 9.6875 179.1875 C9.7217 178.3992 9.7558 177.611 9.791 176.7988 C9.873 174.8664 9.9382 172.9332 10 171 C13.8834 172.411 15.7608 173.4644 18 177 C17.9298 173.4905 17.8512 170.9064 15.375 168.2695 C14.1077 167.2347 12.8148 166.2302 11.4961 165.2617 C11.0024 164.8454 10.5087 164.429 10 164 C10 163.34 10 162.68 10 162 C9.01 162 8.02 162 7 162 C7 167.28 7 172.56 7 178 C4 179 4 179 1.75 178.375 C-2.1914 177.8375 -4.5219 179.1966 -8 181 C-10.5242 183.0194 -10.9483 183.845 -12 187 C-12.3953 192.2378 -12.0279 195.6474 -9 200 C-1.1782 206.1611 6.2152 206.7882 16 206 C22.2323 204.5886 26.6689 202.0888 30.7461 197.1719 C34.2953 191.0244 35.4791 185.423 35.3125 178.375 C35.3041 177.5981 35.2957 176.8212 35.2871 176.0208 C35.1615 169.887 34.4782 163.9669 33.4375 157.918 C33.0334 155.223 32.9196 152.719 33 150 C34.1228 149.4547 35.2455 148.9095 36.4023 148.3477 C49.7142 141.7148 58.7436 134.9347 65 121 C65.1343 120.7012 65.1343 120.7012 65.8137 119.1892 C67.9222 114.121 68.5117 109.6533 68.4375 104.1875 C68.4299 103.4 68.4224 102.6124 68.4146 101.801 C68.0655 89.386 62.7331 79.2723 53.8125 70.75 C45.2895 63.5712 34.6563 59.7007 23.5 60.0625 C22.345 60.0419 21.19 60.0213 20 60 C16.1881 54.2822 15.0997 47.3291 15.4072 40.5083 C17.1464 33.1491 25.2122 28.4854 30.7783 23.9746 C34.2619 20.8784 36.9091 17.3111 39.5625 13.5 C39.7914 13.1731 39.7914 13.1731 40.95 11.5186 C41.9818 10.0227 42.9935 8.513 44 7 C57.223 9.0361 71.4181 22.1808 79.1851 32.5879 C84.3596 39.947 88.6921 47.6191 92 56 C92.1476 56.3667 92.1476 56.3667 92.8945 58.2227 C103.8542 87.9704 93.0466 119.8108 80.6875 147.1875 C66.5986 177.6068 46.4138 206.7977 23.5195 231.2969 C20.7219 234.2984 18.02 237.3705 15.3398 240.4766 C14.2711 241.6917 13.1443 242.8557 12 244 C6.2867 243.5928 2.5951 237.9331 -1 234 C-3.2255 231.407 -5.3811 228.7731 -7.5117 226.1016 C-9.2792 223.8985 -11.0642 221.7349 -12.8945 219.5859 C-37.6348 190.2913 -58.9315 154.8538 -70 118 C-70.1277 117.5815 -70.1277 117.5815 -70.7739 115.4634 C-77.6864 92.1365 -77.5 68.345 -66.1326 46.5388 C-54.0334 24.3398 -35.5472 8.7323 -11.3125 1.5 C-7.4434 0.4452 -4.0181 -0.2896 0 0 Z " fill="#163150" transform="translate(244,169)"/><path d="M0 0 C11.2807 9.4222 16.4818 25.7961 18 40 C19.4225 68.489 12.6843 91.3951 -6.3047 113.0469 C-9.2574 116.282 -12.3102 119.3577 -15.5391 122.3164 C-17.1744 124.201 -17.6052 125.5619 -18 128 C-17.01 128.33 -16.02 128.66 -15 129 C-15.1734 129.2411 -15.1734 129.2411 -16.0508 130.4609 C-17.4792 134.2817 -16.7447 137.6477 -16.1875 141.625 C-16.0915 142.401 -15.9954 143.177 -15.8965 143.9766 C-15.1584 149.6832 -15.1584 149.6832 -14 152 C-12.9481 151.9381 -11.8963 151.8762 -10.8125 151.8125 C1.938 151.8801 13.5304 156.5253 22.8125 165.1875 C32.7164 175.7126 35.7137 187.4318 35.3789 201.4766 C35.0197 207.6494 33.0384 212.6528 30 218 C29.5424 218.8082 29.0848 219.6165 28.6133 220.4492 C27.1885 222.7483 25.6663 224.8702 24 227 C23.7364 227.3384 23.7364 227.3384 22.4023 229.0508 C16.3351 235.9181 8.187 239.2642 0 243 C0.1424 245.0419 0.2891 247.0835 0.4375 249.125 C0.5187 250.262 0.5999 251.3989 0.6836 252.5703 C1 256 1 256 1.5156 258.8789 C3.047 268.7467 3.8542 280.4748 -2 289 C-2.2063 289.321 -2.2063 289.321 -3.25 290.9453 C-7.0795 296.1455 -11.7698 298.5517 -18 300 C-26.2228 300.9787 -33.8195 300.3725 -41 296 C-44.9949 292.4664 -46.8532 288.9812 -47.25 283.625 C-46.8994 278.5412 -45.2933 276.2933 -41.75 272.75 C-38.4062 270.6221 -35.9366 270.2147 -32 270 C-30.68 270.33 -29.36 270.66 -28 271 C-27.835 268.36 -27.835 268.36 -27 255 C-24 255 -24 255 -21.5625 257.1875 C-20.7169 258.1156 -19.8713 259.0437 -19 260 C-18.2369 260.825 -17.4737 261.65 -16.6875 262.5 C-14.7936 265.3058 -14.6216 266.6886 -15 270 C-15.66 270.33 -16.32 270.66 -17 271 C-17.4125 270.2163 -17.825 269.4325 -18.25 268.625 C-20.0838 265.8743 -21.0799 265.2911 -24 264 C-23.9826 264.5846 -23.9826 264.5846 -23.8945 267.543 C-23.8664 269.0911 -23.8391 270.6393 -23.8125 272.1875 C-23.7874 272.9564 -23.7622 273.7254 -23.7363 274.5176 C-23.6759 279.213 -24.0015 282.1572 -27 286 C-30.0149 288.8204 -30.6672 289 -35 289 C-34 291 -34 291 -32.2344 291.6055 C-25.5913 292.7785 -19.6399 292.6623 -13.6914 289.2734 C-9.8306 286.3667 -7.9128 282.6364 -7 278 C-6.4792 270.5482 -7.4599 263.2401 -8.5 255.875 C-8.6431 254.8231 -8.7862 253.7713 -8.9336 252.6875 C-9.2831 250.1241 -9.6387 247.5617 -10 245 C-10.5868 245.1601 -11.1737 245.3202 -11.7783 245.4851 C-26.857 248.9797 -43.8938 244.6394 -56.9648 237.043 C-70.8213 227.7162 -82.3248 213.0325 -85.6875 196.3242 C-88.6418 174.3515 -84.2718 156.2239 -71 138 C-63.5461 128.3739 -55.1175 120.0329 -46 112 C-45.5946 111.6378 -45.5946 111.6378 -43.543 109.8047 C-38.4618 105.2986 -38.4618 105.2986 -35.8008 103.5781 C-34 102 -34 102 -33.6094 99.957 C-33.6558 99.2493 -33.7022 98.5416 -33.75 97.8125 C-33.8325 96.5544 -33.915 95.2962 -34 94 C-50.2282 95.0819 -65.7754 102.4361 -78 113 C-78.7245 113.5698 -79.4489 114.1395 -80.1953 114.7266 C-95.6348 127.3686 -105.5528 147.3429 -108 167 C-109.3805 182.3371 -107.4548 196.3335 -103 211 C-102.7643 211.7991 -102.5285 212.5981 -102.2856 213.4214 C-90.7685 251.6478 -67.6641 286.8022 -42 317 C-41.729 317.3218 -41.729 317.3218 -40.3574 318.9502 C-36.9441 323.0022 -33.5199 327.0401 -30 331 C-29.572 331.4879 -29.572 331.4879 -27.4062 333.957 C-27.0092 334.2941 -27.0092 334.2941 -25 336 C-21.5995 335.6884 -19.9941 334.3371 -17.7148 331.8945 C-17.4111 331.5713 -17.4111 331.5713 -15.874 329.9353 C-15.235 329.2348 -14.5959 328.5343 -13.9375 327.8125 C-13.6044 327.4516 -13.6044 327.4516 -11.9189 325.6252 C-5.8972 319.0269 -0.3451 312.1515 5 305 C5.4426 304.4143 5.8853 303.8286 6.3413 303.2251 C34.2669 266.2219 68.0931 215.7331 61.4922 166.9844 C57.76 142.9451 45.6826 123.8714 26.7773 108.9805 C15.5858 101 15.5858 101 9 101 C10.6867 96.502 12.8167 92.2711 15 88 C32.4031 90.972 48.1776 107.0316 58.1875 120.6875 C73.8261 142.8087 79.2253 169.6864 75.3125 196.3672 C72.0761 214.9304 65.1301 232.0987 57 249 C56.6181 249.8071 56.2362 250.6142 55.8428 251.4458 C40.7082 283.1063 18.6246 311.8657 -4.9258 337.6992 C-7.5491 340.6091 -10.0771 343.5958 -12.5898 346.6016 C-14 348 -14 348 -16 348 C-16 348.66 -16 349.32 -16 350 C-18.75 352.6875 -18.75 352.6875 -22 355 C-31.2983 354.1397 -40.1394 340.5894 -46 334 C-46.4525 333.4923 -46.9049 332.9845 -47.3711 332.4614 C-67.6976 309.4735 -85.9257 283.2796 -100 256 C-100.3574 255.3194 -100.7148 254.6387 -101.083 253.9375 C-119.0154 219.725 -129.3807 183.1847 -117.8672 145.2695 C-113.6153 133.4852 -107.076 123.4946 -99 114 C-98.7235 113.6565 -98.7235 113.6565 -97.3242 111.918 C-81.8279 93.1671 -60.0579 84.1509 -37 79 C-37.0232 78.0048 -37.0464 77.0097 -37.0703 75.9844 C-37.4689 51.2852 -35.3154 24.8847 -17.2969 6.1406 C-12.026 1.2283 -7.387 -2.902 0 0 Z M-13 34 C-23.8886 51.1258 -25.605 70.2299 -23 90 C-12.0528 85.4805 -4.7203 71.4591 -0.1743 61.1226 C3.2834 52.7327 5.5217 44.1051 4 35 C2.8299 32.7656 1.7883 30.7883 0 29 C-5.9766 28.2969 -8.9693 29.7518 -13 34 Z M-34.1602 137.4922 C-34.4724 137.7596 -34.4724 137.7596 -36.0525 139.113 C-49.4216 150.8323 -63.9881 164.6985 -66.2979 183.4133 C-66.4359 185.9093 -66.4679 188.3755 -66.4375 190.875 C-66.4299 191.752 -66.4224 192.6289 -66.4146 193.5325 C-66.0682 207.1772 -59.9894 217.891 -50.1836 227.2148 C-41.1316 234.6151 -28.5649 237.8411 -17 237 C-15.6614 236.6884 -14.3264 236.3599 -13 236 C-13.7043 229.0851 -14.7121 222.2586 -15.8477 215.4023 C-16.0238 214.3275 -16.2 213.2526 -16.3815 212.1452 C-16.9396 208.7422 -17.501 205.3399 -18.0625 201.9375 C-18.4436 199.6179 -18.8244 197.2982 -19.2051 194.9785 C-20.1343 189.3186 -21.0661 183.6591 -22 178 C-27.5111 178 -30.1673 180.1751 -34 184 C-36.9755 188.4881 -38.7583 193.4349 -38.4531 198.8945 C-36.9428 205.9122 -32.7818 211.8083 -28 217 C-36.1809 214.2017 -42.7641 211.0125 -47.375 203.4375 C-51.1315 195.4912 -51.3656 185.4353 -48.75 177.0625 C-44.4771 166.2822 -35.767 159.6826 -26 154 C-26.3087 151.3953 -26.6218 148.7913 -26.9375 146.1875 C-26.981 145.8185 -26.981 145.8185 -27.2012 143.9512 C-27.5822 140.8327 -28.0037 137.9889 -29 135 C-31.6099 135 -32.1982 135.809 -34.1602 137.4922 Z M-11 174 C-11.122 179.6219 -10.7247 184.8447 -9.793 190.3828 C-9.6669 191.1595 -9.5408 191.9363 -9.411 192.7365 C-9.1441 194.3724 -8.8742 196.0077 -8.6013 197.6426 C-8.1923 200.0965 -7.7936 202.5519 -7.3965 205.0078 C-5.8609 214.4048 -4.107 223.7117 -2 233 C4.9215 230.7917 9.7079 227.726 13.5859 221.4219 C18.0004 212.695 19.7441 204.1024 17.3516 194.3594 C13.9469 186.0369 8.0755 179.8175 0 176 C-3.8362 174.4655 -6.8702 173.7571 -11 174 Z " fill="#c4a25c" transform="translate(278,76)"/></svg>
