<svg version="1.2" baseProfile="tiny-ps" xmlns="http://www.w3.org/2000/svg" viewBox="0 0 1024 1024"><title>MusicalMap</title><rect width="1024" height="1024" fill="#ffffff"/><path d="M0 0 C35.65 36.6205 40.5683 99.6301 28.6875 147 C17.7615 185.2572 -3.8891 218.132 -33.1719 244.9922 C-35.7475 247.821 -35.792 250.256 -36 254 C-35.67 254.66 -35.34 255.32 -35 256 C-29.0725 255.877 -26.3606 254.1329 -22.1875 250.0625 C-21.1537 249.0635 -20.1198 248.0645 -19.0547 247.0352 C-18.0466 246.0336 -17.0386 245.032 -16 244 C-15.5579 243.5765 -15.5579 243.5765 -13.3203 241.4336 C-7.3759 235.6651 -2.0712 229.5443 3 223 C3.865 221.8901 4.7299 220.7802 5.6211 219.6367 C15.1718 207.0244 23.1191 193.4542 29.8789 179.1523 C31 177 31 177 33 175 C75.2085 176.5464 117.1403 234.3998 135 268 C135.3532 268.6639 135.3532 268.6639 137.1406 272.0234 C157.2359 312.293 163.2491 361.8842 154 406 C153.8226 406.9012 153.6452 407.8024 153.4624 408.731 C145.9297 446.2409 131.0051 481.9025 114 516 C113.448 517.1081 112.8959 518.2162 112.3271 519.3579 C100.7145 542.5268 87.324 564.3186 73.0376 585.918 C71.6254 588.054 70.2165 590.1922 68.8101 592.332 C56.2715 611.4086 43.3541 629.9302 28.832 647.5508 C26.5944 650.2761 24.4008 653.0189 22.25 655.8125 C15.5194 664.5324 8.4247 672.8663 1 681 C-0.5013 682.6655 -2.0013 684.3322 -3.5 686 C-12.5 696 -12.5 696 -14.7734 698.5195 C-16.2041 700.1133 -17.6267 701.7143 -19.0391 703.3242 C-23.798 708.7159 -28.7557 713.8891 -33.8125 719 C-34.4591 719.6596 -35.1058 720.3192 -35.772 720.9988 C-42.8545 728.0952 -42.8545 728.0952 -47.9558 727.8689 C-51.474 726.8647 -53.0743 725.614 -55.707 723.0977 C-56.5676 722.2831 -57.4283 721.4686 -58.3149 720.6294 C-59.201 719.7617 -60.0871 718.894 -61 718 C-61.877 717.1491 -62.7541 716.2981 -63.6577 715.4214 C-66.3541 712.7793 -69.0239 710.1127 -71.6875 707.4375 C-72.5853 706.5435 -73.4832 705.6496 -74.4082 704.7285 C-79.486 699.6433 -84.3304 694.4619 -89 689 C-90.0364 687.8102 -91.0728 686.6204 -92.1406 685.3945 C-111.7028 662.8587 -111.7028 662.8587 -120.2773 651.5664 C-122.2721 648.9535 -124.2825 646.3594 -126.3164 643.7773 C-133.2111 635.0154 -139.8551 626.1395 -146.2188 616.9844 C-148.6837 613.4531 -151.2071 609.9752 -153.75 606.5 C-160.5336 597.0138 -166.7072 587.1247 -172.9331 577.2681 C-174.9275 574.1147 -176.9336 570.969 -178.9414 567.8242 C-190.4085 549.7773 -200.6446 531.2275 -210 512 C-210.8604 510.272 -211.7211 508.5442 -212.582 506.8164 C-227.9963 475.5899 -239.9118 442.1063 -247 408 C-247.1044 407.5332 -247.1044 407.5332 -247.6328 405.1709 C-253.7694 377.2939 -253.9064 344.735 -247 317 C-246.7804 316.1014 -246.5608 315.2027 -246.3345 314.2769 C-241.7296 295.9258 -234.7882 278.7576 -226 262 C-225.5321 261.05 -225.0641 260.0999 -224.582 259.1211 C-220.1217 250.3444 -214.0257 242.735 -208 235 C-207.2923 234.0641 -206.5846 233.1283 -205.8555 232.1641 C-175.3756 193.0873 -131.7708 169.5582 -84.0898 158.957 C-81 158 -81 158 -78 155 C-77.7027 151.6139 -77.5831 148.4033 -77.5938 145.0156 C-77.5883 144.5123 -77.5883 144.5123 -77.5609 141.9653 C-77.5266 138.7268 -77.5111 135.4886 -77.5 132.25 C-77.3544 91.1318 -71.493 47.5418 -44 15 C-43.5675 14.4863 -43.5675 14.4863 -41.3789 11.8867 C-30.1782 -0.871 -15.5505 -14.8128 0 0 Z M-45 93 C-52.179 114.1479 -62.5022 159.6637 -48 179 C-36.6444 179.6551 -29.0286 164.9438 -23 157 C-22.5746 156.447 -22.5746 156.447 -20.4219 153.6484 C-3.2328 130.5676 14.5104 95.3587 6 66 C2.6693 58.4127 -1.2779 53.1444 -9.8125 51.4375 C-29.6377 54.9361 -38.6285 76.191 -45 93 Z M-73.875 279.5 C-75.1022 280.597 -76.3294 281.694 -77.5938 282.8242 C-80.8787 285.8869 -84.093 288.9869 -87.2148 292.2148 C-89.0455 294.0455 -90.959 295.7062 -92.9375 297.375 C-124.4733 324.6774 -143.55 366.373 -136.2812 408.1289 C-128.2265 443.646 -103.2535 470.5931 -68.75 481.875 C-54.9739 485.8473 -37.2682 490.0546 -24 483 C-20.4758 475.9517 -25.34 461.9925 -26.7305 454.5547 C-27.0034 453.0726 -27.2763 451.5905 -27.5574 450.0635 C-28.4295 445.3331 -29.3083 440.604 -30.1875 435.875 C-31.0438 431.2431 -31.8986 426.611 -32.7532 421.9788 C-33.3205 418.9094 -33.8897 415.8403 -34.4609 412.7717 C-35.9009 405.0253 -37.3092 397.2754 -38.6587 389.5127 C-38.9247 387.9982 -39.1908 386.4837 -39.4649 384.9234 C-39.9683 382.0494 -40.4636 379.174 -40.9495 376.2971 C-41.0625 375.6558 -41.0625 375.6558 -41.634 372.4106 C-41.8263 371.289 -42.0186 370.1674 -42.2168 369.0117 C-43.2699 364.9622 -44.3336 361.6557 -48.3828 360.0625 C-58.6586 359.8171 -66.4888 369.5394 -71.75 377.25 C-80.5526 391.7891 -80.4505 409.1915 -72.3164 424.082 C-69.9968 427.8084 -67.5767 431.3015 -64.7812 434.6875 C-63 437 -63 437 -63 439 C-80.2198 435.8111 -91.8224 423.0883 -97.9297 407.2539 C-105.9936 382.7383 -100.955 355.9738 -84.0781 336.2305 C-77.5454 329.2188 -70.3842 324.1129 -62.2344 319.0781 C-53.0183 313.1567 -53.0183 313.1567 -52.9805 308.6992 C-53.4867 301.3347 -54.5558 294.1309 -55.875 286.875 C-56.0364 285.9503 -56.1977 285.0257 -56.364 284.073 C-57.2269 279.5399 -57.6625 277.3375 -61 274 C-66.9477 272.8543 -69.587 275.6417 -73.875 279.5 Z M-23 356 C-23.3023 358.4115 -23.3023 358.4115 -22.9819 361.2871 C-22.8531 362.4469 -22.7242 363.6066 -22.5915 364.8015 C-21.2919 374.0262 -19.8191 383.2172 -18.2891 392.4062 C-17.9163 394.6625 -17.5438 396.9188 -17.1715 399.1752 C-16.3937 403.8792 -15.6113 408.5824 -14.8262 413.2852 C-13.821 419.3101 -12.8307 425.3374 -11.8442 431.3655 C-11.081 436.0146 -10.3083 440.6621 -9.5328 445.3092 C-9.1634 447.5318 -8.7975 449.755 -8.435 451.9787 C-7.9284 455.0794 -7.4085 458.1775 -6.8853 461.2754 C-6.812 461.7331 -6.812 461.7331 -6.441 464.0493 C-5.6645 468.5593 -4.9795 472.4318 -2 476 C7.1481 478.287 15.9713 469.6037 22.5625 463.9375 C38.7398 446.8041 45.0025 422.4947 39.9375 399.5625 C32.8374 376.2289 16.4617 359.471 -7 353 C-18.6777 350.4011 -18.6777 350.4011 -23 356 Z " fill="#14334c" transform="translate(559,150)"/><path d="M0 0 C5.4303 5.799 9.7621 12.0364 13.7383 18.8945 C14.3867 19.9812 15.0351 21.0679 15.7031 22.1875 C46.2616 75.9728 38.6453 144.5431 9.7383 196.8945 C-1.8476 216.2103 -16.793 233.2855 -33.1992 248.6445 C-37.1625 252.9681 -36.1415 257.0401 -35.3359 262.4492 C-35.226 263.2007 -35.226 263.2007 -34.6699 267.0039 C-34.4321 268.5766 -34.1943 270.1492 -33.9492 271.7695 C-33.723 273.3035 -33.4968 274.8375 -33.2637 276.418 C-32.815 279.4591 -32.3592 282.4992 -31.896 285.5381 C-31.4857 288.356 -31.1136 291.1799 -30.7876 294.0088 C-30.6411 295.2524 -30.4947 296.496 -30.3438 297.7773 C-30.2288 298.8668 -30.1138 299.9562 -29.9954 301.0786 C-29.1084 304.4828 -28.0733 305.8075 -25.2617 307.8945 C-21.8284 308.2228 -18.6304 308.3488 -15.1992 308.332 C17.7555 309.0678 46.8196 326.6541 63.7383 354.8945 C81.2094 387.3805 79.7041 425.0369 60.4258 456.3945 C47.9555 474.6286 31.8271 487.6948 11.7109 496.5703 C10.73 497.0073 9.749 497.4443 8.7383 497.8945 C7.6232 498.2387 6.5082 498.5829 5.3594 498.9375 C1.82 501.5801 2.1137 503.6518 2.3711 507.8882 C2.9222 512.4003 3.6878 516.8562 4.5176 521.325 C6.7657 533.4344 8.2318 545.2549 8.2383 557.582 C8.2441 558.7432 8.2499 559.9044 8.2559 561.1008 C7.9171 584.4652 -2.9921 603.8051 -23.5117 615.2734 C-32.1868 619.0236 -40.282 620.4066 -49.6992 620.2695 C-50.7055 620.2601 -51.7118 620.2507 -52.7485 620.241 C-69.3096 619.9046 -85.5098 614.3217 -94.2617 599.207 C-99.616 587.6618 -98.0577 575.7737 -91.5117 565.0195 C-83.9881 557.9139 -76.5115 555.7387 -66.4492 555.332 C-58.3614 554.9942 -58.3614 554.9942 -57.2617 553.8945 C-57.14 551.9309 -57.082 549.9632 -57.0508 547.9961 C-57.0224 546.7947 -56.9941 545.5933 -56.9648 544.3555 C-56.9129 541.8061 -56.8686 539.2566 -56.832 536.707 C-56.8011 535.503 -56.7702 534.2991 -56.7383 533.0586 C-56.7185 531.9495 -56.6986 530.8404 -56.6782 529.6978 C-56.2617 526.8945 -56.2617 526.8945 -53.2617 523.8945 C-47.7678 523.8945 -46.5 525.7974 -43.2617 529.8945 C-41.6307 531.2511 -39.9626 532.5642 -38.2617 533.832 C-30.9297 539.5551 -27.9211 544.5267 -28.2617 553.8945 C-29.2617 555.8945 -29.2617 555.8945 -32.0742 556.3945 C-36.5205 555.6971 -36.9082 553.572 -39.2617 549.8945 C-42.4492 548.457 -42.4492 548.457 -45.2617 547.8945 C-47.1333 549.7661 -46.4149 552.9603 -46.4375 555.457 C-46.4613 556.8118 -46.4852 558.1666 -46.5098 559.5625 C-46.5523 562.4191 -46.5838 565.2759 -46.6035 568.1328 C-46.9912 587.2283 -46.9912 587.2283 -55.7617 592.3945 C-56.5145 592.8586 -57.2673 593.3227 -58.043 593.8008 C-60.2617 594.8945 -60.2617 594.8945 -64.2617 595.8945 C-64.2617 596.8845 -64.2617 597.8745 -64.2617 598.8945 C-50.4738 603.6734 -36.7067 602.1432 -25.2617 592.8945 C-7.7943 575.0576 -12.5929 550.5503 -16.5742 528.2695 C-16.7287 527.3863 -16.8833 526.5031 -17.0425 525.5931 C-17.4921 523.0524 -17.9606 520.5161 -18.4375 517.9805 C-18.5763 517.2382 -18.5763 517.2382 -19.2786 513.4819 C-20.2617 509.8945 -20.2617 509.8945 -23.2617 506.8945 C-26.865 506.6174 -26.865 506.6174 -31.3828 506.7422 C-32.2072 506.7575 -32.2072 506.7575 -36.3789 506.8352 C-37.2487 506.856 -38.1185 506.8767 -39.0146 506.8981 C-53.868 507.2241 -67.8941 507.1417 -82.2617 502.8945 C-83.5314 502.5555 -84.8012 502.2165 -86.1094 501.8672 C-105.6428 496.0955 -122.6066 484.8004 -137.2617 470.8945 C-138.2324 469.9883 -139.203 469.0821 -140.2031 468.1484 C-173.9189 435.7245 -187.1995 385.1893 -176.2617 339.8945 C-164.2322 293.4626 -130.6139 255.1665 -93.7031 225.8633 C-90.8272 223.5442 -88.0406 221.1434 -85.2812 218.6875 C-83.8125 217.3836 -82.3286 216.0967 -80.8359 214.8203 C-80.0277 214.1229 -79.2195 213.4255 -78.3867 212.707 C-77.6468 212.0741 -76.9069 211.4412 -76.1445 210.7891 C-71.0269 205.6396 -72.1303 200.4412 -73.2617 193.8945 C-74.2617 190.6445 -74.2617 190.6445 -76.2617 188.8945 C-107.5414 187.8159 -146.026 214.351 -167.2617 234.8945 C-167.7922 235.3934 -167.7922 235.3934 -170.4766 237.918 C-217.1188 282.841 -231.1664 350.546 -216.5742 412.2695 C-208.8943 443.1795 -197.884 472.5511 -183.6787 501.0459 C-182.3488 503.7195 -181.0402 506.4024 -179.7383 509.0898 C-151.6704 566.6736 -113.2415 620.3177 -70.2656 667.6758 C-68.4486 669.6876 -66.6623 671.7211 -64.8867 673.7695 C-64.335 674.396 -63.7833 675.0225 -63.2148 675.668 C-61.6491 677.4529 -60.1009 679.2533 -58.5586 681.0586 C-57.5944 682.1595 -56.6302 683.2603 -55.6367 684.3945 C-54.737 685.4361 -53.8372 686.4777 -52.9102 687.5508 C-50.2617 689.8945 -50.2617 689.8945 -45.2617 689.8945 C-43.0928 688.325 -43.0928 688.325 -40.9336 686.125 C-40.5358 685.7244 -40.5358 685.7244 -38.5229 683.697 C-38.1086 683.2655 -38.1086 683.2655 -36.0117 681.082 C-35.1585 680.2107 -34.3053 679.3394 -33.4263 678.4417 C-28.3984 673.2601 -23.5927 667.9841 -19.1523 662.2852 C-17.1663 659.7739 -15.0574 657.4349 -12.8867 655.082 C-8.2708 650.015 -4.0717 644.6632 0.1289 639.25 C2.2372 636.5389 4.3786 633.8666 6.5508 631.207 C10.4346 626.3683 14.1188 621.3873 17.8008 616.3945 C18.3787 615.6112 18.9566 614.8278 19.552 614.0208 C79.5216 532.3291 153.0679 417.9058 112.8564 291.3921 C102.6688 268.6367 86.3025 245.5335 66.7383 229.8945 C65.6194 228.9999 64.5005 228.1053 63.3477 227.1836 C52.5794 218.8392 41.2056 211.965 29.2065 205.5386 C21.9389 201.6126 21.9389 201.6126 21.4336 197.2852 C21.8388 192.7759 23.5352 189.6528 25.6133 185.6445 C26.3326 184.2369 27.0519 182.8292 27.793 181.3789 C30.7975 175.9972 30.7975 175.9972 34.8867 175.5508 C63.5348 178.1076 96.0486 212.6949 112.7383 233.8945 C113.5182 234.8459 114.298 235.7972 115.1016 236.7773 C140.8698 268.9157 157.7263 311.2668 157.9414 352.625 C157.9485 353.5296 157.9555 354.4342 157.9628 355.3662 C158.1864 392.4203 158.1864 392.4203 154.7383 408.8945 C154.5609 409.7928 154.3835 410.6912 154.2007 411.6167 C146.6699 449.1303 131.7448 484.7942 114.7383 518.8945 C114.1862 520.0026 113.6342 521.1108 113.0654 522.2524 C101.4528 545.4213 88.0622 567.2131 73.7759 588.8125 C72.3637 590.9485 70.9547 593.0867 69.5483 595.2266 C57.0098 614.3031 44.0924 632.8247 29.5703 650.4453 C27.3327 653.1706 25.1391 655.9135 22.9883 658.707 C16.2577 667.4269 9.163 675.7609 1.7383 683.8945 C0.237 685.56 -1.263 687.2267 -2.7617 688.8945 C-11.7617 698.8945 -11.7617 698.8945 -14.0352 701.4141 C-15.4658 703.0078 -16.8884 704.6088 -18.3008 706.2188 C-23.0597 711.6104 -28.0175 716.7836 -33.0742 721.8945 C-33.7208 722.5541 -34.3675 723.2137 -35.0337 723.8933 C-39.7237 728.5924 -43.388 731.952 -50.2617 730.8945 C-58.024 725.767 -64.3067 719.11 -70.8242 712.5195 C-71.373 711.9704 -71.373 711.9704 -74.1504 709.1914 C-79.73 703.5815 -85.1357 697.921 -90.2617 691.8945 C-91.2981 690.7047 -92.3345 689.5149 -93.4023 688.2891 C-112.9645 665.7532 -112.9645 665.7532 -121.5391 654.4609 C-123.5338 651.848 -125.5442 649.2539 -127.5781 646.6719 C-134.4728 637.91 -141.1168 629.034 -147.4805 619.8789 C-149.9454 616.3476 -152.4689 612.8698 -155.0117 609.3945 C-161.7953 599.9084 -167.9689 590.0193 -174.1948 580.1626 C-176.1892 577.0092 -178.1953 573.8636 -180.2031 570.7188 C-191.6703 552.6719 -201.9064 534.122 -211.2617 514.8945 C-212.1222 513.1666 -212.9829 511.4387 -213.8438 509.7109 C-228.7652 479.4829 -240.7657 446.8908 -247.6445 413.8555 C-248.0453 411.9328 -248.4611 410.0132 -248.8945 408.0977 C-255.2189 379.7581 -255.3598 346.0453 -248.2617 317.8945 C-248.0421 316.9988 -247.8225 316.1031 -247.5962 315.1802 C-242.992 296.8252 -236.0517 279.6556 -227.2617 262.8945 C-226.7938 261.9445 -226.3259 260.9945 -225.8438 260.0156 C-221.3835 251.2389 -215.2875 243.6295 -209.2617 235.8945 C-208.554 234.9587 -207.8463 234.0228 -207.1172 233.0586 C-176.4876 193.7899 -132.497 170.0255 -84.4727 159.7539 C-81.2617 158.8945 -81.2617 158.8945 -79.2617 156.8945 C-79.0506 153.5015 -78.9605 150.1841 -78.9531 146.7891 C-78.9279 144.6673 -78.9025 142.5456 -78.877 140.4238 C-78.8486 137.1008 -78.8246 133.7779 -78.8054 130.4548 C-78.5281 90.2776 -72.0435 47.5944 -45.2617 15.8945 C-44.8292 15.3808 -44.8292 15.3808 -42.6406 12.7812 C-31.6767 0.2933 -15.7171 -14.6313 0 0 Z M-35.2812 76.2539 C-49.5738 102.5274 -62.7947 152.8286 -48.2617 181.8945 C-37.6246 178.1661 -30.7942 166.5283 -24.2617 157.8945 C-23.4122 156.7898 -22.5627 155.6851 -21.6875 154.5469 C-5.0071 132.1579 14.4107 95.6456 3.9258 67.3945 C1.1078 61.1627 -1.7541 57.4705 -8.2617 54.8945 C-21.2296 54.8945 -29.2955 66.1118 -35.2812 76.2539 Z M-69.5117 279.3945 C-70.4901 280.3265 -71.4685 281.2585 -72.4766 282.2188 C-73.3957 283.1018 -74.3148 283.9848 -75.2617 284.8945 C-76.5236 286.0089 -77.7935 287.1144 -79.0742 288.207 C-87.9507 295.9464 -96.7737 303.7809 -104.2617 312.8945 C-105.0158 313.7492 -105.7699 314.6038 -106.5469 315.4844 C-131.9047 344.6831 -144.3315 383.2178 -132.2617 420.8945 C-119.4168 455.9595 -90.7122 479.0647 -54.2617 486.207 C-30.9301 489.5629 -30.9301 489.5629 -24.2617 482.8945 C-24.6807 474.3485 -26.4245 465.9795 -27.9922 457.582 C-28.1286 456.8415 -28.1286 456.8415 -28.8192 453.0938 C-29.692 448.36 -30.5703 443.6272 -31.4492 438.8945 C-32.5905 432.7282 -33.729 426.5614 -34.8672 420.3945 C-35.1488 418.8743 -35.4303 417.3541 -35.7204 415.7878 C-37.1721 407.9237 -38.5907 400.0554 -39.9556 392.1758 C-40.2261 390.6167 -40.4967 389.0575 -40.7755 387.4512 C-41.2883 384.482 -41.7964 381.512 -42.2991 378.541 C-42.5282 377.2139 -42.7573 375.8868 -42.9934 374.5195 C-43.1909 373.3568 -43.3885 372.1941 -43.592 370.9961 C-44.2292 368.0452 -44.8158 365.548 -46.2617 362.8945 C-53.3243 361.1289 -58.7364 366.567 -63.8047 371.2383 C-75.5052 383.6248 -80.3143 398.7793 -75.6992 415.457 C-73.1654 422.9684 -69.2246 429.4726 -64.043 435.457 C-62.2617 437.8945 -62.2617 437.8945 -62.2617 441.8945 C-76.881 441.3429 -88.1239 430.9331 -95.2617 418.8945 C-107.2367 395.8184 -105.3641 368.3065 -92.0117 346.207 C-82.47 332.109 -69.8223 323.3701 -55.2617 314.8945 C-50.8944 310.5272 -56.5019 293.3549 -57.5742 287.6445 C-57.7748 286.5127 -57.9754 285.3809 -58.1821 284.2148 C-58.2861 283.685 -58.2861 283.685 -58.8125 281.0039 C-58.9947 280.0445 -59.1768 279.0851 -59.3645 278.0967 C-61.9274 271.8063 -66.4216 276.3928 -69.5117 279.3945 Z M-22.2617 356.8945 C-23.3451 368.5844 -19.4526 381.9811 -17.5508 393.5195 C-17.1781 395.7982 -16.8056 398.077 -16.4332 400.3557 C-15.6553 405.1068 -14.873 409.8571 -14.0879 414.6069 C-13.0827 420.6924 -12.0924 426.7803 -11.1059 432.8688 C-10.3427 437.5643 -9.57 442.2582 -8.7945 446.9516 C-8.4251 449.1965 -8.0591 451.442 -7.6967 453.688 C-7.1901 456.8198 -6.6703 459.9491 -6.147 463.0781 C-6.0004 464.0029 -5.8538 464.9276 -5.7027 465.8803 C-4.9309 470.4075 -4.2331 474.2935 -1.2617 477.8945 C12.8481 478.0704 25.0658 461.265 31.6875 450.6406 C43.8496 428.4246 42.1808 404.4495 29.7383 382.8945 C21.4229 370.1149 -5.814 345.9294 -22.2617 356.8945 Z " fill="#c4a25c" transform="translate(559.26171875,148.10546875)"/></svg>
